<svg class="w-auto max-w-[16rem] h-40 text-gray-800 dark:text-white" aria-hidden="true" width="584" height="659" viewBox="0 0 584 659" fill="none" xmlns="http://www.w3.org/2000/svg">
<path d="M156 43.871C156 19.6417 175.642 0 199.871 0H384.129C408.358 0 428 19.6417 428 43.871V527.548C428 551.778 408.358 571.419 384.129 571.419H199.871C175.642 571.419 156 551.778 156 527.548V43.871Z" fill="#d6e2fb"/>
<path fill-rule="evenodd" clip-rule="evenodd" d="M384.129 10.9677H199.871C181.699 10.9677 166.968 25.699 166.968 43.871V527.548C166.968 545.72 181.699 560.452 199.871 560.452H384.129C402.301 560.452 417.032 545.72 417.032 527.548V43.871C417.032 25.699 402.301 10.9677 384.129 10.9677ZM199.871 0C175.642 0 156 19.6417 156 43.871V527.548C156 551.778 175.642 571.419 199.871 571.419H384.129C408.358 571.419 428 551.778 428 527.548V43.871C428 19.6417 408.358 0 384.129 0H199.871Z" fill="#d6e2fb"/>
<path fill-rule="evenodd" clip-rule="evenodd" d="M384.129 10.9677H199.871C181.699 10.9677 166.968 25.699 166.968 43.871V527.548C166.968 545.72 181.699 560.452 199.871 560.452H384.129C402.301 560.452 417.032 545.72 417.032 527.548V43.871C417.032 25.699 402.301 10.9677 384.129 10.9677ZM199.871 0C175.642 0 156 19.6417 156 43.871V527.548C156 551.778 175.642 571.419 199.871 571.419H384.129C408.358 571.419 428 551.778 428 527.548V43.871C428 19.6417 408.358 0 384.129 0H199.871Z" fill="url(#paint0_linear_243_1542)"/>
<path d="M258 29.613C258 25.3728 261.437 21.9355 265.677 21.9355H319.419C323.659 21.9355 327.097 25.3728 327.097 29.613C327.097 33.8531 323.659 37.2904 319.419 37.2904H265.677C261.437 37.2904 258 33.8531 258 29.613Z" fill="#2563eb" fill-opacity="0.2"/>
<rect x="188" y="426" width="209" height="95" rx="10" fill="#F9FAFB"/>
<path fill-rule="evenodd" clip-rule="evenodd" d="M397 475.316V511C397 516.523 392.523 521 387 521H198C192.477 521 188 516.523 188 511V508.416C188.949 507.409 189.931 506.345 190.944 505.248C199.279 496.221 209.64 485 220 485C226.065 485 230.062 486.523 234.327 488.149C239.204 490.008 244.431 492 253.5 492C261.313 492 275.464 481.015 290.758 469.143C308.74 455.185 328.301 440 341 440C355.103 440 366.264 450.593 376.478 460.286C383.552 467 390.172 473.283 397 475.316Z" fill="url(#paint1_linear_243_1542)"/>
<path fill-rule="evenodd" clip-rule="evenodd" d="M188 509.87V506.954C188.714 506.189 189.448 505.394 190.201 504.578L190.201 504.578L190.202 504.577C190.695 504.044 191.195 503.502 191.704 502.953C194.394 500.052 197.292 496.991 200.323 494.202C206.333 488.672 213.085 484 220 484C226.253 484 230.403 485.582 234.669 487.209C234.98 487.328 235.291 487.446 235.604 487.565C240.172 489.293 245.169 491 253.5 491C255.399 491 257.83 490.265 260.744 488.864C263.637 487.473 266.913 485.473 270.476 483.048C276.455 478.98 283.162 473.774 290.138 468.359C291.483 467.314 292.839 466.262 294.201 465.209C302.605 458.711 311.254 452.179 319.283 447.272C327.27 442.391 334.823 439 341 439C354.451 439 365.225 448.309 374.748 457.272C375.568 458.043 376.378 458.813 377.181 459.574C381.089 463.283 384.806 466.811 388.498 469.575C391.393 471.742 394.204 473.386 397 474.27V476.357C393.677 475.423 390.46 473.542 387.299 471.176C383.505 468.335 379.684 464.708 375.776 460.998L375.776 460.998C374.98 460.243 374.181 459.484 373.377 458.728C363.775 449.691 353.549 441 341 441C335.427 441 328.293 444.109 320.326 448.978C312.402 453.821 303.833 460.289 295.424 466.791C294.071 467.838 292.721 468.885 291.379 469.927L291.378 469.928L291.378 469.928C284.404 475.342 277.637 480.595 271.602 484.702C268.001 487.152 264.632 489.214 261.61 490.667C258.607 492.11 255.851 493 253.5 493C244.831 493 239.578 491.207 234.896 489.435C234.59 489.32 234.288 489.204 233.987 489.09L233.985 489.089C229.721 487.465 225.876 486 220 486C213.915 486 207.667 490.162 201.677 495.673C198.708 498.405 195.856 501.417 193.171 504.313C192.67 504.852 192.175 505.389 191.686 505.919L191.686 505.919C190.413 507.297 189.181 508.632 188 509.87Z" fill="#c8d8fa"/>
<rect x="188" y="167" width="209" height="235" rx="10" fill="#F9FAFB"/>
<path fill-rule="evenodd" clip-rule="evenodd" d="M369 228C367.895 228 367 228.895 367 230V380C367 381.105 367.895 382 369 382H371C372.105 382 373 381.105 373 380V230C373 228.895 372.105 228 371 228H369ZM353 251C353 249.895 353.895 249 355 249H357C358.105 249 359 249.895 359 251V380C359 381.105 358.105 382 357 382H355C353.895 382 353 381.105 353 380V251ZM313 269C311.895 269 311 269.895 311 271V380C311 381.105 311.895 382 313 382H315C316.105 382 317 381.105 317 380V271C317 269.895 316.105 269 315 269H313ZM297 283C297 281.895 297.895 281 299 281H301C302.105 281 303 281.895 303 283V380C303 381.105 302.105 382 301 382H299C297.895 382 297 381.105 297 380V283ZM285 295C283.895 295 283 295.895 283 297V380C283 381.105 283.895 382 285 382H287C288.105 382 289 381.105 289 380V297C289 295.895 288.105 295 287 295H285ZM257 302C255.895 302 255 302.895 255 304V380C255 381.105 255.895 382 257 382H259C260.105 382 261 381.105 261 380V304C261 302.895 260.105 302 259 302H257ZM241 317C241 315.895 241.895 315 243 315H245C246.105 315 247 315.895 247 317V380C247 381.105 246.105 382 245 382H243C241.895 382 241 381.105 241 380V317ZM229 330C227.895 330 227 330.895 227 332V380C227 381.105 227.895 382 229 382H231C232.105 382 233 381.105 233 380V332C233 330.895 232.105 330 231 330H229ZM215 343C213.895 343 213 343.895 213 345V380C213 381.105 213.895 382 215 382H217C218.105 382 219 381.105 219 380V345C219 343.895 218.105 343 217 343H215ZM269 321C269 319.895 269.895 319 271 319H273C274.105 319 275 319.895 275 321V380C275 381.105 274.105 382 273 382H271C269.895 382 269 381.105 269 380V321ZM325 288C325 286.895 325.895 286 327 286H329C330.105 286 331 286.895 331 288V380C331 381.105 330.105 382 329 382H327C325.895 382 325 381.105 325 380V288ZM341 272C339.895 272 339 272.895 339 274V380C339 381.105 339.895 382 341 382H343C344.105 382 345 381.105 345 380V274C345 272.895 344.105 272 343 272H341Z" fill="#2563eb"/>
<path fill-rule="evenodd" clip-rule="evenodd" d="M369 228C367.895 228 367 228.895 367 230V380C367 381.105 367.895 382 369 382H371C372.105 382 373 381.105 373 380V230C373 228.895 372.105 228 371 228H369ZM353 251C353 249.895 353.895 249 355 249H357C358.105 249 359 249.895 359 251V380C359 381.105 358.105 382 357 382H355C353.895 382 353 381.105 353 380V251ZM313 269C311.895 269 311 269.895 311 271V380C311 381.105 311.895 382 313 382H315C316.105 382 317 381.105 317 380V271C317 269.895 316.105 269 315 269H313ZM297 283C297 281.895 297.895 281 299 281H301C302.105 281 303 281.895 303 283V380C303 381.105 302.105 382 301 382H299C297.895 382 297 381.105 297 380V283ZM285 295C283.895 295 283 295.895 283 297V380C283 381.105 283.895 382 285 382H287C288.105 382 289 381.105 289 380V297C289 295.895 288.105 295 287 295H285ZM257 302C255.895 302 255 302.895 255 304V380C255 381.105 255.895 382 257 382H259C260.105 382 261 381.105 261 380V304C261 302.895 260.105 302 259 302H257ZM241 317C241 315.895 241.895 315 243 315H245C246.105 315 247 315.895 247 317V380C247 381.105 246.105 382 245 382H243C241.895 382 241 381.105 241 380V317ZM229 330C227.895 330 227 330.895 227 332V380C227 381.105 227.895 382 229 382H231C232.105 382 233 381.105 233 380V332C233 330.895 232.105 330 231 330H229ZM215 343C213.895 343 213 343.895 213 345V380C213 381.105 213.895 382 215 382H217C218.105 382 219 381.105 219 380V345C219 343.895 218.105 343 217 343H215ZM269 321C269 319.895 269.895 319 271 319H273C274.105 319 275 319.895 275 321V380C275 381.105 274.105 382 273 382H271C269.895 382 269 381.105 269 380V321ZM325 288C325 286.895 325.895 286 327 286H329C330.105 286 331 286.895 331 288V380C331 381.105 330.105 382 329 382H327C325.895 382 325 381.105 325 380V288ZM341 272C339.895 272 339 272.895 339 274V380C339 381.105 339.895 382 341 382H343C344.105 382 345 381.105 345 380V274C345 272.895 344.105 272 343 272H341Z" fill="url(#paint2_linear_243_1542)"/>
<rect x="121" y="571" width="360" height="88" rx="6" fill="#c8d8fa"/>
<rect x="121" y="571" width="360" height="88" rx="6" fill="url(#paint3_linear_243_1542)"/>
<rect x="106" y="637" width="94" height="22" rx="2" fill="#d6e2fb"/>
<rect x="106" y="637" width="94" height="22" rx="2" fill="url(#paint4_linear_243_1542)"/>
<rect x="6" y="637" width="94" height="22" rx="2" fill="#d6e2fb"/>
<rect x="6" y="637" width="94" height="22" rx="2" fill="url(#paint5_linear_243_1542)"/>
<rect x="206" y="637" width="94" height="22" rx="2" fill="#d6e2fb"/>
<rect x="206" y="637" width="94" height="22" rx="2" fill="url(#paint6_linear_243_1542)"/>
<rect x="206" y="637" width="94" height="22" rx="2" fill="url(#paint7_linear_243_1542)"/>
<rect x="56" y="615" width="94" height="22" rx="2" fill="#d6e2fb"/>
<rect x="56" y="615" width="94" height="22" rx="2" fill="url(#paint8_linear_243_1542)"/>
<rect x="106" y="593" width="94" height="22" rx="2" fill="#d6e2fb"/>
<rect x="106" y="593" width="94" height="22" rx="2" fill="url(#paint9_linear_243_1542)"/>
<rect x="156" y="615" width="94" height="22" rx="2" fill="#d6e2fb"/>
<rect x="156" y="615" width="94" height="22" rx="2" fill="url(#paint10_linear_243_1542)"/>
<path d="M237 477.357C237 466.114 246.114 457 257.357 457H558.643C569.886 457 579 466.114 579 477.357V638.179C579 649.422 569.886 658.536 558.643 658.536H257.357C246.114 658.536 237 649.422 237 638.179V477.357Z" fill="#2563eb"/>
<path d="M237 477.357C237 466.114 246.114 457 257.357 457H558.643C569.886 457 579 466.114 579 477.357V638.179C579 649.422 569.886 658.536 558.643 658.536H257.357C246.114 658.536 237 649.422 237 638.179V477.357Z" fill="url(#paint11_linear_243_1542)"/>
<path d="M237 477.357C237 466.114 246.114 457 257.357 457H558.643C569.886 457 579 466.114 579 477.357V638.179C579 649.422 569.886 658.536 558.643 658.536H257.357C246.114 658.536 237 649.422 237 638.179V477.357Z" fill="url(#paint12_linear_243_1542)"/>
<path d="M237 483.464H579" stroke="#d6e2fb" stroke-width="2"/>
<path d="M279.75 569.982C279.75 566.047 282.94 562.857 286.875 562.857H329.625C333.56 562.857 336.75 566.047 336.75 569.982C336.75 573.917 333.56 577.107 329.625 577.107H286.875C282.94 577.107 279.75 573.917 279.75 569.982Z" fill="#9ab7f6"/>
<path d="M346.929 569.982C346.929 566.047 350.119 562.857 354.054 562.857H396.804C400.739 562.857 403.929 566.047 403.929 569.982C403.929 573.917 400.739 577.107 396.804 577.107H354.054C350.119 577.107 346.929 573.917 346.929 569.982Z" fill="#9ab7f6"/>
<path d="M414.107 569.982C414.107 566.047 417.297 562.857 421.232 562.857H463.982C467.917 562.857 471.107 566.047 471.107 569.982C471.107 573.917 467.917 577.107 463.982 577.107H421.232C417.297 577.107 414.107 573.917 414.107 569.982Z" fill="#9ab7f6"/>
<path d="M481.286 569.982C481.286 566.047 484.476 562.857 488.411 562.857H531.161C535.096 562.857 538.286 566.047 538.286 569.982C538.286 573.917 535.096 577.107 531.161 577.107H488.411C484.476 577.107 481.286 573.917 481.286 569.982Z" fill="#9ab7f6"/>
<mask id="mask0_243_1542" style="mask-type:alpha" maskUnits="userSpaceOnUse" x="477" y="601" width="62" height="38">
<path fill-rule="evenodd" clip-rule="evenodd" d="M507.75 634.36C512.233 631.01 515.12 625.759 515.12 619.857C515.12 613.955 512.233 608.705 507.75 605.354C510.953 602.96 514.97 601.536 519.332 601.536C529.8 601.536 538.285 609.738 538.285 619.857C538.285 629.976 529.8 638.178 519.332 638.178C514.97 638.178 510.953 636.754 507.75 634.36ZM507.75 634.36C504.547 636.754 500.529 638.178 496.167 638.178C485.699 638.178 477.214 629.976 477.214 619.857C477.214 609.738 485.699 601.536 496.167 601.536C500.529 601.536 504.547 602.96 507.75 605.354C503.266 608.705 500.379 613.955 500.379 619.857C500.379 625.759 503.266 631.01 507.75 634.36Z" fill="#c8d8fa"/>
</mask>
<g mask="url(#mask0_243_1542)">
<path d="M467.035 601.536H507.749V652.428H467.035V601.536Z" fill="#d6e2fb"/>
</g>
<path fill-rule="evenodd" clip-rule="evenodd" d="M507.75 634.36C512.233 631.01 515.12 625.759 515.12 619.857C515.12 613.955 512.233 608.705 507.75 605.354C510.953 602.96 514.97 601.536 519.332 601.536C529.8 601.536 538.285 609.738 538.285 619.857C538.285 629.976 529.8 638.178 519.332 638.178C514.97 638.178 510.953 636.754 507.75 634.36ZM507.75 634.36C504.547 636.754 500.529 638.178 496.167 638.178C485.699 638.178 477.214 629.976 477.214 619.857C477.214 609.738 485.699 601.536 496.167 601.536C500.529 601.536 504.547 602.96 507.75 605.354C503.266 608.705 500.379 613.955 500.379 619.857C500.379 625.759 503.266 631.01 507.75 634.36Z" fill="#c8d8fa"/>
<path fill-rule="evenodd" clip-rule="evenodd" d="M75 423.998C108.735 423.729 136 396.299 136 362.5C136 328.701 108.735 301.271 75 301.002V301H74.5H60V302.719C33.0318 309.237 13 333.529 13 362.5C13 391.471 33.0318 415.763 60 422.281V424H74.5H75V423.998Z" fill="#2563eb"/>
<path fill-rule="evenodd" clip-rule="evenodd" d="M75 423.998C108.735 423.729 136 396.299 136 362.5C136 328.701 108.735 301.271 75 301.002V301H74.5H60V302.719C33.0318 309.237 13 333.529 13 362.5C13 391.471 33.0318 415.763 60 422.281V424H74.5H75V423.998Z" fill="url(#paint13_linear_243_1542)"/>
<circle cx="61.5" cy="362.5" r="61.5" fill="#2563eb"/>
<circle cx="61.5" cy="362.5" r="61.5" fill="url(#paint14_linear_243_1542)"/>
<circle cx="61.5" cy="362.5" r="48" stroke="url(#paint15_linear_243_1542)"/>
<path d="M58.3129 394.085V331.358H62.3313V394.085H58.3129ZM70.8828 350.813C70.6214 348.494 69.5433 346.697 67.6484 345.423C65.7536 344.132 63.3686 343.487 60.4936 343.487C58.4354 343.487 56.6548 343.814 55.152 344.467C53.6491 345.104 52.4812 345.986 51.6481 347.113C50.8313 348.224 50.4229 349.49 50.4229 350.911C50.4229 352.104 50.7006 353.133 51.256 353.999C51.8278 354.864 52.571 355.591 53.4858 356.179C54.4169 356.751 55.4134 357.233 56.4751 357.625C57.5369 358.001 58.5579 358.311 59.538 358.556L64.4386 359.83C66.0394 360.222 67.6811 360.753 69.3636 361.423C71.0462 362.093 72.6062 362.975 74.0437 364.069C75.4812 365.164 76.641 366.52 77.5231 368.137C78.4215 369.754 78.8707 371.69 78.8707 373.944C78.8707 376.786 78.1357 379.31 76.6655 381.515C75.2116 383.721 73.0962 385.46 70.3192 386.734C67.5586 388.009 64.218 388.646 60.2976 388.646C56.5405 388.646 53.2898 388.049 50.5455 386.857C47.8011 385.664 45.6531 383.974 44.1012 381.785C42.5494 379.58 41.6918 376.966 41.5284 373.944H49.1243C49.2713 375.757 49.8594 377.268 50.8885 378.477C51.9339 379.669 53.2653 380.56 54.8825 381.148C56.516 381.719 58.3047 382.005 60.2486 382.005C62.3885 382.005 64.2915 381.67 65.9577 381.001C67.6403 380.315 68.9634 379.367 69.9272 378.158C70.891 376.933 71.3729 375.504 71.3729 373.87C71.3729 372.384 70.9482 371.167 70.0987 370.219C69.2656 369.272 68.1303 368.488 66.6928 367.867C65.2717 367.246 63.6626 366.699 61.8658 366.225L55.9361 364.608C51.9176 363.514 48.7322 361.905 46.38 359.781C44.044 357.658 42.8761 354.848 42.8761 351.352C42.8761 348.461 43.6602 345.937 45.2283 343.781C46.7965 341.625 48.9201 339.95 51.5991 338.758C54.2781 337.549 57.3001 336.945 60.6651 336.945C64.0629 336.945 67.0604 337.541 69.6577 338.733C72.2713 339.926 74.3295 341.567 75.8324 343.658C77.3352 345.733 78.1193 348.118 78.1847 350.813H70.8828Z" fill="url(#paint16_linear_243_1542)"/>
<path fill-rule="evenodd" clip-rule="evenodd" d="M523 269.998C556.735 269.729 584 242.299 584 208.5C584 174.701 556.735 147.271 523 147.002V147H522.5H508V148.719C481.032 155.237 461 179.529 461 208.5C461 237.471 481.032 261.763 508 268.281V270H522.5H523V269.998Z" fill="#2563eb"/>
<path fill-rule="evenodd" clip-rule="evenodd" d="M523 269.998C556.735 269.729 584 242.299 584 208.5C584 174.701 556.735 147.271 523 147.002V147H522.5H508V148.719C481.032 155.237 461 179.529 461 208.5C461 237.471 481.032 261.763 508 268.281V270H522.5H523V269.998Z" fill="url(#paint17_linear_243_1542)"/>
<circle cx="509.5" cy="208.5" r="61.5" fill="#2563eb"/>
<circle cx="509.5" cy="208.5" r="61.5" fill="url(#paint18_linear_243_1542)"/>
<circle cx="509.5" cy="208.5" r="48" stroke="url(#paint19_linear_243_1542)"/>
<path d="M506.313 240.085V177.358H510.331V240.085H506.313ZM518.883 196.813C518.621 194.494 517.543 192.697 515.648 191.423C513.754 190.132 511.369 189.487 508.494 189.487C506.435 189.487 504.655 189.814 503.152 190.467C501.649 191.104 500.481 191.986 499.648 193.113C498.831 194.224 498.423 195.49 498.423 196.911C498.423 198.104 498.701 199.133 499.256 199.999C499.828 200.864 500.571 201.591 501.486 202.179C502.417 202.751 503.413 203.233 504.475 203.625C505.537 204.001 506.558 204.311 507.538 204.556L512.439 205.83C514.039 206.222 515.681 206.753 517.364 207.423C519.046 208.093 520.606 208.975 522.044 210.069C523.481 211.164 524.641 212.52 525.523 214.137C526.422 215.754 526.871 217.69 526.871 219.944C526.871 222.786 526.136 225.31 524.665 227.515C523.212 229.721 521.096 231.46 518.319 232.734C515.559 234.009 512.218 234.646 508.298 234.646C504.54 234.646 501.29 234.049 498.545 232.857C495.801 231.664 493.653 229.974 492.101 227.785C490.549 225.58 489.692 222.966 489.528 219.944H497.124C497.271 221.757 497.859 223.268 498.888 224.477C499.934 225.669 501.265 226.56 502.882 227.148C504.516 227.719 506.305 228.005 508.249 228.005C510.388 228.005 512.292 227.67 513.958 227.001C515.64 226.315 516.963 225.367 517.927 224.158C518.891 222.933 519.373 221.504 519.373 219.87C519.373 218.384 518.948 217.167 518.099 216.219C517.266 215.272 516.13 214.488 514.693 213.867C513.272 213.246 511.663 212.699 509.866 212.225L503.936 210.608C499.918 209.514 496.732 207.905 494.38 205.781C492.044 203.658 490.876 200.848 490.876 197.352C490.876 194.461 491.66 191.937 493.228 189.781C494.797 187.625 496.92 185.95 499.599 184.758C502.278 183.549 505.3 182.945 508.665 182.945C512.063 182.945 515.06 183.541 517.658 184.733C520.271 185.926 522.33 187.567 523.832 189.658C525.335 191.733 526.119 194.118 526.185 196.813H518.883Z" fill="url(#paint20_linear_243_1542)"/>
<defs>
<linearGradient id="paint0_linear_243_1542" x1="358.628" y1="754.581" x2="358.628" y2="-334.516" gradientUnits="userSpaceOnUse">
<stop stop-color="#9ab7f6"/>
<stop offset="1" stop-color="#9ab7f6" stop-opacity="0"/>
</linearGradient>
<linearGradient id="paint1_linear_243_1542" x1="267.5" y1="390.5" x2="267.5" y2="619.5" gradientUnits="userSpaceOnUse">
<stop stop-color="#c8d8fa"/>
<stop offset="1" stop-color="#c8d8fa" stop-opacity="0"/>
</linearGradient>
<linearGradient id="paint2_linear_243_1542" x1="293" y1="228" x2="293" y2="382" gradientUnits="userSpaceOnUse">
<stop stop-color="#c8d8fa"/>
<stop offset="1" stop-color="#c8d8fa" stop-opacity="0"/>
</linearGradient>
<linearGradient id="paint3_linear_243_1542" x1="381" y1="552.5" x2="83.5" y2="552.5" gradientUnits="userSpaceOnUse">
<stop stop-color="#2563eb"/>
<stop offset="1" stop-color="#2563eb" stop-opacity="0"/>
</linearGradient>
<linearGradient id="paint4_linear_243_1542" x1="176.5" y1="646.5" x2="83" y2="646.5" gradientUnits="userSpaceOnUse">
<stop stop-color="#c8d8fa"/>
<stop offset="1" stop-color="#c8d8fa" stop-opacity="0"/>
</linearGradient>
<linearGradient id="paint5_linear_243_1542" x1="76.5" y1="646.5" x2="-17" y2="646.5" gradientUnits="userSpaceOnUse">
<stop stop-color="#c8d8fa"/>
<stop offset="1" stop-color="#c8d8fa" stop-opacity="0"/>
</linearGradient>
<linearGradient id="paint6_linear_243_1542" x1="236.5" y1="619.5" x2="71" y2="742.5" gradientUnits="userSpaceOnUse">
<stop stop-color="#c8d8fa"/>
<stop offset="1" stop-color="#c8d8fa" stop-opacity="0"/>
</linearGradient>
<linearGradient id="paint7_linear_243_1542" x1="175" y1="577.5" x2="253" y2="659" gradientUnits="userSpaceOnUse">
<stop stop-color="#2563eb"/>
<stop offset="0.811189" stop-color="#2563eb" stop-opacity="0"/>
</linearGradient>
<linearGradient id="paint8_linear_243_1542" x1="126.5" y1="624.5" x2="33" y2="624.5" gradientUnits="userSpaceOnUse">
<stop stop-color="#c8d8fa"/>
<stop offset="1" stop-color="#c8d8fa" stop-opacity="0"/>
</linearGradient>
<linearGradient id="paint9_linear_243_1542" x1="176.5" y1="602.5" x2="83" y2="602.5" gradientUnits="userSpaceOnUse">
<stop stop-color="#c8d8fa"/>
<stop offset="1" stop-color="#c8d8fa" stop-opacity="0"/>
</linearGradient>
<linearGradient id="paint10_linear_243_1542" x1="226.5" y1="624.5" x2="133" y2="624.5" gradientUnits="userSpaceOnUse">
<stop stop-color="#c8d8fa"/>
<stop offset="1" stop-color="#c8d8fa" stop-opacity="0"/>
</linearGradient>
<linearGradient id="paint11_linear_243_1542" x1="347.378" y1="968" x2="347.378" y2="574.951" gradientUnits="userSpaceOnUse">
<stop stop-color="#111928"/>
<stop offset="1" stop-color="#111928" stop-opacity="0"/>
</linearGradient>
<linearGradient id="paint12_linear_243_1542" x1="408" y1="274" x2="408" y2="658.536" gradientUnits="userSpaceOnUse">
<stop stop-color="#c8d8fa"/>
<stop offset="1" stop-color="#c8d8fa" stop-opacity="0"/>
</linearGradient>
<linearGradient id="paint13_linear_243_1542" x1="117.5" y1="439" x2="117.5" y2="259" gradientUnits="userSpaceOnUse">
<stop stop-color="#111928"/>
<stop offset="1" stop-color="#111928" stop-opacity="0"/>
</linearGradient>
<linearGradient id="paint14_linear_243_1542" x1="61.5" y1="179" x2="61.5" y2="382" gradientUnits="userSpaceOnUse">
<stop stop-color="#c8d8fa"/>
<stop offset="1" stop-color="#c8d8fa" stop-opacity="0"/>
</linearGradient>
<linearGradient id="paint15_linear_243_1542" x1="61.5" y1="314" x2="61.5" y2="467.5" gradientUnits="userSpaceOnUse">
<stop stop-color="#d6e2fb"/>
<stop offset="1" stop-color="#d6e2fb" stop-opacity="0"/>
</linearGradient>
<linearGradient id="paint16_linear_243_1542" x1="60.5" y1="341" x2="60.5" y2="451" gradientUnits="userSpaceOnUse">
<stop stop-color="#d6e2fb"/>
<stop offset="1" stop-color="#d6e2fb" stop-opacity="0"/>
</linearGradient>
<linearGradient id="paint17_linear_243_1542" x1="565.5" y1="285" x2="565.5" y2="105" gradientUnits="userSpaceOnUse">
<stop stop-color="#111928"/>
<stop offset="1" stop-color="#111928" stop-opacity="0"/>
</linearGradient>
<linearGradient id="paint18_linear_243_1542" x1="509.5" y1="67" x2="509.5" y2="233" gradientUnits="userSpaceOnUse">
<stop stop-color="#c8d8fa"/>
<stop offset="1" stop-color="#c8d8fa" stop-opacity="0"/>
</linearGradient>
<linearGradient id="paint19_linear_243_1542" x1="509.5" y1="160" x2="509.5" y2="313.5" gradientUnits="userSpaceOnUse">
<stop stop-color="#d6e2fb"/>
<stop offset="1" stop-color="#d6e2fb" stop-opacity="0"/>
</linearGradient>
<linearGradient id="paint20_linear_243_1542" x1="508.5" y1="187" x2="508.5" y2="297" gradientUnits="userSpaceOnUse">
<stop stop-color="#d6e2fb"/>
<stop offset="1" stop-color="#d6e2fb" stop-opacity="0"/>
</linearGradient>
</defs>
</svg>