<svg class="w-auto max-w-[16rem] h-40 text-gray-800 dark:text-white" aria-hidden="true" width="840" height="708" viewBox="0 0 840 708" fill="none" xmlns="http://www.w3.org/2000/svg">
<path d="M56.2154 315C73.8154 319.8 81.5488 331.667 83.2154 337H113.715C104.215 320.333 81.3154 286.3 65.7154 283.5C46.2154 280 17.2154 274.5 20.2154 291C23.2154 307.5 34.2154 309 56.2154 315Z" fill="#d6e2fb"/>
<path d="M56.2154 315C73.8154 319.8 81.5488 331.667 83.2154 337H113.715C104.215 320.333 81.3154 286.3 65.7154 283.5C46.2154 280 17.2154 274.5 20.2154 291C23.2154 307.5 34.2154 309 56.2154 315Z" fill="url(#paint0_linear_748_170)"/>
<path d="M56.2154 315C73.8154 319.8 81.5488 331.667 83.2154 337H113.715C104.215 320.333 81.3154 286.3 65.7154 283.5C46.2154 280 17.2154 274.5 20.2154 291C23.2154 307.5 34.2154 309 56.2154 315Z" fill="url(#paint1_linear_748_170)"/>
<path d="M56.2154 315C73.8154 319.8 81.5488 331.667 83.2154 337H113.715C104.215 320.333 81.3154 286.3 65.7154 283.5C46.2154 280 17.2154 274.5 20.2154 291C23.2154 307.5 34.2154 309 56.2154 315Z" fill="url(#paint2_linear_748_170)"/>
<path d="M696.499 315C678.899 319.8 671.166 331.667 669.499 337H639C648.5 320.333 671.399 286.3 686.999 283.5C706.499 280 735.499 274.5 732.499 291C729.499 307.5 718.499 309 696.499 315Z" fill="#d6e2fb"/>
<path d="M696.499 315C678.899 319.8 671.166 331.667 669.499 337H639C648.5 320.333 671.399 286.3 686.999 283.5C706.499 280 735.499 274.5 732.499 291C729.499 307.5 718.499 309 696.499 315Z" fill="url(#paint3_linear_748_170)"/>
<path d="M696.499 315C678.899 319.8 671.166 331.667 669.499 337H639C648.5 320.333 671.399 286.3 686.999 283.5C706.499 280 735.499 274.5 732.499 291C729.499 307.5 718.499 309 696.499 315Z" fill="url(#paint4_linear_748_170)"/>
<path d="M696.499 315C678.899 319.8 671.166 331.667 669.499 337H639C648.5 320.333 671.399 286.3 686.999 283.5C706.499 280 735.499 274.5 732.499 291C729.499 307.5 718.499 309 696.499 315Z" fill="url(#paint5_linear_748_170)"/>
<path fill-rule="evenodd" clip-rule="evenodd" d="M170.262 645C188.762 650.167 231.462 660.5 254.262 660.5H375.5H377.262H498.5C521.3 660.5 564 650.167 582.5 645L571.5 602H377.262H375.5H181.262L170.262 645Z" fill="#c8d8fa"/>
<path fill-rule="evenodd" clip-rule="evenodd" d="M170.262 645C188.762 650.167 231.462 660.5 254.262 660.5H375.5H377.262H498.5C521.3 660.5 564 650.167 582.5 645L571.5 602H377.262H375.5H181.262L170.262 645Z" fill="url(#paint6_linear_748_170)" fill-opacity="0.3"/>
<path d="M614.5 704C590.9 704 577.667 620.667 574 579C581.6 547.4 693.167 507.833 748 492C744.333 535.167 736.3 629.9 733.5 663.5C730.7 697.1 711.667 704.5 702.5 704H614.5Z" fill="#2563eb"/>
<path d="M614.5 704C590.9 704 577.667 620.667 574 579C581.6 547.4 693.167 507.833 748 492C744.333 535.167 736.3 629.9 733.5 663.5C730.7 697.1 711.667 704.5 702.5 704H614.5Z" fill="url(#paint7_linear_748_170)"/>
<path d="M138.262 704C161.862 704 175.095 620.667 178.762 579C171.162 547.4 59.595 507.833 4.76172 492C8.42839 535.167 16.4617 629.9 19.2617 663.5C22.0617 697.1 41.095 704.5 50.2617 704H138.262Z" fill="#2563eb"/>
<path d="M138.262 704C161.862 704 175.095 620.667 178.762 579C171.162 547.4 59.595 507.833 4.76172 492C8.42839 535.167 16.4617 629.9 19.2617 663.5C22.0617 697.1 41.095 704.5 50.2617 704H138.262Z" fill="url(#paint8_linear_748_170)"/>
<path fill-rule="evenodd" clip-rule="evenodd" d="M92.7612 322H375.499H377.261H659.999C677.499 333.833 717.999 365.2 739.999 396C767.499 434.5 743.999 556 730.499 604C719.699 642.4 693.333 652 681.499 652H596.999C580.336 652 555.487 634.055 539.69 622.647C535.579 619.678 532.081 617.152 529.499 615.5C519.499 609.1 492.666 607.167 480.499 607H377.261H375.499H272.261C260.094 607.167 233.261 609.1 223.261 615.5C220.68 617.152 217.182 619.678 213.071 622.647C197.274 634.055 172.425 652 155.761 652H71.2612C59.4278 652 33.0611 642.4 22.2612 604C8.76115 556 -14.7388 434.5 12.7612 396C34.7612 365.2 75.2612 333.833 92.7612 322Z" fill="#d6e2fb"/>
<path fill-rule="evenodd" clip-rule="evenodd" d="M92.7612 322H375.499H377.261H659.999C677.499 333.833 717.999 365.2 739.999 396C767.499 434.5 743.999 556 730.499 604C719.699 642.4 693.333 652 681.499 652H596.999C580.336 652 555.487 634.055 539.69 622.647C535.579 619.678 532.081 617.152 529.499 615.5C519.499 609.1 492.666 607.167 480.499 607H377.261H375.499H272.261C260.094 607.167 233.261 609.1 223.261 615.5C220.68 617.152 217.182 619.678 213.071 622.647C197.274 634.055 172.425 652 155.761 652H71.2612C59.4278 652 33.0611 642.4 22.2612 604C8.76115 556 -14.7388 434.5 12.7612 396C34.7612 365.2 75.2612 333.833 92.7612 322Z" fill="url(#paint9_linear_748_170)"/>
<path fill-rule="evenodd" clip-rule="evenodd" d="M92.7612 322H375.499H377.261H659.999C677.499 333.833 717.999 365.2 739.999 396C767.499 434.5 743.999 556 730.499 604C719.699 642.4 693.333 652 681.499 652H596.999C580.336 652 555.487 634.055 539.69 622.647C535.579 619.678 532.081 617.152 529.499 615.5C519.499 609.1 492.666 607.167 480.499 607H377.261H375.499H272.261C260.094 607.167 233.261 609.1 223.261 615.5C220.68 617.152 217.182 619.678 213.071 622.647C197.274 634.055 172.425 652 155.761 652H71.2612C59.4278 652 33.0611 642.4 22.2612 604C8.76115 556 -14.7388 434.5 12.7612 396C34.7612 365.2 75.2612 333.833 92.7612 322Z" fill="url(#paint10_linear_748_170)"/>
<path fill-rule="evenodd" clip-rule="evenodd" d="M92.7612 322H375.499H377.261H659.999C677.499 333.833 717.999 365.2 739.999 396C767.499 434.5 743.999 556 730.499 604C719.699 642.4 693.333 652 681.499 652H596.999C580.336 652 555.487 634.055 539.69 622.647C535.579 619.678 532.081 617.152 529.499 615.5C519.499 609.1 492.666 607.167 480.499 607H377.261H375.499H272.261C260.094 607.167 233.261 609.1 223.261 615.5C220.68 617.152 217.182 619.678 213.071 622.647C197.274 634.055 172.425 652 155.761 652H71.2612C59.4278 652 33.0611 642.4 22.2612 604C8.76115 556 -14.7388 434.5 12.7612 396C34.7612 365.2 75.2612 333.833 92.7612 322Z" fill="url(#paint11_linear_748_170)"/>
<path fill-rule="evenodd" clip-rule="evenodd" d="M375.502 322H118.263C96.7633 334.167 55.1633 363 60.7633 381C67.7473 403.449 119.526 446.304 375.502 446.499C375.796 446.499 376.089 446.5 376.383 446.5C376.676 446.5 376.969 446.5 377.263 446.5C633.239 446.304 685.018 403.449 692.002 381C697.602 363 656.002 334.167 634.502 322H377.263H375.502Z" fill="#c8d8fa"/>
<path fill-rule="evenodd" clip-rule="evenodd" d="M375.502 322H118.263C96.7633 334.167 55.1633 363 60.7633 381C67.7473 403.449 119.526 446.304 375.502 446.499C375.796 446.499 376.089 446.5 376.383 446.5C376.676 446.5 376.969 446.5 377.263 446.5C633.239 446.304 685.018 403.449 692.002 381C697.602 363 656.002 334.167 634.502 322H377.263H375.502Z" fill="url(#paint12_linear_748_170)" fill-opacity="0.3"/>
<path fill-rule="evenodd" clip-rule="evenodd" d="M375.497 322H92.759C85.259 273.5 74.759 169.1 92.759 107.5C115.136 30.9196 268.079 0.333819 375.497 0.00272017V0C375.791 0 376.084 0.000227049 376.378 0.000681473C376.672 0.000227049 376.966 0 377.259 0V0.00272017C484.677 0.333819 637.62 30.9196 659.997 107.5C677.997 169.1 667.497 273.5 659.997 322H377.259H375.497Z" fill="#c8d8fa"/>
<path fill-rule="evenodd" clip-rule="evenodd" d="M375.497 322H92.759C85.259 273.5 74.759 169.1 92.759 107.5C115.136 30.9196 268.079 0.333819 375.497 0.00272017V0C375.791 0 376.084 0.000227049 376.378 0.000681473C376.672 0.000227049 376.966 0 377.259 0V0.00272017C484.677 0.333819 637.62 30.9196 659.997 107.5C677.997 169.1 667.497 273.5 659.997 322H377.259H375.497Z" fill="url(#paint13_linear_748_170)" fill-opacity="0.3"/>
<path fill-rule="evenodd" clip-rule="evenodd" d="M116.275 230.823C108.734 183.813 105.5 110.488 137.26 88.5C182.446 57.2172 290.753 31.3588 375.498 31.0037V31C375.791 31 376.085 31.0003 376.379 31.0009C376.673 31.0003 376.966 31 377.26 31V31.0037C462.005 31.3588 570.312 57.2172 615.498 88.5C647.258 110.488 644.023 183.813 636.483 230.823C634.796 241.339 624.766 248.147 614.197 246.83C546.143 238.347 430.744 234.452 376.379 233.515C322.014 234.452 206.615 238.347 138.56 246.83C127.992 248.147 117.962 241.339 116.275 230.823Z" fill="#d6e2fb"/>
<path fill-rule="evenodd" clip-rule="evenodd" d="M116.275 230.823C108.734 183.813 105.5 110.488 137.26 88.5C182.446 57.2172 290.753 31.3588 375.498 31.0037V31C375.791 31 376.085 31.0003 376.379 31.0009C376.673 31.0003 376.966 31 377.26 31V31.0037C462.005 31.3588 570.312 57.2172 615.498 88.5C647.258 110.488 644.023 183.813 636.483 230.823C634.796 241.339 624.766 248.147 614.197 246.83C546.143 238.347 430.744 234.452 376.379 233.515C322.014 234.452 206.615 238.347 138.56 246.83C127.992 248.147 117.962 241.339 116.275 230.823Z" fill="url(#paint14_linear_748_170)"/>
<path fill-rule="evenodd" clip-rule="evenodd" d="M160.724 458.279L161.683 458.561C199.461 469.648 242.47 470.68 274.891 471.454L274.897 471.454C281.713 471.616 288.064 471.768 293.791 472H458.969C464.696 471.768 471.047 471.616 477.863 471.454L477.869 471.454C510.29 470.68 553.299 469.648 591.077 458.561L592.036 458.279L592.881 461.158L591.922 461.439C553.729 472.648 510.312 473.682 477.947 474.453L477.894 474.455C471.074 474.617 464.75 474.768 459.06 474.999L459.03 475H293.73L293.7 474.999C288.01 474.768 281.686 474.617 274.866 474.455L274.813 474.453C242.448 473.682 199.031 472.648 160.838 461.439L159.879 461.158L160.724 458.279ZM274.867 472.454C242.467 471.682 199.33 470.644 161.439 459.531L161.402 459.52C161.402 459.52 161.402 459.52 161.402 459.52L161.12 460.48L162.08 460.762L162.08 460.759C199.897 471.665 242.692 472.686 274.79 473.452L274.836 473.453M274.867 472.454C274.867 472.454 274.867 472.454 274.867 472.454V472.454Z" fill="#2563eb"/>
<path d="M672.5 436.5C656.67 441.889 617.752 451.673 591.92 457.914C583.457 459.958 571.37 463.674 572.869 472.25C575.581 487.754 639.895 484.675 660 483C684 481 731 468.5 735.5 444.5C737.073 436.112 736.413 430.217 734.795 426.184C731.904 418.975 722.662 419.756 715.288 422.192C703.138 426.205 686.171 431.846 672.5 436.5Z" fill="white"/>
<path d="M626.822 529.5H646.5H687.5C710 529.5 706 569 697.5 593.5C689 618 615.5 637 586 611.5C562.4 591.1 555.833 574.667 555.5 569C563.567 555.257 583.107 543.075 598.454 535.498C607.24 531.16 617.024 529.5 626.822 529.5Z" fill="url(#paint15_linear_748_170)" fill-opacity="0.4"/>
<path fill-rule="evenodd" clip-rule="evenodd" d="M375.501 359.5H234.263C230.43 359.833 220.963 363.9 213.763 377.5C204.763 394.5 210.263 400 220.763 404C232.138 408.333 318.468 419.273 375.501 419.497V419.5C375.794 419.5 376.088 419.5 376.382 419.499C376.677 419.5 376.97 419.5 377.263 419.5V419.497C434.297 419.273 520.626 408.333 532.001 404C542.501 400 548.001 394.5 539.001 377.5C531.801 363.9 522.335 359.833 518.501 359.5H377.263H375.501Z" fill="#d6e2fb"/>
<path fill-rule="evenodd" clip-rule="evenodd" d="M376.044 374H302.952C300.969 374.172 296.07 376.273 292.344 383.3C287.686 392.083 290.532 394.925 295.966 396.992C301.853 399.231 346.529 404.883 376.044 404.998V405C376.196 405 376.348 405 376.5 405C376.652 405 376.804 405 376.956 405V404.998C406.471 404.883 451.147 399.231 457.034 396.992C462.468 394.925 465.314 392.083 460.656 383.3C456.93 376.273 452.031 374.172 450.048 374H376.956H376.044Z" fill="white"/>
<path d="M80.2616 436.5C96.0913 441.889 135.01 451.673 160.842 457.914C169.305 459.958 181.392 463.674 179.892 472.25C177.181 487.754 112.866 484.675 92.7616 483C68.7616 481 21.7616 468.5 17.2616 444.5C15.6888 436.112 16.3492 430.217 17.9669 426.184C20.8579 418.975 30.0993 419.756 37.474 422.192C49.6237 426.205 66.5907 431.846 80.2616 436.5Z" fill="white"/>
<path d="M125.94 529.5H106.262H65.2617C42.7617 529.5 46.7617 569 55.2617 593.5C63.7617 618 137.262 637 166.762 611.5C190.362 591.1 196.928 574.667 197.262 569C189.195 555.257 169.654 543.075 154.308 535.498C145.522 531.16 135.738 529.5 125.94 529.5Z" fill="url(#paint16_linear_748_170)" fill-opacity="0.4"/>
<path d="M799.492 654.307C791.417 670.338 774.393 684.998 763.548 691.08C760.423 692.832 758.094 696.015 758.094 699.597H834.874L831.159 649L799.492 654.307Z" fill="#1F2A37"/>
<path d="M758.094 699.598H834.874L835.374 704.838C835.485 706.013 834.562 707.028 833.383 707.028H760.094C758.989 707.028 758.094 706.133 758.094 705.028V699.598Z" fill="#1555e2"/>
<path fill-rule="evenodd" clip-rule="evenodd" d="M820.369 684.765C822.782 684.765 824.738 682.809 824.738 680.396C824.738 677.983 822.782 676.027 820.369 676.027C817.956 676.027 816 677.983 816 680.396C816 682.809 817.956 684.765 820.369 684.765ZM820.369 686.765C823.886 686.765 826.738 683.914 826.738 680.396C826.738 676.879 823.886 674.027 820.369 674.027C816.851 674.027 814 676.879 814 680.396C814 683.914 816.851 686.765 820.369 686.765Z" fill="#374151"/>
<path d="M430.031 355.653L434.253 359.202L399.607 400.407L395.385 396.857L430.031 355.653Z" fill="#9ab7f6"/>
<path fill-rule="evenodd" clip-rule="evenodd" d="M395.721 408.212C395.559 408.405 395.584 408.694 395.777 408.857L395.874 408.939C396.038 409.076 396.275 409.082 396.445 408.953L397.01 408.526C398.691 407.253 400.513 405.919 401.106 403.895C401.826 401.438 401.098 398.665 398.994 396.897C397.112 395.314 394.625 394.954 392.477 395.708C389.986 396.581 388.782 399.245 387.697 401.651C387.618 401.828 387.665 402.036 387.814 402.161L387.939 402.267C388.133 402.43 388.422 402.405 388.585 402.211L391.717 398.485L397.018 399.425L398.854 404.486L395.721 408.212Z" fill="#9ab7f6"/>
<path fill-rule="evenodd" clip-rule="evenodd" d="M434.111 347.709C434.273 347.515 434.249 347.226 434.055 347.063L433.958 346.982C433.794 346.844 433.557 346.838 433.387 346.967L432.822 347.394C431.141 348.668 429.319 350.002 428.726 352.026C428.006 354.483 428.734 357.255 430.838 359.024C432.72 360.607 435.207 360.966 437.355 360.213C439.846 359.339 441.05 356.676 442.135 354.27C442.215 354.093 442.167 353.884 442.018 353.759L441.893 353.654C441.699 353.491 441.41 353.516 441.247 353.71L438.115 357.436L432.814 356.495L430.978 351.435L434.111 347.709Z" fill="#9ab7f6"/>
<path d="M762.336 660.676C754.318 676.594 738.213 686.741 727.604 691.423C724.327 692.87 722 696.014 722 699.597H798.781V660.676H762.336Z" fill="#374151"/>
<path d="M722 699.597H798.781V705.028C798.781 706.132 797.885 707.028 796.781 707.028H724C722.895 707.028 722 706.132 722 705.028V699.597Z" fill="#2563eb"/>
<path fill-rule="evenodd" clip-rule="evenodd" d="M781.443 684.859C783.856 684.859 785.812 682.903 785.812 680.49C785.812 678.077 783.856 676.121 781.443 676.121C779.03 676.121 777.074 678.077 777.074 680.49C777.074 682.903 779.03 684.859 781.443 684.859ZM781.443 686.859C784.961 686.859 787.812 684.007 787.812 680.49C787.812 676.972 784.961 674.121 781.443 674.121C777.926 674.121 775.074 676.972 775.074 680.49C775.074 684.007 777.926 686.859 781.443 686.859Z" fill="#6B7280"/>
<path d="M542.997 317C570.197 302.6 591.664 288 598.997 282.5L577.498 257.5C538.998 280 458.398 327.4 443.998 337C425.998 349 410.497 359.5 405.997 368C404.672 370.504 404.3 372.814 404.467 374.825C404.863 379.572 410.683 379.872 414.416 376.914L434.497 361C459.331 352.333 515.797 331.4 542.997 317Z" fill="#FDBA8C"/>
<path d="M542.997 317C570.197 302.6 591.664 288 598.997 282.5L577.498 257.5C538.998 280 458.398 327.4 443.998 337C425.998 349 410.497 359.5 405.997 368C404.672 370.504 404.3 372.814 404.467 374.825C404.863 379.572 410.683 379.872 414.416 376.914L434.497 361C459.331 352.333 515.797 331.4 542.997 317Z" fill="url(#paint17_linear_748_170)"/>
<path d="M570.5 255L628 176.5L665 200L659.5 247L599.5 291.5C593.9 287.9 577.833 265.667 570.5 255Z" fill="#F9FAFB"/>
<path d="M570.5 255L628 176.5L665 200L659.5 247L599.5 291.5C593.9 287.9 577.833 265.667 570.5 255Z" fill="url(#paint18_linear_748_170)"/>
<path d="M614.501 105.5C618.501 116.3 622.834 139.666 624.501 150C616.167 148.167 594.801 142.1 576.001 132.5C552.501 120.5 563.001 108 579.501 98.4998C596.001 88.9998 609.501 91.9998 614.501 105.5Z" fill="#111928"/>
<path d="M625.999 176.5C618.799 167.3 608.333 160.333 603.999 158C601.499 148.167 598.699 129.5 607.499 133.5C616.299 137.5 635.499 151.5 643.999 158C642.999 163.5 640.499 175.9 638.499 181.5C635.999 188.5 634.999 188 625.999 176.5Z" fill="#FDBA8C"/>
<path d="M625.999 176.5C618.799 167.3 608.333 160.333 603.999 158C601.499 148.167 598.699 129.5 607.499 133.5C616.299 137.5 635.499 151.5 643.999 158C642.999 163.5 640.499 175.9 638.499 181.5C635.999 188.5 634.999 188 625.999 176.5Z" fill="url(#paint19_linear_748_170)"/>
<path d="M604 164C591.6 166 577.5 141.166 572 128.5C585.5 128.5 600 132.5 601 128.5C602 124.5 606 118.5 610 122.5C614 126.5 619.5 161.5 604 164Z" fill="#FDBA8C"/>
<path d="M588.855 140.483C589.459 141.132 589.422 142.147 588.773 142.75C588.125 143.353 587.11 143.317 586.507 142.668C585.903 142.02 585.94 141.005 586.588 140.401C587.237 139.798 588.252 139.835 588.855 140.483Z" fill="#111928"/>
<path fill-rule="evenodd" clip-rule="evenodd" d="M583.377 137.276C582.556 138.058 582.208 139.036 582.03 140.122C581.961 140.543 581.564 140.828 581.144 140.759C580.723 140.69 580.439 140.293 580.508 139.873C580.713 138.617 581.152 137.266 582.312 136.159C583.466 135.059 585.237 134.294 587.917 133.993C588.34 133.945 588.722 134.25 588.769 134.673C588.817 135.096 588.512 135.478 588.089 135.525C585.608 135.804 584.203 136.487 583.377 137.276Z" fill="#111928"/>
<path fill-rule="evenodd" clip-rule="evenodd" d="M581.799 144.128C582.186 143.949 582.644 144.117 582.823 144.504L587.278 154.135C587.357 154.307 587.575 154.362 587.727 154.248L591.367 151.526C591.708 151.271 592.191 151.34 592.446 151.681C592.702 152.023 592.632 152.506 592.291 152.761L588.65 155.483C587.713 156.184 586.369 155.844 585.878 154.782L581.423 145.151C581.244 144.765 581.413 144.306 581.799 144.128Z" fill="#111928"/>
<path fill-rule="evenodd" clip-rule="evenodd" d="M596.116 155.945C596.596 155.089 596.968 154.088 597.502 152.537C597.641 152.134 598.08 151.92 598.482 152.059C598.885 152.197 599.099 152.636 598.961 153.039C598.431 154.577 598.019 155.705 597.461 156.7C596.891 157.714 596.187 158.561 595.107 159.585C594.798 159.877 594.31 159.864 594.017 159.555C593.724 159.246 593.737 158.758 594.046 158.465C595.054 157.51 595.645 156.783 596.116 155.945Z" fill="#111928"/>
<path fill-rule="evenodd" clip-rule="evenodd" d="M609.114 131.13C608.908 130.016 608.28 129.189 607.468 128.445C607.154 128.158 607.132 127.67 607.42 127.356C607.708 127.042 608.196 127.02 608.51 127.308C609.448 128.167 610.339 129.274 610.631 130.85C610.92 132.419 610.592 134.319 609.377 136.727C609.185 137.107 608.722 137.26 608.341 137.068C607.961 136.876 607.808 136.412 608 136.032C609.125 133.803 609.321 132.254 609.114 131.13Z" fill="#111928"/>
<path d="M837.369 667.5H791.928C790.852 667.5 789.969 666.649 789.929 665.573L778.5 353.5L818.5 337.5L839.365 665.373C839.438 666.525 838.523 667.5 837.369 667.5Z" fill="#2563eb"/>
<path d="M837.369 667.5H791.928C790.852 667.5 789.969 666.649 789.929 665.573L778.5 353.5L818.5 337.5L839.365 665.373C839.438 666.525 838.523 667.5 837.369 667.5Z" fill="url(#paint20_linear_748_170)"/>
<path d="M624.501 184C626.901 172 637.834 162 643.001 158.5C658.002 150.5 687 151 752.5 204C804.9 246.4 819.667 298 820.5 318.5V665.5C820.5 666.605 819.605 667.5 818.5 667.5H745.5C744.395 667.5 743.5 666.605 743.5 665.5V405L728.501 318.5C692.834 278.667 622.101 196 624.501 184Z" fill="#2563eb"/>
<path d="M624.501 184C626.901 172 637.834 162 643.001 158.5C658.002 150.5 687 151 752.5 204C804.9 246.4 819.667 298 820.5 318.5V665.5C820.5 666.605 819.605 667.5 818.5 667.5H745.5C744.395 667.5 743.5 666.605 743.5 665.5V405L728.501 318.5C692.834 278.667 622.101 196 624.501 184Z" fill="url(#paint21_linear_748_170)"/>
<path fill-rule="evenodd" clip-rule="evenodd" d="M743.501 405L728.502 318.5C728.392 318.378 728.282 318.255 728.172 318.132L743.501 312V405Z" fill="url(#paint22_linear_748_170)"/>
<path fill-rule="evenodd" clip-rule="evenodd" d="M820.5 648.5H743.5V646.5H820.5V648.5Z" fill="#d6e2fb"/>
<path fill-rule="evenodd" clip-rule="evenodd" d="M785.474 274.533L786.22 275.305C792.236 281.529 795.986 292.702 798.268 303.926C800.562 315.206 801.417 326.77 801.501 333.988L801.501 334H801.501V647.5H799.501V334.006C799.418 326.89 798.572 315.457 796.309 304.324C794.131 293.615 790.68 283.393 785.495 277.471C782.362 280.698 777.159 284.618 770.792 286.832C763.858 289.244 755.51 289.639 747.012 284.872L747.99 283.128C755.892 287.561 763.628 287.206 770.135 284.943C776.671 282.67 781.934 278.477 784.757 275.332L785.474 274.533Z" fill="#d6e2fb"/>
<path d="M639 313.5L648 290.5C663 285.667 691.4 281.8 685 305C678.6 328.2 616.667 393 586.5 422.5H542C541.2 412.1 565 406.167 577 404.5L639 313.5Z" fill="#FDBA8C"/>
<path d="M639 313.5L648 290.5C663 285.667 691.4 281.8 685 305C678.6 328.2 616.667 393 586.5 422.5H542C541.2 412.1 565 406.167 577 404.5L639 313.5Z" fill="url(#paint23_linear_748_170)"/>
<path d="M637.5 180.5C637.9 194.5 647.5 212.5 651.5 216V221C631.901 196.2 626.667 180.667 626.5 176C638.1 147.6 665 154 674.5 156.999C654.5 153.759 637 163 637.5 180.5Z" fill="#F9FAFB"/>
<path d="M638.259 292.836L651 211C636 176 659.5 165 675 171C690.5 177 719 194 729.5 225.5C737.9 250.7 721 262.333 711.5 265L693.582 308.1C693.237 308.928 692.39 309.429 691.503 309.297C678.283 307.332 652.579 299.365 639.588 295.033C638.665 294.725 638.109 293.798 638.259 292.836Z" fill="#F9FAFB"/>
<path fill-rule="evenodd" clip-rule="evenodd" d="M728.509 222.71C728.855 223.627 729.185 224.557 729.5 225.5C737.891 250.675 721.032 262.311 711.527 264.992L728.509 222.71Z" fill="url(#paint24_linear_748_170)"/>
<defs>
<linearGradient id="paint0_linear_748_170" x1="66.8574" y1="329.581" x2="66.8574" y2="275.442" gradientUnits="userSpaceOnUse">
<stop stop-color="white" stop-opacity="0"/>
<stop offset="1" stop-color="white"/>
</linearGradient>
<linearGradient id="paint1_linear_748_170" x1="66.8574" y1="280.628" x2="66.8574" y2="350.383" gradientUnits="userSpaceOnUse">
<stop stop-color="#c8d8fa" stop-opacity="0"/>
<stop offset="1" stop-color="#c8d8fa"/>
</linearGradient>
<linearGradient id="paint2_linear_748_170" x1="66.8574" y1="318.459" x2="66.8574" y2="352.85" gradientUnits="userSpaceOnUse">
<stop stop-color="white" stop-opacity="0"/>
<stop offset="1" stop-color="white"/>
</linearGradient>
<linearGradient id="paint3_linear_748_170" x1="685.857" y1="329.581" x2="685.857" y2="275.442" gradientUnits="userSpaceOnUse">
<stop stop-color="white" stop-opacity="0"/>
<stop offset="1" stop-color="white"/>
</linearGradient>
<linearGradient id="paint4_linear_748_170" x1="685.857" y1="280.628" x2="685.857" y2="350.383" gradientUnits="userSpaceOnUse">
<stop stop-color="#c8d8fa" stop-opacity="0"/>
<stop offset="1" stop-color="#c8d8fa"/>
</linearGradient>
<linearGradient id="paint5_linear_748_170" x1="685.857" y1="318.459" x2="685.857" y2="352.85" gradientUnits="userSpaceOnUse">
<stop stop-color="white" stop-opacity="0"/>
<stop offset="1" stop-color="white"/>
</linearGradient>
<linearGradient id="paint6_linear_748_170" x1="376.381" y1="669.133" x2="376.381" y2="577.447" gradientUnits="userSpaceOnUse">
<stop stop-color="#2563eb" stop-opacity="0"/>
<stop offset="1" stop-color="#2563eb"/>
</linearGradient>
<linearGradient id="paint7_linear_748_170" x1="648.016" y1="560" x2="597.506" y2="734.914" gradientUnits="userSpaceOnUse">
<stop stop-color="#111928"/>
<stop offset="1" stop-color="#111928" stop-opacity="0"/>
</linearGradient>
<linearGradient id="paint8_linear_748_170" x1="104.746" y1="560" x2="155.256" y2="734.914" gradientUnits="userSpaceOnUse">
<stop stop-color="#111928"/>
<stop offset="1" stop-color="#111928" stop-opacity="0"/>
</linearGradient>
<linearGradient id="paint9_linear_748_170" x1="376.38" y1="609.248" x2="376.38" y2="297.285" gradientUnits="userSpaceOnUse">
<stop stop-color="white" stop-opacity="0"/>
<stop offset="1" stop-color="white"/>
</linearGradient>
<linearGradient id="paint10_linear_748_170" x1="376.38" y1="327.17" x2="376.38" y2="729.115" gradientUnits="userSpaceOnUse">
<stop stop-color="#c8d8fa" stop-opacity="0"/>
<stop offset="1" stop-color="#c8d8fa"/>
</linearGradient>
<linearGradient id="paint11_linear_748_170" x1="376.38" y1="545.159" x2="376.38" y2="743.332" gradientUnits="userSpaceOnUse">
<stop stop-color="white" stop-opacity="0"/>
<stop offset="1" stop-color="white"/>
</linearGradient>
<linearGradient id="paint12_linear_748_170" x1="376.382" y1="464.873" x2="376.382" y2="269.746" gradientUnits="userSpaceOnUse">
<stop stop-color="#2563eb" stop-opacity="0"/>
<stop offset="1" stop-color="#2563eb"/>
</linearGradient>
<linearGradient id="paint13_linear_748_170" x1="376.378" y1="369.518" x2="376.378" y2="-135.148" gradientUnits="userSpaceOnUse">
<stop stop-color="#2563eb" stop-opacity="0"/>
<stop offset="1" stop-color="#2563eb"/>
</linearGradient>
<linearGradient id="paint14_linear_748_170" x1="376.379" y1="-81.5" x2="376.379" y2="260.5" gradientUnits="userSpaceOnUse">
<stop stop-color="#c8d8fa" stop-opacity="0"/>
<stop offset="1" stop-color="#c8d8fa"/>
</linearGradient>
<linearGradient id="paint15_linear_748_170" x1="629.868" y1="637.5" x2="629.868" y2="490" gradientUnits="userSpaceOnUse">
<stop stop-color="#2563eb" stop-opacity="0"/>
<stop offset="1" stop-color="#2563eb"/>
</linearGradient>
<linearGradient id="paint16_linear_748_170" x1="122.893" y1="637.5" x2="122.893" y2="490" gradientUnits="userSpaceOnUse">
<stop stop-color="#2563eb" stop-opacity="0"/>
<stop offset="1" stop-color="#2563eb"/>
</linearGradient>
<linearGradient id="paint17_linear_748_170" x1="660.498" y1="320" x2="528.16" y2="259.653" gradientUnits="userSpaceOnUse">
<stop stop-color="#7F270F"/>
<stop offset="1" stop-color="#7F270F" stop-opacity="0"/>
</linearGradient>
<linearGradient id="paint18_linear_748_170" x1="693.749" y1="271.022" x2="656.871" y2="193.354" gradientUnits="userSpaceOnUse">
<stop stop-color="#c8d8fa"/>
<stop offset="1" stop-color="#c8d8fa" stop-opacity="0"/>
</linearGradient>
<linearGradient id="paint19_linear_748_170" x1="575.194" y1="94.9792" x2="583.617" y2="211.301" gradientUnits="userSpaceOnUse">
<stop stop-color="#7F270F"/>
<stop offset="1" stop-color="#7F270F" stop-opacity="0"/>
</linearGradient>
<linearGradient id="paint20_linear_748_170" x1="953" y1="531.5" x2="817.694" y2="495.002" gradientUnits="userSpaceOnUse">
<stop stop-color="#111928"/>
<stop offset="1" stop-color="#111928" stop-opacity="0"/>
</linearGradient>
<linearGradient id="paint21_linear_748_170" x1="707.84" y1="120.804" x2="713.569" y2="405.544" gradientUnits="userSpaceOnUse">
<stop stop-color="#111928"/>
<stop offset="1" stop-color="#111928" stop-opacity="0"/>
</linearGradient>
<linearGradient id="paint22_linear_748_170" x1="757" y1="448.5" x2="737.417" y2="342.239" gradientUnits="userSpaceOnUse">
<stop stop-color="#111928"/>
<stop offset="1" stop-color="#111928" stop-opacity="0"/>
</linearGradient>
<linearGradient id="paint23_linear_748_170" x1="794.5" y1="231.5" x2="672.692" y2="406.07" gradientUnits="userSpaceOnUse">
<stop stop-color="#7F270F"/>
<stop offset="1" stop-color="#7F270F" stop-opacity="0"/>
</linearGradient>
<linearGradient id="paint24_linear_748_170" x1="745.931" y1="269.137" x2="739.339" y2="234.895" gradientUnits="userSpaceOnUse">
<stop stop-color="#c8d8fa"/>
<stop offset="1" stop-color="#c8d8fa" stop-opacity="0"/>
</linearGradient>
</defs>
</svg>