<svg class="w-auto max-w-[16rem] h-40 text-gray-800 dark:text-white" aria-hidden="true" width="405" height="614" viewBox="0 0 405 614" fill="none" xmlns="http://www.w3.org/2000/svg">
<path d="M405 203C405 315.114 314.338 406 202.5 406C90.6623 406 0 315.114 0 203C0 90.8862 90.6623 0 202.5 0C314.338 0 405 90.8862 405 203Z" fill="#c8d8fa"/>
<path d="M405 203C405 315.114 314.338 406 202.5 406C90.6623 406 0 315.114 0 203C0 90.8862 90.6623 0 202.5 0C314.338 0 405 90.8862 405 203Z" fill="url(#paint0_linear_748_164)"/>
<path d="M19.1992 85.1997C19.1992 84.0951 20.0946 83.1997 21.1992 83.1997H141.199C142.304 83.1997 143.199 84.0951 143.199 85.1997V203.2C143.199 204.304 142.304 205.2 141.199 205.2H21.1992C20.0946 205.2 19.1992 204.304 19.1992 203.2V85.1997Z" fill="#c8d8fa"/>
<path d="M19.1992 85.1997C19.1992 84.0951 20.0946 83.1997 21.1992 83.1997H141.199C142.304 83.1997 143.199 84.0951 143.199 85.1997V203.2C143.199 204.304 142.304 205.2 141.199 205.2H21.1992C20.0946 205.2 19.1992 204.304 19.1992 203.2V85.1997Z" fill="url(#paint1_linear_748_164)"/>
<path fill-rule="evenodd" clip-rule="evenodd" d="M43.7638 168.21C43.0271 168.21 42.4299 167.612 42.4299 166.876L42.4299 121.524C42.4299 120.787 43.0271 120.19 43.7638 120.19C44.5005 120.19 45.0977 120.787 45.0977 121.524L45.0977 166.876C45.0977 167.612 44.5005 168.21 43.7638 168.21Z" fill="#2563eb"/>
<path fill-rule="evenodd" clip-rule="evenodd" d="M43.7638 168.21C43.0271 168.21 42.4299 167.612 42.4299 166.876L42.4299 121.524C42.4299 120.787 43.0271 120.19 43.7638 120.19C44.5005 120.19 45.0977 120.787 45.0977 121.524L45.0977 166.876C45.0977 167.612 44.5005 168.21 43.7638 168.21Z" fill="url(#paint2_linear_748_164)"/>
<path d="M48.0325 139.531C48.0325 142.11 45.9423 144.2 43.3639 144.2C40.7855 144.2 38.6953 142.11 38.6953 139.531C38.6953 136.953 40.7855 134.863 43.3639 134.863C45.9423 134.863 48.0325 136.953 48.0325 139.531Z" fill="white"/>
<path fill-rule="evenodd" clip-rule="evenodd" d="M69.1114 168.21C68.3748 168.21 67.7776 167.612 67.7776 166.876L67.7776 121.524C67.7776 120.787 68.3748 120.19 69.1114 120.19C69.8481 120.19 70.4453 120.787 70.4453 121.524L70.4453 166.876C70.4453 167.612 69.8481 168.21 69.1114 168.21Z" fill="#2563eb"/>
<path fill-rule="evenodd" clip-rule="evenodd" d="M69.1114 168.21C68.3748 168.21 67.7776 167.612 67.7776 166.876L67.7776 121.524C67.7776 120.787 68.3748 120.19 69.1114 120.19C69.8481 120.19 70.4453 120.787 70.4453 121.524L70.4453 166.876C70.4453 167.612 69.8481 168.21 69.1114 168.21Z" fill="url(#paint3_linear_748_164)"/>
<path d="M73.5129 147.535C73.5129 150.113 71.4227 152.203 68.8444 152.203C66.266 152.203 64.1758 150.113 64.1758 147.535C64.1758 144.956 66.266 142.866 68.8444 142.866C71.4227 142.866 73.5129 144.956 73.5129 147.535Z" fill="white"/>
<path fill-rule="evenodd" clip-rule="evenodd" d="M94.4552 168.21C93.7185 168.21 93.1213 167.612 93.1213 166.876L93.1213 121.524C93.1213 120.787 93.7185 120.19 94.4552 120.19C95.1919 120.19 95.7891 120.787 95.7891 121.524L95.7891 166.876C95.7891 167.612 95.1919 168.21 94.4552 168.21Z" fill="#2563eb"/>
<path fill-rule="evenodd" clip-rule="evenodd" d="M94.4552 168.21C93.7185 168.21 93.1213 167.612 93.1213 166.876L93.1213 121.524C93.1213 120.787 93.7185 120.19 94.4552 120.19C95.1919 120.19 95.7891 120.787 95.7891 121.524L95.7891 166.876C95.7891 167.612 95.1919 168.21 94.4552 168.21Z" fill="url(#paint4_linear_748_164)"/>
<path d="M98.8567 156.872C98.8567 159.45 96.7665 161.54 94.1881 161.54C91.6097 161.54 89.5195 159.45 89.5195 156.872C89.5195 154.293 91.6097 152.203 94.1881 152.203C96.7665 152.203 98.8567 154.293 98.8567 156.872Z" fill="white"/>
<path fill-rule="evenodd" clip-rule="evenodd" d="M119.799 168.21C119.062 168.21 118.465 167.612 118.465 166.876L118.465 121.524C118.465 120.787 119.062 120.19 119.799 120.19C120.536 120.19 121.133 120.787 121.133 121.524L121.133 166.876C121.133 167.612 120.536 168.21 119.799 168.21Z" fill="#2563eb"/>
<path fill-rule="evenodd" clip-rule="evenodd" d="M119.799 168.21C119.062 168.21 118.465 167.612 118.465 166.876L118.465 121.524C118.465 120.787 119.062 120.19 119.799 120.19C120.536 120.19 121.133 120.787 121.133 121.524L121.133 166.876C121.133 167.612 120.536 168.21 119.799 168.21Z" fill="url(#paint5_linear_748_164)"/>
<path d="M124.2 131.528C124.2 134.106 122.11 136.197 119.532 136.197C116.953 136.197 114.863 134.106 114.863 131.528C114.863 128.95 116.953 126.859 119.532 126.859C122.11 126.859 124.2 128.95 124.2 131.528Z" fill="white"/>
<path d="M50 249C50 247.895 50.8954 247 52 247H116C117.105 247 118 247.895 118 249V291C118 292.105 117.105 293 116 293H52C50.8954 293 50 292.105 50 291V249Z" fill="#c8d8fa"/>
<path d="M50 249C50 247.895 50.8954 247 52 247H116C117.105 247 118 247.895 118 249V291C118 292.105 117.105 293 116 293H52C50.8954 293 50 292.105 50 291V249Z" fill="url(#paint6_linear_748_164)"/>
<path fill-rule="evenodd" clip-rule="evenodd" d="M50 255V254H61.0854C61.2913 253.417 61.8469 253 62.5 253C63.3284 253 64 253.672 64 254.5C64 255.328 63.3284 256 62.5 256C61.8469 256 61.2913 255.583 61.0854 255H50ZM50 261H83.75V255.897C83.192 255.679 82.7969 255.135 82.7969 254.5C82.7969 253.672 83.4684 253 84.2969 253C85.1253 253 85.7969 253.672 85.7969 254.5C85.7969 255.17 85.357 255.738 84.75 255.93V261H95.5C96.3284 261 97 260.328 97 259.5V247H98V254H109.085C109.291 253.417 109.847 253 110.5 253C111.328 253 112 253.672 112 254.5C112 255.328 111.328 256 110.5 256C109.847 256 109.291 255.583 109.085 255H98V259.5C98 260.881 96.8807 262 95.5 262H71.5V279.5H109.054C109.229 278.866 109.81 278.4 110.5 278.4C111.328 278.4 112 279.071 112 279.9C112 280.728 111.328 281.4 110.5 281.4C109.885 281.4 109.356 281.03 109.125 280.5H96.5V286.088C97.0785 286.296 97.4922 286.85 97.4922 287.5C97.4922 288.328 96.8206 289 95.9922 289C95.1638 289 94.4922 288.328 94.4922 287.5C94.4922 286.844 94.9133 286.286 95.5 286.083V280.5H66V286.085C66.5826 286.291 67 286.847 67 287.5C67 288.328 66.3284 289 65.5 289C64.6716 289 64 288.328 64 287.5C64 286.847 64.4174 286.291 65 286.085V280.5H56.8751C56.6437 281.03 56.1151 281.4 55.5 281.4C54.6716 281.4 54 280.728 54 279.9C54 279.071 54.6716 278.4 55.5 278.4C56.1899 278.4 56.7711 278.866 56.9461 279.5H70.5V262H50V261Z" fill="#2563eb"/>
<path d="M177 36C177 34.8954 177.895 34 179 34H241C242.105 34 243 34.8954 243 36V79C243 80.1046 242.105 81 241 81H179C177.895 81 177 80.1046 177 79V36Z" fill="#F9FAFB"/>
<path fill-rule="evenodd" clip-rule="evenodd" d="M179 32H241C243.209 32 245 33.7909 245 36V79C245 81.2091 243.209 83 241 83H179C176.791 83 175 81.2091 175 79V36C175 33.7909 176.791 32 179 32ZM179 34C177.895 34 177 34.8954 177 36V79C177 80.1046 177.895 81 179 81H241C242.105 81 243 80.1046 243 79V36C243 34.8954 242.105 34 241 34H179Z" fill="#D7EBFF"/>
<path fill-rule="evenodd" clip-rule="evenodd" d="M220.814 52.4802C221.989 49.3613 221.583 47.6628 220.935 47.015C220.287 46.3672 218.589 45.961 215.47 47.1363C212.54 48.2406 209.052 50.5252 205.789 53.7886C202.525 57.0521 200.241 60.5398 199.136 63.4701C197.961 66.5889 198.367 68.2875 199.015 68.9353C199.663 69.5831 201.361 69.9892 204.48 68.8139C207.41 67.7097 210.898 65.4251 214.162 62.1616C217.425 58.8982 219.71 55.4105 220.814 52.4802ZM215.576 63.5758C222.41 56.7417 225.443 48.6939 222.349 45.6008C219.256 42.5076 211.209 45.5402 204.374 52.3744C197.54 59.2086 194.508 67.2563 197.601 70.3495C200.694 73.4427 208.742 70.41 215.576 63.5758Z" fill="#2563eb"/>
<path fill-rule="evenodd" clip-rule="evenodd" d="M199.135 52.4802C197.96 49.3613 198.366 47.6628 199.014 47.015C199.662 46.3672 201.36 45.961 204.479 47.1363C207.409 48.2406 210.897 50.5252 214.161 53.7886C217.424 57.0521 219.709 60.5398 220.813 63.4701C221.988 66.5889 221.582 68.2875 220.934 68.9353C220.286 69.5831 218.588 69.9892 215.469 68.8139C212.539 67.7097 209.051 65.4251 205.788 62.1616C202.524 58.8982 200.24 55.4105 199.135 52.4802ZM204.373 63.5758C197.539 56.7417 194.507 48.6939 197.6 45.6008C200.693 42.5076 208.741 45.5402 215.575 52.3744C222.409 59.2086 225.442 67.2563 222.349 70.3495C219.255 73.4427 211.208 70.41 204.373 63.5758Z" fill="#2563eb"/>
<path d="M280 97C280 95.8954 280.895 95 282 95H324C325.105 95 326 95.8954 326 97V215C326 216.105 325.105 217 324 217H282C280.895 217 280 216.105 280 215V97Z" fill="#c8d8fa"/>
<path d="M280 97C280 95.8954 280.895 95 282 95H324C325.105 95 326 95.8954 326 97V215C326 216.105 325.105 217 324 217H282C280.895 217 280 216.105 280 215V97Z" fill="url(#paint7_linear_748_164)"/>
<path fill-rule="evenodd" clip-rule="evenodd" d="M280 194.117V183.73C280.5 181.474 281.039 179.237 281.608 177.116C282.646 173.243 283.795 169.708 285.006 167.123C285.609 165.835 286.251 164.73 286.936 163.932C287.6 163.16 288.457 162.5 289.499 162.5C291.566 162.5 293.012 164.056 294.043 165.825C295.098 167.636 295.923 170.016 296.641 172.328C296.874 173.076 297.095 173.815 297.309 174.533C297.773 176.083 298.206 177.534 298.663 178.761C298.994 179.652 299.315 180.36 299.633 180.86C299.762 181.064 299.876 181.208 299.971 181.31C300.056 181.134 300.155 180.889 300.262 180.563C300.615 179.49 300.962 177.858 301.316 175.799C301.747 173.293 302.173 170.258 302.632 166.988C302.926 164.889 303.235 162.692 303.566 160.477C304.409 154.852 305.402 149.132 306.698 144.807C307.345 142.651 308.087 140.771 308.963 139.411C309.819 138.084 310.973 137 312.499 137C314.808 137 316.361 138.231 317.495 139.879C318.491 141.327 319.24 143.21 319.963 145.029C320.035 145.209 320.106 145.388 320.177 145.566C321.598 149.118 323.046 152.289 326 153.544V155.675C321.599 154.291 319.767 149.926 318.32 146.309C318.254 146.143 318.189 145.979 318.124 145.816L318.122 145.812C317.373 143.932 316.708 142.264 315.847 141.012C314.949 139.707 313.939 139 312.499 139C312.021 139 311.39 139.338 310.644 140.495C309.919 141.619 309.242 143.287 308.614 145.381C307.363 149.555 306.387 155.148 305.544 160.773C305.22 162.941 304.914 165.118 304.62 167.213L304.62 167.213C304.157 170.513 303.722 173.609 303.287 176.138C302.931 178.205 302.564 179.963 302.162 181.187C301.965 181.787 301.732 182.344 301.438 182.751C301.164 183.131 300.572 183.704 299.724 183.462C298.925 183.233 298.357 182.58 297.945 181.933C297.515 181.257 297.136 180.394 296.788 179.458C296.308 178.168 295.843 176.612 295.369 175.026L295.369 175.025C295.159 174.323 294.947 173.615 294.731 172.922C294.013 170.609 293.244 168.426 292.314 166.832C291.36 165.194 290.432 164.5 289.499 164.5C289.34 164.5 288.99 164.611 288.453 165.236C287.939 165.835 287.387 166.754 286.817 167.971C285.681 170.396 284.568 173.798 283.54 177.634C282.129 182.897 280.9 188.891 280 194.117Z" fill="white"/>
<path d="M334 97C334 95.8954 334.895 95 336 95H378C379.105 95 380 95.8954 380 97V215C380 216.105 379.105 217 378 217H336C334.895 217 334 216.105 334 215V97Z" fill="#c8d8fa"/>
<path d="M334 97C334 95.8954 334.895 95 336 95H378C379.105 95 380 95.8954 380 97V215C380 216.105 379.105 217 378 217H336C334.895 217 334 216.105 334 215V97Z" fill="url(#paint8_linear_748_164)"/>
<path fill-rule="evenodd" clip-rule="evenodd" d="M380 110H334V108H380V110Z" fill="#2563eb"/>
<path fill-rule="evenodd" clip-rule="evenodd" d="M367 125.5C367 126.052 366.552 126.5 366 126.5H348.5C347.948 126.5 347.5 126.052 347.5 125.5C347.5 124.948 347.948 124.5 348.5 124.5H366C366.552 124.5 367 124.948 367 125.5Z" fill="#2563eb"/>
<path fill-rule="evenodd" clip-rule="evenodd" d="M367 141.5C367 142.052 366.552 142.5 366 142.5H334V140.5H366C366.552 140.5 367 140.948 367 141.5Z" fill="#2563eb"/>
<path fill-rule="evenodd" clip-rule="evenodd" d="M367 157.5C367 158.052 366.552 158.5 366 158.5H348.5C347.948 158.5 347.5 158.052 347.5 157.5C347.5 156.948 347.948 156.5 348.5 156.5H366C366.552 156.5 367 156.948 367 157.5Z" fill="#2563eb"/>
<path fill-rule="evenodd" clip-rule="evenodd" d="M364.25 173.5C364.25 174.052 363.802 174.5 363.25 174.5H351.25C350.698 174.5 350.25 174.052 350.25 173.5C350.25 172.948 350.698 172.5 351.25 172.5H363.25C363.802 172.5 364.25 172.948 364.25 173.5Z" fill="#2563eb"/>
<path fill-rule="evenodd" clip-rule="evenodd" d="M353.5 189.5C353.5 190.052 353.052 190.5 352.5 190.5H334V188.5H352.5C353.052 188.5 353.5 188.948 353.5 189.5Z" fill="#2563eb"/>
<path fill-rule="evenodd" clip-rule="evenodd" d="M374 205.5C374 206.052 373.552 206.5 373 206.5H361C360.448 206.5 360 206.052 360 205.5C360 204.948 360.448 204.5 361 204.5H373C373.552 204.5 374 204.948 374 205.5Z" fill="#2563eb"/>
<path d="M269.498 325.5C269.498 319.1 268.165 264.5 267.498 238H250.5C253.666 262 259.998 312.2 259.998 321C259.998 332 253.498 346.5 259.998 347C266.498 347.5 269.498 333.5 269.498 325.5Z" fill="#FDBA8C"/>
<path d="M269.498 325.5C269.498 319.1 268.165 264.5 267.498 238H250.5C253.666 262 259.998 312.2 259.998 321C259.998 332 253.498 346.5 259.998 347C266.498 347.5 269.498 333.5 269.498 325.5Z" fill="url(#paint9_linear_748_164)"/>
<path d="M182.789 574L179.827 601.928L145.552 612.083L122.279 609.544C121.574 608.557 120.418 606.159 121.433 604.466C122.702 602.351 129.896 600.235 141.744 593.888C151.222 588.81 155.567 578.514 156.554 574H182.789Z" fill="#d6e2fb"/>
<path d="M182.789 574L179.827 601.928L145.552 612.083L122.279 609.544C121.574 608.557 120.418 606.159 121.433 604.466C122.702 602.351 129.896 600.235 141.744 593.888C151.222 588.81 155.567 578.514 156.554 574H182.789Z" fill="url(#paint10_linear_748_164)"/>
<path d="M179.828 601.927L179.094 612.203C179.031 613.089 178.294 613.775 177.406 613.775H130.075C125.491 613.775 119.393 612.717 120.049 608.18C120.256 606.744 120.864 605.379 121.434 604.466C122.28 609.121 125.666 609.544 137.514 609.544C149.362 609.544 156.555 604.889 165.441 601.504C172.55 598.796 177.994 600.658 179.828 601.927Z" fill="#374151"/>
<path d="M254.977 606.159L252.015 574.846L229.588 574L224.933 609.544L254.977 606.159Z" fill="#d6e2fb"/>
<path d="M254.977 606.159L252.015 574.846L229.588 574L224.933 609.544L254.977 606.159Z" fill="url(#paint11_linear_748_164)"/>
<path d="M225.774 613.776H254.784C255.789 613.776 256.572 612.905 256.467 611.906L255.818 605.736C254.971 603.902 250.909 600.235 241.431 600.235C231.952 600.235 225.915 606.723 224.082 609.967V612.083C224.082 613.018 224.84 613.776 225.774 613.776Z" fill="#374151"/>
<path d="M139.441 573.634L195 275L249 262.5C252 271 258.4 294 260 318C261.587 341.796 262.321 497.32 262.496 574.042C262.499 575.148 261.602 576 260.496 576H216.081C214.945 576 214.038 575.056 214.082 573.921L223 347L194.719 574.247C194.594 575.248 193.743 576 192.734 576H141.407C140.156 576 139.212 574.864 139.441 573.634Z" fill="#2563eb"/>
<path d="M139.441 573.634L195 275L249 262.5C252 271 258.4 294 260 318C261.587 341.796 262.321 497.32 262.496 574.042C262.499 575.148 261.602 576 260.496 576H216.081C214.945 576 214.038 575.056 214.082 573.921L223 347L194.719 574.247C194.594 575.248 193.743 576 192.734 576H141.407C140.156 576 139.212 574.864 139.441 573.634Z" fill="url(#paint12_linear_748_164)"/>
<path fill-rule="evenodd" clip-rule="evenodd" d="M196.923 558.199H142.223V556.199H196.923V558.199Z" fill="#d6e2fb"/>
<path fill-rule="evenodd" clip-rule="evenodd" d="M262.7 558H215V556H262.7V558Z" fill="#d6e2fb"/>
<path d="M237.934 121.59C249.745 127.794 226.951 147.655 216.341 152.622C215.269 144.241 211.662 125.958 205.816 119.873C198.509 112.267 201.914 101.272 220.775 106.226C235.863 110.189 239.331 116.27 237.934 121.59Z" fill="#111928"/>
<path d="M227 167L222 138L209.063 143.648C209.686 152.857 209.342 162.107 208.037 171.244L208 171.5L227 167Z" fill="#FDBA8C"/>
<path d="M227 167L222 138L209.063 143.648C209.686 152.857 209.342 162.107 208.037 171.244L208 171.5L227 167Z" fill="url(#paint13_linear_748_164)"/>
<path d="M199.994 147.262C192.733 143.181 201.121 124.008 206.222 114.932C212.375 115.643 212.807 132.966 216.774 129.932C220.741 126.898 226.137 128.768 225.336 133.54C224.536 138.311 209.07 152.363 199.994 147.262Z" fill="#FDBA8C"/>
<path d="M207.192 129.237C207.14 129.817 206.628 130.245 206.049 130.193C205.469 130.141 205.042 129.629 205.093 129.049C205.145 128.47 205.657 128.042 206.237 128.094C206.817 128.146 207.244 128.658 207.192 129.237Z" fill="#111928"/>
<path fill-rule="evenodd" clip-rule="evenodd" d="M202.214 127.578C202.446 127.734 202.509 128.049 202.353 128.281L198.477 134.074C198.408 134.178 198.451 134.319 198.567 134.365L201.339 135.475C201.599 135.579 201.725 135.874 201.621 136.133C201.517 136.393 201.222 136.519 200.963 136.415L198.19 135.306C197.477 135.02 197.207 134.15 197.635 133.511L201.511 127.718C201.666 127.485 201.981 127.423 202.214 127.578Z" fill="#111928"/>
<path fill-rule="evenodd" clip-rule="evenodd" d="M201.584 139.039C202.229 139.054 202.924 138.962 203.989 138.794C204.265 138.751 204.525 138.939 204.568 139.216C204.612 139.492 204.423 139.751 204.147 139.795C203.091 139.961 202.31 140.07 201.56 140.052C200.797 140.034 200.088 139.886 199.162 139.574C198.897 139.485 198.754 139.197 198.843 138.932C198.933 138.667 199.22 138.524 199.485 138.614C200.349 138.904 200.953 139.024 201.584 139.039Z" fill="#111928"/>
<path fill-rule="evenodd" clip-rule="evenodd" d="M221.514 134.988C221.968 134.398 222.096 133.729 222.103 133.005C222.106 132.725 222.335 132.501 222.615 132.503C222.894 132.506 223.119 132.735 223.117 133.015C223.109 133.85 222.959 134.772 222.317 135.606C221.678 136.437 220.605 137.111 218.896 137.575C218.626 137.648 218.348 137.488 218.274 137.218C218.201 136.948 218.36 136.67 218.63 136.597C220.213 136.167 221.057 135.583 221.514 134.988Z" fill="#111928"/>
<path fill-rule="evenodd" clip-rule="evenodd" d="M205.121 132.752C206.525 133.153 208.437 132.066 209.104 129.73C209.771 127.395 208.722 125.461 207.318 125.06C205.914 124.659 204.002 125.747 203.335 128.082C202.668 130.418 203.717 132.351 205.121 132.752ZM204.846 133.714C206.97 134.321 209.307 132.66 210.066 130.005C210.824 127.349 209.717 124.705 207.592 124.098C205.468 123.492 203.131 125.153 202.373 127.808C201.615 130.463 202.722 133.107 204.846 133.714Z" fill="#111928"/>
<path fill-rule="evenodd" clip-rule="evenodd" d="M199.69 130.57C200.224 129.946 200.755 128.952 201.104 127.73C201.453 126.508 201.527 125.384 201.403 124.572C201.264 123.665 200.964 123.53 200.96 123.529C200.956 123.528 200.631 123.484 200.034 124.181C199.5 124.805 198.969 125.799 198.62 127.021C198.271 128.242 198.197 129.367 198.321 130.179C198.46 131.086 198.76 131.22 198.763 131.222C198.767 131.223 199.093 131.267 199.69 130.57ZM198.489 132.183C199.706 132.531 201.307 130.66 202.066 128.005C202.824 125.349 202.452 122.915 201.235 122.568C200.018 122.22 198.417 124.091 197.658 126.746C196.9 129.401 197.272 131.836 198.489 132.183Z" fill="#111928"/>
<path d="M147.497 238C153.897 244.4 165.497 239 170.497 235.5L153.499 212.5C143.832 198.833 123.899 170.9 121.499 168.5C118.499 165.5 116.497 163.5 104.497 159C92.4974 154.5 91.4975 156 92.9975 157C94.1975 157.8 98.5 159 100.497 160.5C97.499 170 109.499 168.5 112.499 171.5C115.048 174.049 139.497 230 147.497 238Z" fill="#FDBA8C"/>
<path d="M147.497 238C153.897 244.4 165.497 239 170.497 235.5L153.499 212.5C143.832 198.833 123.899 170.9 121.499 168.5C118.499 165.5 116.497 163.5 104.497 159C92.4974 154.5 91.4975 156 92.9975 157C94.1975 157.8 98.5 159 100.497 160.5C97.499 170 109.499 168.5 112.499 171.5C115.048 174.049 139.497 230 147.497 238Z" fill="url(#paint14_linear_748_164)"/>
<path d="M169 239L153.5 212.5C157.833 205.167 170.3 187.8 185.5 177C200.7 166.2 218.833 162.5 226 162C260.601 170.553 269.98 216.327 270.479 240.007C270.502 241.111 269.605 242 268.5 242H255V273.621C255 274.677 254.179 275.551 253.125 275.617L192.881 279.382C191.824 279.448 190.899 278.68 190.771 277.63L184.5 226.5L169 239Z" fill="#F9FAFB"/>
<path d="M200.29 214.124L184.5 226.5L190 272L212 273L203.503 215.406C203.279 213.888 201.498 213.177 200.29 214.124Z" fill="url(#paint15_linear_748_164)"/>
<path d="M255 208V242H270.5L270 231L255 208Z" fill="url(#paint16_linear_748_164)"/>
<defs>
<linearGradient id="paint0_linear_748_164" x1="202.5" y1="551.5" x2="202.5" y2="203" gradientUnits="userSpaceOnUse">
<stop stop-color="#d6e2fb" stop-opacity="0"/>
<stop offset="1" stop-color="#d6e2fb"/>
</linearGradient>
<linearGradient id="paint1_linear_748_164" x1="81.1992" y1="153" x2="81.1992" y2="15.4999" gradientUnits="userSpaceOnUse">
<stop stop-color="#d6e2fb" stop-opacity="0"/>
<stop offset="1" stop-color="#d6e2fb"/>
</linearGradient>
<linearGradient id="paint2_linear_748_164" x1="44.3617" y1="210" x2="44.3617" y2="127.5" gradientUnits="userSpaceOnUse">
<stop stop-color="#111928"/>
<stop offset="1" stop-color="#111928" stop-opacity="0"/>
</linearGradient>
<linearGradient id="paint3_linear_748_164" x1="69.7094" y1="210" x2="69.7094" y2="127.5" gradientUnits="userSpaceOnUse">
<stop stop-color="#111928"/>
<stop offset="1" stop-color="#111928" stop-opacity="0"/>
</linearGradient>
<linearGradient id="paint4_linear_748_164" x1="95.0531" y1="210" x2="95.0531" y2="127.5" gradientUnits="userSpaceOnUse">
<stop stop-color="#111928"/>
<stop offset="1" stop-color="#111928" stop-opacity="0"/>
</linearGradient>
<linearGradient id="paint5_linear_748_164" x1="120.397" y1="210" x2="120.397" y2="127.5" gradientUnits="userSpaceOnUse">
<stop stop-color="#111928"/>
<stop offset="1" stop-color="#111928" stop-opacity="0"/>
</linearGradient>
<linearGradient id="paint6_linear_748_164" x1="84" y1="264.658" x2="84" y2="395.39" gradientUnits="userSpaceOnUse">
<stop stop-color="#2563eb" stop-opacity="0"/>
<stop offset="1" stop-color="#2563eb"/>
</linearGradient>
<linearGradient id="paint7_linear_748_164" x1="303" y1="164.8" x2="303" y2="27.3002" gradientUnits="userSpaceOnUse">
<stop stop-color="#d6e2fb" stop-opacity="0"/>
<stop offset="1" stop-color="#d6e2fb"/>
</linearGradient>
<linearGradient id="paint8_linear_748_164" x1="357" y1="164.8" x2="357" y2="27.3002" gradientUnits="userSpaceOnUse">
<stop stop-color="#d6e2fb" stop-opacity="0"/>
<stop offset="1" stop-color="#d6e2fb"/>
</linearGradient>
<linearGradient id="paint9_linear_748_164" x1="222" y1="115.5" x2="168.879" y2="230.292" gradientUnits="userSpaceOnUse">
<stop stop-color="#7F270F"/>
<stop offset="1" stop-color="#7F270F" stop-opacity="0"/>
</linearGradient>
<linearGradient id="paint10_linear_748_164" x1="129.896" y1="571.884" x2="130.006" y2="595.465" gradientUnits="userSpaceOnUse">
<stop stop-color="#c8d8fa"/>
<stop offset="1" stop-color="#c8d8fa" stop-opacity="0"/>
</linearGradient>
<linearGradient id="paint11_linear_748_164" x1="221.971" y1="571.461" x2="225.911" y2="598.511" gradientUnits="userSpaceOnUse">
<stop stop-color="#c8d8fa"/>
<stop offset="1" stop-color="#c8d8fa" stop-opacity="0"/>
</linearGradient>
<linearGradient id="paint12_linear_748_164" x1="200.805" y1="91.9914" x2="200.805" y2="348.983" gradientUnits="userSpaceOnUse">
<stop stop-color="#111928"/>
<stop offset="1" stop-color="#111928" stop-opacity="0"/>
</linearGradient>
<linearGradient id="paint13_linear_748_164" x1="192.419" y1="130.945" x2="217.08" y2="165.106" gradientUnits="userSpaceOnUse">
<stop stop-color="#7F270F"/>
<stop offset="1" stop-color="#7F270F" stop-opacity="0"/>
</linearGradient>
<linearGradient id="paint14_linear_748_164" x1="-17.9559" y1="377.04" x2="18.7961" y2="165.912" gradientUnits="userSpaceOnUse">
<stop stop-color="#7F270F"/>
<stop offset="1" stop-color="#7F270F" stop-opacity="0"/>
</linearGradient>
<linearGradient id="paint15_linear_748_164" x1="147" y1="183.5" x2="182" y2="276.5" gradientUnits="userSpaceOnUse">
<stop stop-color="#c8d8fa"/>
<stop offset="1" stop-color="#c8d8fa" stop-opacity="0"/>
</linearGradient>
<linearGradient id="paint16_linear_748_164" x1="238.5" y1="249.5" x2="261" y2="230.5" gradientUnits="userSpaceOnUse">
<stop stop-color="#c8d8fa"/>
<stop offset="1" stop-color="#c8d8fa" stop-opacity="0"/>
</linearGradient>
</defs>
</svg>