<svg class="w-auto max-w-[16rem] h-40 text-gray-800 dark:text-white" aria-hidden="true" width="434" height="611" viewBox="0 0 434 611" fill="none" xmlns="http://www.w3.org/2000/svg">
<path fill-rule="evenodd" clip-rule="evenodd" d="M226.096 294.617H183.637C182.787 294.617 182.099 295.305 182.099 296.155V308.185C182.099 309.035 182.787 309.723 183.637 309.723H226.096C226.946 309.723 227.635 309.035 227.635 308.185V296.155C227.635 295.305 226.946 294.617 226.096 294.617ZM183.637 292.617C181.683 292.617 180.099 294.201 180.099 296.155V308.185C180.099 310.139 181.683 311.723 183.637 311.723H226.096C228.05 311.723 229.635 310.139 229.635 308.185V296.155C229.635 294.201 228.05 292.617 226.096 292.617H183.637Z" fill="#d6e2fb"/>
<path fill-rule="evenodd" clip-rule="evenodd" d="M281.294 294.617H238.834C237.985 294.617 237.296 295.305 237.296 296.155V308.185C237.296 309.035 237.985 309.723 238.834 309.723H281.294C282.143 309.723 282.832 309.035 282.832 308.185V296.155C282.832 295.305 282.143 294.617 281.294 294.617ZM238.834 292.617C236.88 292.617 235.296 294.201 235.296 296.155V308.185C235.296 310.139 236.88 311.723 238.834 311.723H281.294C283.248 311.723 284.832 310.139 284.832 308.185V296.155C284.832 294.201 283.248 292.617 281.294 292.617H238.834Z" fill="#d6e2fb"/>
<path fill-rule="evenodd" clip-rule="evenodd" d="M253.695 319.385H211.236C210.386 319.385 209.697 320.073 209.697 320.923V332.953C209.697 333.803 210.386 334.491 211.236 334.491H253.695C254.545 334.491 255.233 333.803 255.233 332.953V320.923C255.233 320.073 254.545 319.385 253.695 319.385ZM211.236 317.385C209.281 317.385 207.697 318.969 207.697 320.923V332.953C207.697 334.907 209.281 336.491 211.236 336.491H253.695C255.649 336.491 257.233 334.907 257.233 332.953V320.923C257.233 318.969 255.649 317.385 253.695 317.385H211.236Z" fill="#d6e2fb"/>
<path fill-rule="evenodd" clip-rule="evenodd" d="M329.414 2H286.954C286.105 2 285.416 2.68871 285.416 3.53828V15.5684C285.416 16.418 286.105 17.1067 286.954 17.1067H329.414C330.263 17.1067 330.952 16.418 330.952 15.5684V3.53828C330.952 2.68871 330.263 2 329.414 2ZM286.954 0C285 0 283.416 1.58414 283.416 3.53828V15.5684C283.416 17.5226 285 19.1067 286.954 19.1067H329.414C331.368 19.1067 332.952 17.5226 332.952 15.5684V3.53828C332.952 1.58414 331.368 0 329.414 0H286.954Z" fill="#d6e2fb"/>
<path fill-rule="evenodd" clip-rule="evenodd" d="M301.815 26.7679H259.356C258.506 26.7679 257.817 27.4567 257.817 28.3062V40.3364C257.817 41.186 258.506 41.8747 259.356 41.8747H301.815C302.665 41.8747 303.353 41.186 303.353 40.3364V28.3062C303.353 27.4567 302.665 26.7679 301.815 26.7679ZM259.356 24.7679C257.402 24.7679 255.817 26.3521 255.817 28.3062V40.3364C255.817 42.2905 257.402 43.8747 259.356 43.8747H301.815C303.769 43.8747 305.353 42.2905 305.353 40.3364V28.3062C305.353 26.3521 303.769 24.7679 301.815 24.7679H259.356Z" fill="#d6e2fb"/>
<path fill-rule="evenodd" clip-rule="evenodd" d="M357.012 26.7679H314.553C313.703 26.7679 313.015 27.4567 313.015 28.3062V40.3364C313.015 41.186 313.703 41.8747 314.553 41.8747H357.012C357.862 41.8747 358.551 41.186 358.551 40.3364V28.3062C358.551 27.4567 357.862 26.7679 357.012 26.7679ZM314.553 24.7679C312.599 24.7679 311.015 26.3521 311.015 28.3062V40.3364C311.015 42.2905 312.599 43.8747 314.553 43.8747H357.012C358.966 43.8747 360.551 42.2905 360.551 40.3364V28.3062C360.551 26.3521 358.966 24.7679 357.012 24.7679H314.553Z" fill="#d6e2fb"/>
<path d="M123.486 63.3201C123.486 60.0064 126.173 57.3201 129.486 57.3201H303.954C307.268 57.3201 309.954 60.0064 309.954 63.3201V272.463C309.954 275.776 307.268 278.463 303.954 278.463H129.486C126.173 278.463 123.486 275.776 123.486 272.463V63.3201Z" fill="#d6e2fb"/>
<path d="M134.101 75.012C134.101 72.0808 136.477 69.7046 139.408 69.7046H294.031C296.962 69.7046 299.338 72.0808 299.338 75.012V260.772C299.338 263.703 296.962 266.079 294.031 266.079H139.408C136.477 266.079 134.101 263.703 134.101 260.772V75.012Z" fill="white"/>
<path d="M116.409 62.0363C116.409 59.2687 114.516 56.8601 111.827 56.2062L7.41733 30.8179C3.63992 29.8993 -0.000335693 32.7605 -0.000335693 36.648V299.136C-0.000335693 303.023 3.63992 305.884 7.41732 304.966L111.827 279.577C114.516 278.923 116.409 276.515 116.409 273.747V62.0363Z" fill="#d6e2fb"/>
<path d="M116.409 62.0363C116.409 59.2687 114.516 56.8601 111.827 56.2062L7.41733 30.8179C3.63992 29.8993 -0.000335693 32.7605 -0.000335693 36.648V299.136C-0.000335693 303.023 3.63992 305.884 7.41732 304.966L111.827 279.577C114.516 278.923 116.409 276.515 116.409 273.747V62.0363Z" fill="url(#paint0_linear_182_7944)"/>
<path fill-rule="evenodd" clip-rule="evenodd" d="M254.676 152.947L233.446 231.496L235.377 232.018L256.606 153.468L254.676 152.947Z" fill="#d6e2fb"/>
<path fill-rule="evenodd" clip-rule="evenodd" d="M179.117 152.947L200.347 231.496L198.416 232.018L177.187 153.468L179.117 152.947Z" fill="#d6e2fb"/>
<path d="M235.649 227.866C235.649 238.223 227.253 246.618 216.896 246.618C206.54 246.618 198.144 238.223 198.144 227.866C198.144 217.509 206.54 209.113 216.896 209.113C227.253 209.113 235.649 217.509 235.649 227.866Z" fill="#c8d8fa"/>
<path d="M257.941 142.239C257.941 164.907 239.565 183.283 216.897 183.283C194.229 183.283 175.853 164.907 175.853 142.239C175.853 119.571 194.229 101.195 216.897 101.195C239.565 101.195 257.941 119.571 257.941 142.239Z" fill="#c8d8fa"/>
<path fill-rule="evenodd" clip-rule="evenodd" d="M216.897 166.068C230.057 166.068 240.726 155.399 240.726 142.239C240.726 129.078 230.057 118.409 216.897 118.409C203.736 118.409 193.067 129.078 193.067 142.239C193.067 155.399 203.736 166.068 216.897 166.068ZM216.897 168.068C231.162 168.068 242.726 156.504 242.726 142.239C242.726 127.973 231.162 116.409 216.897 116.409C202.632 116.409 191.067 127.973 191.067 142.239C191.067 156.504 202.632 168.068 216.897 168.068Z" fill="#d6e2fb"/>
<path d="M225.742 227.866C225.742 232.751 221.782 236.711 216.896 236.711C212.011 236.711 208.051 232.751 208.051 227.866C208.051 222.98 212.011 219.02 216.896 219.02C221.782 219.02 225.742 222.98 225.742 227.866Z" fill="white"/>
<path d="M231.758 142.239C231.758 150.446 225.104 157.1 216.897 157.1C208.69 157.1 202.036 150.446 202.036 142.239C202.036 134.031 208.69 127.378 216.897 127.378C225.104 127.378 231.758 134.031 231.758 142.239Z" fill="white"/>
<path d="M216.896 134.809L223.331 138.524V145.954L216.896 149.67L210.461 145.954V138.524L216.896 134.809Z" fill="#c8d8fa"/>
<path fill-rule="evenodd" clip-rule="evenodd" d="M141.257 504.208L154 543.859V610H119C117.895 610 117 609.105 117 608V543.859L129.743 504.208C130.549 501.7 132.875 500 135.5 500C138.125 500 140.451 501.7 141.257 504.208Z" fill="#d6e2fb"/>
<path fill-rule="evenodd" clip-rule="evenodd" d="M141.257 504.208L154 543.859V610H119C117.895 610 117 609.105 117 608V543.859L129.743 504.208C130.549 501.7 132.875 500 135.5 500C138.125 500 140.451 501.7 141.257 504.208Z" fill="url(#paint1_linear_182_7944)"/>
<path d="M135.517 511.459C135.517 509.602 137.022 508.098 138.878 508.098H244.673C246.529 508.098 248.034 509.602 248.034 511.459C248.034 513.315 246.529 514.82 244.673 514.82H138.878C137.022 514.82 135.517 513.315 135.517 511.459Z" fill="#d6e2fb"/>
<path fill-rule="evenodd" clip-rule="evenodd" d="M253.992 504.169L266.787 543.834V608C266.787 609.104 265.891 610 264.787 610H229.635V543.834L242.43 504.169C243.24 501.66 245.575 499.959 248.211 499.959C250.847 499.959 253.182 501.66 253.992 504.169Z" fill="#d6e2fb"/>
<path fill-rule="evenodd" clip-rule="evenodd" d="M253.992 504.169L266.787 543.834V608C266.787 609.104 265.891 610 264.787 610H229.635V543.834L242.43 504.169C243.24 501.66 245.575 499.959 248.211 499.959C250.847 499.959 253.182 501.66 253.992 504.169Z" fill="url(#paint2_linear_182_7944)"/>
<path d="M157.072 499.797L164.695 497.964L182.587 572.371L174.964 574.204L157.072 499.797Z" fill="#9ab7f6"/>
<path fill-rule="evenodd" clip-rule="evenodd" d="M188.221 583.351C188.312 583.731 188.694 583.965 189.074 583.874L189.15 583.855C189.472 583.778 189.697 583.489 189.693 583.159L189.685 582.588C189.645 579.33 189.675 575.807 187.598 573.297C185.367 570.601 181.715 569.232 178.053 570.112C174.653 570.93 172.143 573.471 171.192 576.564C170.089 580.15 172.12 583.775 173.956 587.047C174.091 587.288 174.37 587.41 174.639 587.345L174.81 587.304C175.19 587.212 175.424 586.83 175.333 586.45L173.728 579.777L179.277 574.507L186.616 576.678L188.221 583.351Z" fill="#9ab7f6"/>
<path fill-rule="evenodd" clip-rule="evenodd" d="M151.441 488.482C151.349 488.102 150.967 487.868 150.587 487.959L150.511 487.978C150.19 488.055 149.965 488.344 149.969 488.675L149.976 489.246C150.016 492.503 149.987 496.026 152.063 498.536C154.295 501.232 157.946 502.602 161.608 501.721C165.008 500.904 167.518 498.363 168.469 495.269C169.572 491.683 167.541 488.058 165.705 484.786C165.57 484.545 165.291 484.424 165.022 484.488L164.851 484.53C164.471 484.621 164.237 485.003 164.328 485.383L165.933 492.057L160.384 497.326L153.045 495.156L151.441 488.482Z" fill="#9ab7f6"/>
<path d="M177.715 508.789L184.264 508.748L184.664 572.672L178.115 572.713L177.715 508.789Z" fill="#9ab7f6"/>
<path fill-rule="evenodd" clip-rule="evenodd" d="M187.157 582.64C187.16 582.986 187.442 583.266 187.789 583.263C188.082 583.262 188.335 583.055 188.398 582.769C189.046 579.834 189.845 576.618 188.363 574.003C186.996 571.59 184.398 569.955 181.406 569.974C178.485 569.992 175.96 571.582 174.598 573.917C173.019 576.624 173.981 579.959 174.853 582.969C174.917 583.191 175.12 583.343 175.351 583.341L175.447 583.341C175.802 583.339 176.088 583.049 176.085 582.694L176.05 577.012L181.566 573.781L187.122 576.943L187.157 582.64Z" fill="#9ab7f6"/>
<path fill-rule="evenodd" clip-rule="evenodd" d="M175.287 498.552C175.285 498.205 175.002 497.926 174.655 497.928C174.362 497.93 174.109 498.137 174.046 498.423C173.398 501.358 172.6 504.574 174.082 507.189C175.449 509.601 178.046 511.237 181.038 511.218C183.959 511.2 186.484 509.61 187.846 507.275C189.425 504.568 188.463 501.233 187.592 498.223C187.528 498.001 187.324 497.849 187.093 497.851L186.997 497.851C186.643 497.853 186.357 498.143 186.359 498.498L186.394 504.18L180.879 507.41L175.323 504.249L175.287 498.552Z" fill="#9ab7f6"/>
<path d="M206.03 498.142L213.015 499.279L197.905 592.176L190.92 591.04L206.03 498.142Z" fill="#9ab7f6"/>
<path d="M195.877 490.039C195.972 489.46 196.517 489.067 197.096 489.161L219.197 492.756C219.405 492.79 219.599 492.885 219.753 493.03L226.196 499.074C226.453 499.316 226.574 499.67 226.517 500.019L226.116 502.485C226.022 503.064 225.477 503.456 224.898 503.362L195.562 498.591C194.983 498.497 194.59 497.951 194.685 497.373L195.877 490.039Z" fill="#9ab7f6"/>
<path d="M117 544H229.871V610.166H119C117.895 610.166 117 609.27 117 608.166V544Z" fill="#d6e2fb"/>
<path d="M397.349 557.28C389.275 573.31 372.25 587.971 361.405 594.052C358.28 595.805 355.951 598.987 355.951 602.57H432.732L429.017 551.973L397.349 557.28Z" fill="#1F2A37"/>
<path d="M355.951 602.57H432.732L433.231 607.811C433.343 608.985 432.42 610 431.24 610H357.951C356.847 610 355.951 609.105 355.951 608V602.57Z" fill="#1555e2"/>
<path fill-rule="evenodd" clip-rule="evenodd" d="M418.225 587.738C420.638 587.738 422.594 585.782 422.594 583.369C422.594 580.956 420.638 579 418.225 579C415.812 579 413.856 580.956 413.856 583.369C413.856 585.782 415.812 587.738 418.225 587.738ZM418.225 589.738C421.743 589.738 424.594 586.886 424.594 583.369C424.594 579.851 421.743 577 418.225 577C414.708 577 411.856 579.851 411.856 583.369C411.856 586.886 414.708 589.738 418.225 589.738Z" fill="#374151"/>
<path d="M360.197 563.649C352.179 579.567 336.073 589.714 325.465 594.396C322.187 595.843 319.86 598.987 319.86 602.57H396.641V563.649H360.197Z" fill="#374151"/>
<path d="M319.86 602.57H396.641V608C396.641 609.105 395.746 610 394.641 610H321.86C320.756 610 319.86 609.105 319.86 608V602.57Z" fill="#2563eb"/>
<path fill-rule="evenodd" clip-rule="evenodd" d="M379.303 587.832C381.716 587.832 383.672 585.876 383.672 583.463C383.672 581.05 381.716 579.094 379.303 579.094C376.891 579.094 374.935 581.05 374.935 583.463C374.935 585.876 376.891 587.832 379.303 587.832ZM379.303 589.832C382.821 589.832 385.672 586.98 385.672 583.463C385.672 579.945 382.821 577.094 379.303 577.094C375.786 577.094 372.935 579.945 372.935 583.463C372.935 586.98 375.786 589.832 379.303 589.832Z" fill="#6B7280"/>
<path d="M240.249 188.945C251.339 191.163 291.023 192.07 308.538 192.66C319.506 190.301 338.967 188.945 332.598 205.928C324.637 227.158 275.455 202.922 244.144 204.691C227.331 205.641 220.187 196.129 222.384 191.6C225.388 185.407 229.634 186.822 240.249 188.945Z" fill="#FDBA8C"/>
<path d="M240.249 188.945C251.339 191.163 291.023 192.07 308.538 192.66C319.506 190.301 338.967 188.945 332.598 205.928C324.637 227.158 275.455 202.922 244.144 204.691C227.331 205.641 220.187 196.129 222.384 191.6C225.388 185.407 229.634 186.822 240.249 188.945Z" fill="url(#paint3_linear_182_7944)"/>
<path d="M331.892 206.991L308.361 192.66C322.818 170.453 350.75 118.496 362.675 129.325C374.6 140.154 348.08 187.735 331.892 206.991Z" fill="#F9FAFB"/>
<path d="M331.892 206.991L308.361 192.66C322.818 170.453 350.75 118.496 362.675 129.325C374.6 140.154 348.08 187.735 331.892 206.991Z" fill="url(#paint4_linear_182_7944)"/>
<path d="M430.749 556.785L383.825 561.836C382.705 561.956 381.707 561.129 381.617 560.006L359.489 282.001L402.656 269.971L432.524 554.588C432.639 555.684 431.845 556.667 430.749 556.785Z" fill="#2563eb"/>
<path d="M430.749 556.785L383.825 561.836C382.705 561.956 381.707 561.129 381.617 560.006L359.489 282.001L402.656 269.971L432.524 554.588C432.639 555.684 431.845 556.667 430.749 556.785Z" fill="url(#paint5_linear_182_7944)"/>
<path d="M382.488 140.47C380.365 128.015 372.286 124.43 368.512 124.194L356.305 128.263C339.462 133.924 342.387 200.798 346.397 233.35C372.156 233.35 389.8 223.207 395.403 218.136C391.982 197.437 384.611 152.925 382.488 140.47Z" fill="#F9FAFB"/>
<path d="M382.488 140.47C380.365 128.015 372.286 124.43 368.512 124.194L356.305 128.263C339.462 133.924 342.387 200.798 346.397 233.35C372.156 233.35 389.8 223.207 395.403 218.136C391.982 197.437 384.611 152.925 382.488 140.47Z" fill="url(#paint6_linear_182_7944)"/>
<path d="M357.721 127.909C348.38 134.278 345.101 161.346 344.629 172.669L340.029 184.168C340.265 178.271 341.515 163.115 344.629 149.67C347.743 136.224 352.767 129.089 355.421 127.202L357.721 127.909Z" fill="#2563eb"/>
<path d="M357.721 127.909C348.38 134.278 345.101 161.346 344.629 172.669L340.029 184.168C340.265 178.271 341.515 163.115 344.629 149.67C347.743 136.224 352.767 129.089 355.421 127.202L357.721 127.909Z" fill="url(#paint7_linear_182_7944)"/>
<path d="M386.381 173.022C386.522 188.874 370.282 196.611 362.143 198.498L344.098 205.221L340.052 565.696C340.039 566.809 340.938 567.718 342.052 567.718H401.202C402.301 567.718 403.194 566.881 403.202 565.782C403.849 475.987 404.733 291.223 403.188 255.111C401.241 209.644 384.965 141.355 382.842 136.755C380.719 132.155 377.004 122.072 364.443 130.74C354.395 137.675 351.764 153.739 352.413 158.693L355.775 152.854C356.482 139.232 369.928 127.732 375.589 130.032C381.25 132.332 386.204 153.208 386.381 173.022Z" fill="#2563eb"/>
<path d="M386.381 173.022C386.522 188.874 370.282 196.611 362.143 198.498L344.098 205.221L340.052 565.696C340.039 566.809 340.938 567.718 342.052 567.718H401.202C402.301 567.718 403.194 566.881 403.202 565.782C403.849 475.987 404.733 291.223 403.188 255.111C401.241 209.644 384.965 141.355 382.842 136.755C380.719 132.155 377.004 122.072 364.443 130.74C354.395 137.675 351.764 153.739 352.413 158.693L355.775 152.854C356.482 139.232 369.928 127.732 375.589 130.032C381.25 132.332 386.204 153.208 386.381 173.022Z" fill="url(#paint8_linear_182_7944)"/>
<path fill-rule="evenodd" clip-rule="evenodd" d="M403.365 552.973H340.029V550.973H403.365V552.973Z" fill="#d6e2fb"/>
<path fill-rule="evenodd" clip-rule="evenodd" d="M384.82 264.374C370.509 263.674 362.854 255.877 360.721 251.67L362.504 250.766C364.311 254.326 371.319 261.711 384.917 262.377C386.54 262.456 387.905 263.788 387.872 265.482L382.427 551.814L380.427 551.776L385.873 265.444C385.883 264.9 385.433 264.404 384.82 264.374Z" fill="#d6e2fb"/>
<path fill-rule="evenodd" clip-rule="evenodd" d="M341.806 409.377C341.921 409.379 342.036 409.38 342.151 409.38C352.899 409.38 361.612 400.667 361.612 389.919C361.612 379.202 352.948 370.508 342.243 370.459L341.806 409.377Z" fill="url(#paint9_linear_182_7944)"/>
<path d="M328.166 87.2632C325.941 89.0429 327.239 90.7237 328.166 91.3416L340.404 99.6839C347.141 101.352 358.338 103.636 358.428 101.903C358.576 99.0722 358.947 98.0154 358.576 90.9709C358.279 85.3352 355.362 80.3422 353.94 78.5502C346.276 80.713 330.391 85.4835 328.166 87.2632Z" fill="#111928"/>
<path d="M215.882 155.91L224.165 153.919L243.605 234.764L235.322 236.756L215.882 155.91Z" fill="#9ab7f6"/>
<path fill-rule="evenodd" clip-rule="evenodd" d="M249.74 246.753C249.831 247.133 250.213 247.367 250.593 247.276L250.783 247.23C251.104 247.153 251.329 246.864 251.325 246.533L251.312 245.44C251.271 242.183 251.283 238.695 249.312 236.102C246.918 232.954 242.805 231.317 238.678 232.309C234.984 233.197 232.257 235.958 231.223 239.319C230.025 243.216 232.231 247.154 234.227 250.709C234.374 250.971 234.677 251.103 234.968 251.033L235.214 250.974C235.594 250.882 235.828 250.5 235.737 250.12L233.979 242.81L240.008 237.084L247.982 239.443L249.74 246.753Z" fill="#9ab7f6"/>
<path fill-rule="evenodd" clip-rule="evenodd" d="M209.749 143.556C209.657 143.176 209.275 142.942 208.895 143.034L208.705 143.079C208.384 143.156 208.159 143.446 208.163 143.776L208.177 144.869C208.217 148.126 208.205 151.614 210.177 154.208C212.57 157.355 216.684 158.993 220.81 158C224.504 157.112 227.231 154.351 228.265 150.99C229.463 147.094 227.257 143.155 225.261 139.6C225.115 139.338 224.812 139.206 224.52 139.276L224.274 139.336C223.894 139.427 223.66 139.809 223.751 140.189L225.509 147.5L219.48 153.225L211.507 150.867L209.749 143.556Z" fill="#9ab7f6"/>
<path d="M221.673 192.483C220.682 184.557 228.101 184.581 231.934 185.583L230.696 180.63C233.526 181.514 242.372 191.421 248.564 192.483C253.518 193.332 305 204.159 330.122 209.467L331.006 206.99L365.327 204.513C361.966 213.182 353.368 231.793 345.867 236.888C336.49 243.257 262.363 211.59 245.203 207.344C228.042 203.098 222.912 202.39 221.673 192.483Z" fill="#FDBA8C"/>
<path d="M221.673 192.483C220.682 184.557 228.101 184.581 231.934 185.583L230.696 180.63C233.526 181.514 242.372 191.421 248.564 192.483C253.518 193.332 305 204.159 330.122 209.467L331.006 206.99L365.327 204.513C361.966 213.182 353.368 231.793 345.867 236.888C336.49 243.257 262.363 211.59 245.203 207.344C228.042 203.098 222.912 202.39 221.673 192.483Z" fill="url(#paint10_linear_182_7944)"/>
<path d="M359.486 218.056L331.006 206.989C339.793 179.627 361.258 126.883 376.827 134.808C391.904 142.484 374.569 191.047 363.069 216.6C362.455 217.963 360.88 218.598 359.486 218.056Z" fill="#F9FAFB"/>
<path d="M368.335 124.218L358.428 101.927C354.327 104.707 346.569 111.253 348.343 115.196L356.305 132.887C361.364 131.875 365.763 128.691 368.335 124.218Z" fill="#FDBA8C"/>
<path d="M368.335 124.218L358.428 101.927C354.327 104.707 346.569 111.253 348.343 115.196L356.305 132.887C361.364 131.875 365.763 128.691 368.335 124.218Z" fill="url(#paint11_linear_182_7944)"/>
<path d="M338.761 90.3665C335.05 88.1298 330.04 90.1801 327.999 91.4848C328.308 94.3428 329.669 102.445 332.638 111.988C335.606 121.531 344.018 118.574 347.852 115.902C350.45 113.985 356.202 108.505 358.428 101.923C356.82 101.612 354.346 100.432 352.862 98.195C351.006 95.3991 354.657 90.2433 351.192 88.5027C348.966 87.3843 346.925 88.6891 345.997 91.4848C345.069 94.2806 343.399 93.1624 338.761 90.3665Z" fill="#FDBA8C"/>
<path d="M338.761 90.3665C335.05 88.1298 330.04 90.1801 327.999 91.4848C328.308 94.3428 329.669 102.445 332.638 111.988C335.606 121.531 344.018 118.574 347.852 115.902C350.45 113.985 356.202 108.505 358.428 101.923C356.82 101.612 354.346 100.432 352.862 98.195C351.006 95.3991 354.657 90.2433 351.192 88.5027C348.966 87.3843 346.925 88.6891 345.997 91.4848C345.069 94.2806 343.399 93.1624 338.761 90.3665Z" fill="url(#paint12_linear_182_7944)"/>
<path d="M342.244 110.699L333.278 112.778C333.02 112.838 332.743 112.806 332.532 112.646C331.162 111.615 331.491 109.92 331.859 109.153C335.063 108.63 339.539 109.393 342.254 110.047C342.608 110.132 342.599 110.617 342.244 110.699Z" fill="#111928"/>
<path d="M336.883 99.4257C336.883 100.207 336.32 100.841 335.625 100.841C334.93 100.841 334.367 100.207 334.367 99.4257C334.367 98.644 334.93 98.0104 335.625 98.0104C336.32 98.0104 336.883 98.644 336.883 99.4257Z" fill="#111928"/>
<path fill-rule="evenodd" clip-rule="evenodd" d="M334.556 95.0549C333.591 95.2618 332.888 95.8408 332.271 96.5657C332.092 96.776 331.777 96.8014 331.567 96.6225C331.356 96.4435 331.331 96.128 331.51 95.9177C332.197 95.1106 333.077 94.3491 334.346 94.0771C335.612 93.8061 337.173 94.0402 339.187 95.0264C339.435 95.1479 339.538 95.4473 339.416 95.6954C339.295 95.9434 338.995 96.046 338.747 95.9245C336.851 94.996 335.526 94.8472 334.556 95.0549Z" fill="#111928"/>
<path fill-rule="evenodd" clip-rule="evenodd" d="M350.552 92.8494C350.594 92.0971 350.319 91.4652 349.912 90.8587C349.759 90.6292 349.82 90.3187 350.049 90.165C350.279 90.0113 350.589 90.0727 350.743 90.3022C351.211 91.0007 351.61 91.8497 351.55 92.9058C351.491 93.9565 350.983 95.125 349.826 96.4817C349.647 96.6918 349.331 96.7169 349.121 96.5377C348.911 96.3585 348.886 96.0429 349.065 95.8328C350.138 94.5746 350.509 93.6072 350.552 92.8494Z" fill="#111928"/>
<path fill-rule="evenodd" clip-rule="evenodd" d="M336.665 114.206C337.127 114.003 337.556 113.662 338.057 113.077C338.237 112.867 338.553 112.843 338.762 113.023C338.972 113.202 338.996 113.518 338.816 113.728C338.257 114.381 337.713 114.837 337.068 115.121C336.426 115.404 335.728 115.496 334.896 115.496C334.619 115.496 334.396 115.272 334.396 114.996C334.396 114.72 334.619 114.496 334.896 114.496C335.659 114.496 336.201 114.41 336.665 114.206Z" fill="#111928"/>
<path fill-rule="evenodd" clip-rule="evenodd" d="M330.171 98.6809C330.444 98.6455 330.695 98.8387 330.731 99.1126L331.633 106.077C331.65 106.208 331.783 106.29 331.908 106.246L334.746 105.249C335.006 105.157 335.292 105.294 335.383 105.555C335.475 105.816 335.338 106.101 335.077 106.192L332.239 107.189C331.514 107.444 330.74 106.966 330.641 106.205L329.739 99.241C329.703 98.9672 329.897 98.7164 330.171 98.6809Z" fill="#111928"/>
<path d="M336.538 73.2028C326.528 76.8846 325.95 87.2652 326.913 91.9953L355.597 80.8734C353.543 76.6547 346.549 69.521 336.538 73.2028Z" fill="#d6e2fb"/>
<path d="M336.538 73.2028C326.528 76.8846 325.95 87.2652 326.913 91.9953L355.597 80.8734C353.543 76.6547 346.549 69.521 336.538 73.2028Z" fill="url(#paint13_linear_182_7944)"/>
<path fill-rule="evenodd" clip-rule="evenodd" d="M356.374 80.3349C356.573 80.8501 356.317 81.4291 355.802 81.628L313.529 97.953C313.014 98.1519 312.435 97.8956 312.236 97.3804C312.037 96.8652 312.293 96.2862 312.808 96.0873L355.081 79.7623C355.596 79.5634 356.175 79.8197 356.374 80.3349Z" fill="#111928"/>
<defs>
<linearGradient id="paint0_linear_182_7944" x1="395.58" y1="217.459" x2="45.9973" y2="217.459" gradientUnits="userSpaceOnUse">
<stop stop-color="#9ab7f6"/>
<stop offset="1" stop-color="#9ab7f6" stop-opacity="0"/>
</linearGradient>
<linearGradient id="paint1_linear_182_7944" x1="198.4" y1="574.63" x2="91.2762" y2="574.63" gradientUnits="userSpaceOnUse">
<stop stop-color="#9ab7f6"/>
<stop offset="1" stop-color="#9ab7f6" stop-opacity="0"/>
</linearGradient>
<linearGradient id="paint2_linear_182_7944" x1="311.369" y1="574.617" x2="203.805" y2="574.617" gradientUnits="userSpaceOnUse">
<stop stop-color="#9ab7f6"/>
<stop offset="1" stop-color="#9ab7f6" stop-opacity="0"/>
</linearGradient>
<linearGradient id="paint3_linear_182_7944" x1="340.205" y1="259.003" x2="289.077" y2="166.3" gradientUnits="userSpaceOnUse">
<stop stop-color="#7F270F"/>
<stop offset="1" stop-color="#7F270F" stop-opacity="0"/>
</linearGradient>
<linearGradient id="paint4_linear_182_7944" x1="363.205" y1="200.091" x2="342.225" y2="149.568" gradientUnits="userSpaceOnUse">
<stop stop-color="#c8d8fa"/>
<stop offset="1" stop-color="#c8d8fa" stop-opacity="0"/>
</linearGradient>
<linearGradient id="paint5_linear_182_7944" x1="281.293" y1="416.102" x2="484.037" y2="524.373" gradientUnits="userSpaceOnUse">
<stop stop-color="#111928"/>
<stop offset="1" stop-color="#111928" stop-opacity="0"/>
</linearGradient>
<linearGradient id="paint6_linear_182_7944" x1="377.181" y1="205.575" x2="399.491" y2="161.528" gradientUnits="userSpaceOnUse">
<stop stop-color="#c8d8fa"/>
<stop offset="1" stop-color="#c8d8fa" stop-opacity="0"/>
</linearGradient>
<linearGradient id="paint7_linear_182_7944" x1="347.558" y1="123.431" x2="338.998" y2="213.49" gradientUnits="userSpaceOnUse">
<stop stop-color="#111928"/>
<stop offset="1" stop-color="#111928" stop-opacity="0"/>
</linearGradient>
<linearGradient id="paint8_linear_182_7944" x1="367.274" y1="98.1879" x2="380.189" y2="342.152" gradientUnits="userSpaceOnUse">
<stop stop-color="#111928"/>
<stop offset="1" stop-color="#111928" stop-opacity="0"/>
</linearGradient>
<linearGradient id="paint9_linear_182_7944" x1="351.709" y1="327.645" x2="351.709" y2="429.371" gradientUnits="userSpaceOnUse">
<stop stop-color="#d6e2fb"/>
<stop offset="1" stop-color="#d6e2fb" stop-opacity="0"/>
</linearGradient>
<linearGradient id="paint10_linear_182_7944" x1="377.244" y1="327.344" x2="344.629" y2="182.93" gradientUnits="userSpaceOnUse">
<stop stop-color="#7F270F"/>
<stop offset="1" stop-color="#7F270F" stop-opacity="0"/>
</linearGradient>
<linearGradient id="paint11_linear_182_7944" x1="332.598" y1="115.524" x2="361.258" y2="110.394" gradientUnits="userSpaceOnUse">
<stop stop-color="#7F270F"/>
<stop offset="1" stop-color="#7F270F" stop-opacity="0"/>
</linearGradient>
<linearGradient id="paint12_linear_182_7944" x1="365.151" y1="71.6503" x2="344.081" y2="106.515" gradientUnits="userSpaceOnUse">
<stop stop-color="#7F270F"/>
<stop offset="1" stop-color="#7F270F" stop-opacity="0"/>
</linearGradient>
<linearGradient id="paint13_linear_182_7944" x1="383.867" y1="50.8711" x2="333.026" y2="47.7424" gradientUnits="userSpaceOnUse">
<stop stop-color="#2563eb"/>
<stop offset="1" stop-color="#2563eb" stop-opacity="0"/>
</linearGradient>
</defs>
</svg>