<svg class="w-auto max-w-[16rem] h-40 text-gray-800 dark:text-white" aria-hidden="true" width="364" height="485" viewBox="0 0 364 485" fill="none" xmlns="http://www.w3.org/2000/svg">
<path d="M0 283C0 279.686 2.68629 277 6 277H86C89.3137 277 92 279.686 92 283V292C92 295.314 89.3137 298 86 298H6C2.68629 298 0 295.314 0 292V283Z" fill="#9ab7f6"/>
<path d="M79.8926 298H74.0001V482.134C74.0001 483.239 74.8955 484.134 76.0001 484.134H77.8926C78.9971 484.134 79.8926 483.239 79.8926 482.134V298Z" fill="#d6e2fb"/>
<path d="M18.8926 298H13.0001V482.134C13.0001 483.239 13.8955 484.134 15.0001 484.134H16.8926C17.9971 484.134 18.8926 483.239 18.8926 482.134V298Z" fill="#d6e2fb"/>
<path d="M15 430L15 436L74 436C75.1046 436 76 435.105 76 434L76 432C76 430.895 75.1046 430 74 430L15 430Z" fill="#d6e2fb"/>
<path d="M71.6055 478.439H132.938V482.222C132.938 483.253 132.103 484.089 131.072 484.089H73.4723C72.4413 484.089 71.6055 483.253 71.6055 482.222V478.439Z" fill="#2563eb"/>
<path d="M71.6055 478.439L77.2546 438.088L100.658 428.808C98.3714 439.299 101.868 461.088 113.167 464.316C128.385 468.664 132.804 475.076 132.938 478.439H71.6055Z" fill="#d6e2fb"/>
<path d="M71.6055 478.439L77.2546 438.088L100.658 428.808C98.3714 439.299 101.868 461.088 113.167 464.316C128.385 468.664 132.804 475.076 132.938 478.439H71.6055Z" fill="url(#paint0_linear_182_7964)"/>
<path fill-rule="evenodd" clip-rule="evenodd" d="M116.205 465.258C128.981 469.547 132.813 475.311 132.938 478.438H113.569L116.205 465.258Z" fill="#c8d8fa"/>
<path fill-rule="evenodd" clip-rule="evenodd" d="M85.7284 464.468C88.0401 464.468 89.9141 462.594 89.9141 460.282C89.9141 457.97 88.0401 456.096 85.7284 456.096C83.4167 456.096 81.5426 457.97 81.5426 460.282C81.5426 462.594 83.4167 464.468 85.7284 464.468ZM85.7284 466.335C89.0711 466.335 91.781 463.625 91.781 460.282C91.781 456.939 89.0711 454.229 85.7284 454.229C82.3856 454.229 79.6758 456.939 79.6758 460.282C79.6758 463.625 82.3856 466.335 85.7284 466.335Z" fill="#c8d8fa"/>
<path d="M64.5 440L83.5 293H113L124.5 332L108.5 440H64.5Z" fill="#2563eb"/>
<path d="M64.5 440L83.5 293H113L124.5 332L108.5 440H64.5Z" fill="url(#paint1_linear_182_7964)"/>
<path fill-rule="evenodd" clip-rule="evenodd" d="M117.806 309.299L113 293H83.5L81.5251 308.28L83.4109 314.736L115.512 315.699L117.806 309.299ZM73.6956 368.855L80.0176 319.942L98.2392 323.328L102.418 355.171L73.6956 368.855ZM109.749 431.57L108.5 440H64.5L66.1125 427.524L78.4983 409.312L109.336 418.283L109.749 431.57ZM119.926 362.875L113.341 407.326L93.6392 405.542L86.5111 374.227L114.091 357.771L119.926 362.875Z" fill="#111928" fill-opacity="0.3"/>
<path d="M139.443 478.439H200.776V482.222C200.776 483.253 199.941 484.089 198.91 484.089H141.31C140.279 484.089 139.443 483.253 139.443 482.222V478.439Z" fill="#2563eb"/>
<path d="M134.602 428L139.444 478.438H200.777C199.163 470.772 195.128 471.175 176.163 462.702C160.991 455.923 157.198 436.743 157.198 428H134.602Z" fill="#d6e2fb"/>
<path d="M134.602 428L139.444 478.438H200.777C199.163 470.772 195.128 471.175 176.163 462.702C160.991 455.923 157.198 436.743 157.198 428H134.602Z" fill="url(#paint2_linear_182_7964)"/>
<path fill-rule="evenodd" clip-rule="evenodd" d="M183.888 466.038L181.408 478.438H200.777C199.532 472.525 196.847 471.413 186.983 467.325C186.021 466.927 184.992 466.5 183.888 466.038Z" fill="#c8d8fa"/>
<path fill-rule="evenodd" clip-rule="evenodd" d="M150.339 464.468C152.65 464.468 154.524 462.594 154.524 460.282C154.524 457.97 152.65 456.096 150.339 456.096C148.027 456.096 146.153 457.97 146.153 460.282C146.153 462.594 148.027 464.468 150.339 464.468ZM150.339 466.335C153.681 466.335 156.391 463.625 156.391 460.282C156.391 456.939 153.681 454.229 150.339 454.229C146.996 454.229 144.286 456.939 144.286 460.282C144.286 463.625 146.996 466.335 150.339 466.335Z" fill="#c8d8fa"/>
<path d="M17.5004 267.5C5.50045 257.9 14.1671 232.833 20.0004 221.5H69.5L67 232L133.442 275.017C140.779 279.767 145.68 287.482 146.862 296.142L166.5 440H124L106 307C81.5002 297.833 29.5004 277.1 17.5004 267.5Z" fill="#2563eb"/>
<path fill-rule="evenodd" clip-rule="evenodd" d="M58.6646 288.097C40.48 280.346 23.6824 272.446 17.5005 267.5C16.4203 266.636 15.5076 265.646 14.7452 264.553L14.5475 263.945L40.5299 245.067L66.5122 263.945L58.6646 288.097ZM116.213 382.461L109.61 333.672L136.944 338.75L141.123 370.593L116.213 382.461ZM148.237 440H124L122.128 426.167L148.041 433.705L148.237 440ZM158.002 377.747L164.297 423.859L132.344 420.964L125.216 389.649L152.796 373.193L158.002 377.747ZM141.467 282.648C144.312 286.591 146.189 291.214 146.862 296.142L151.627 331.043L122.116 330.159L113.112 299.331L139.648 281.241L141.467 282.648ZM95.8942 250.707L118.594 265.404L124.391 278.424L100.524 299.914L72.7109 283.856L79.3882 252.442L95.8942 250.707ZM78.4579 239.418L68.3835 248.489L40.5703 232.431L42.8938 221.5H69.5L67 232L78.4579 239.418ZM11.6505 255.515C10.4319 244.132 15.912 229.443 20.0005 221.5H20.8687L29.0413 239.856L11.6505 255.515Z" fill="#9ab7f6"/>
<path fill-rule="evenodd" clip-rule="evenodd" d="M242.5 256.75V138H244.5V256.75C244.5 279.808 225.808 298.5 202.75 298.5C179.692 298.5 161 279.808 161 256.75V226.5H163V256.75C163 278.703 180.797 296.5 202.75 296.5C224.703 296.5 242.5 278.703 242.5 256.75Z" fill="#DBEBFE"/>
<path d="M255.271 178.549C255.636 177.272 254.677 176 253.348 176H186.017C184.231 176 182.662 177.184 182.171 178.901L169 225H242L255.271 178.549Z" fill="#2563eb"/>
<path d="M169 224.5H126.5C125.672 224.5 125 225.172 125 226C125 226.828 125.672 227.5 126.5 227.5H169V224.5Z" fill="#111928"/>
<path d="M169 224.5H242V225.5C242 226.605 241.105 227.5 240 227.5H169V224.5Z" fill="#111928"/>
<path d="M210.192 200.889C209.745 202.485 210.727 203.778 212.383 203.778C214.04 203.778 215.745 202.485 216.192 200.889C216.638 199.293 215.657 198 214 198C212.343 198 210.638 199.293 210.192 200.889Z" fill="#d6e2fb"/>
<path d="M111.042 232H182.819V484H111.042V232Z" fill="url(#paint3_linear_182_7964)"/>
<path fill-rule="evenodd" clip-rule="evenodd" d="M112.042 484.001L112.042 233.06L110.042 233.06L110.042 484.001L112.042 484.001Z" fill="#d6e2fb"/>
<path fill-rule="evenodd" clip-rule="evenodd" d="M112.042 484.001L112.042 233.06L110.042 233.06L110.042 484.001L112.042 484.001Z" fill="url(#paint4_linear_182_7964)"/>
<path fill-rule="evenodd" clip-rule="evenodd" d="M183.819 484.001L183.819 233.06L181.819 233.06L181.819 484.001L183.819 484.001Z" fill="#d6e2fb"/>
<path fill-rule="evenodd" clip-rule="evenodd" d="M183.819 484.001L183.819 233.06L181.819 233.06L181.819 484.001L183.819 484.001Z" fill="url(#paint5_linear_182_7964)"/>
<path fill-rule="evenodd" clip-rule="evenodd" d="M322.957 484.001L322.957 233.06L320.957 233.06L320.957 484.001L322.957 484.001Z" fill="#d6e2fb"/>
<path fill-rule="evenodd" clip-rule="evenodd" d="M322.957 484.001L322.957 233.06L320.957 233.06L320.957 484.001L322.957 484.001Z" fill="url(#paint6_linear_182_7964)"/>
<path d="M100 229C100 227.895 100.895 227 102 227H202.905C204.01 227 204.905 227.895 204.905 229V232C204.905 233.105 204.01 234 202.905 234H102C100.895 234 100 233.105 100 232V229Z" fill="#d6e2fb"/>
<path d="M100 229C100 227.895 100.895 227 102 227H202.905C204.01 227 204.905 227.895 204.905 229V232C204.905 233.105 204.01 234 202.905 234H102C100.895 234 100 233.105 100 232V229Z" fill="url(#paint7_linear_182_7964)"/>
<path d="M193.862 229C193.862 227.895 194.758 227 195.862 227H331C332.104 227 333 227.895 333 229V232C333 233.105 332.104 234 331 234H195.862C194.758 234 193.862 233.105 193.862 232V229Z" fill="#d6e2fb"/>
<path d="M193.862 229C193.862 227.895 194.758 227 195.862 227H331C332.104 227 333 227.895 333 229V232C333 233.105 332.104 234 331 234H195.862C194.758 234 193.862 233.105 193.862 232V229Z" fill="url(#paint8_linear_182_7964)"/>
<path d="M124 6C124 2.68629 126.686 0 130 0H358C361.314 0 364 2.68629 364 6V132C364 135.314 361.314 138 358 138H130C126.686 138 124 135.314 124 132V6Z" fill="#d6e2fb"/>
<path d="M236 69C236 76.9112 233.654 84.6448 229.259 91.2228C224.864 97.8008 218.616 102.928 211.307 105.955C203.998 108.983 195.956 109.775 188.196 108.231C180.437 106.688 173.31 102.878 167.716 97.2843C162.122 91.6902 158.312 84.5628 156.769 76.8036C155.225 69.0444 156.017 61.0017 159.045 53.6927C162.072 46.3836 167.199 40.1365 173.777 35.7412C180.355 31.346 188.089 29 196 29V46.5857C191.567 46.5857 187.233 47.9003 183.547 50.3632C179.861 52.8261 176.988 56.3267 175.292 60.4224C173.595 64.5181 173.152 69.0249 174.016 73.3728C174.881 77.7207 177.016 81.7146 180.151 84.8493C183.285 87.984 187.279 90.1187 191.627 90.9836C195.975 91.8484 200.482 91.4046 204.578 89.7081C208.673 88.0116 212.174 85.1387 214.637 81.4527C217.1 77.7667 218.414 73.4331 218.414 69H236Z" fill="#c8d8fa"/>
<path d="M196 29C201.253 29 206.454 30.0346 211.307 32.0448C216.16 34.055 220.57 37.0014 224.284 40.7157C227.999 44.4301 230.945 48.8396 232.955 53.6927C234.965 58.5457 236 63.7471 236 69L218.414 69C218.414 66.0565 217.835 63.1419 216.708 60.4224C215.582 57.703 213.931 55.2321 211.849 53.1507C209.768 51.0694 207.297 49.4183 204.578 48.2919C201.858 47.1655 198.943 46.5857 196 46.5857V29Z" fill="#F9FAFB"/>
<path d="M293 29C300.911 29 308.645 31.346 315.223 35.7412C321.801 40.1365 326.928 46.3836 329.955 53.6926C332.983 61.0017 333.775 69.0444 332.231 76.8036C330.688 84.5628 326.878 91.6901 321.284 97.2842C315.69 102.878 308.563 106.688 300.804 108.231C293.044 109.775 285.002 108.983 277.693 105.955C270.384 102.928 264.136 97.8008 259.741 91.2228C255.346 84.6449 253 76.9113 253 69L270.586 69C270.586 73.4331 271.9 77.7667 274.363 81.4527C276.826 85.1387 280.327 88.0116 284.422 89.7081C288.518 91.4046 293.025 91.8484 297.373 90.9836C301.721 90.1187 305.715 87.984 308.849 84.8493C311.984 81.7146 314.119 77.7207 314.984 73.3728C315.848 69.0248 315.405 64.5181 313.708 60.4224C312.012 56.3267 309.139 52.8261 305.453 50.3632C301.767 47.9003 297.433 46.5857 293 46.5857V29Z" fill="#c8d8fa"/>
<path d="M293 109C282.391 109 272.217 104.786 264.716 97.2843C257.214 89.7828 253 79.6087 253 69C253 58.3913 257.214 48.2172 264.716 40.7157C272.217 33.2143 282.391 29 293 29V46.5857C287.055 46.5857 281.354 48.9472 277.151 53.1507C272.947 57.3542 270.586 63.0554 270.586 69C270.586 74.9446 272.947 80.6458 277.151 84.8493C281.354 89.0528 287.055 91.4143 293 91.4143V109Z" fill="#F9FAFB"/>
<path d="M219 434C219 430.686 221.686 428 225 428H234C237.314 428 240 430.686 240 434V478C240 481.314 237.314 484 234 484H225C221.686 484 219 481.314 219 478V434Z" fill="#d6e2fb"/>
<path d="M219 434C219 430.686 221.686 428 225 428H234C237.314 428 240 430.686 240 434V478C240 481.314 237.314 484 234 484H225C221.686 484 219 481.314 219 478V434Z" fill="url(#paint9_linear_182_7964)"/>
<path d="M250 402C250 398.686 252.686 396 256 396H265C268.314 396 271 398.686 271 402V478C271 481.314 268.314 484 265 484H256C252.686 484 250 481.314 250 478V402Z" fill="#d6e2fb"/>
<path d="M250 402C250 398.686 252.686 396 256 396H265C268.314 396 271 398.686 271 402V478C271 481.314 268.314 484 265 484H256C252.686 484 250 481.314 250 478V402Z" fill="url(#paint10_linear_182_7964)"/>
<path d="M281 372C281 368.686 283.686 366 287 366H296C299.314 366 302 368.686 302 372V478C302 481.314 299.314 484 296 484H287C283.686 484 281 481.314 281 478V372Z" fill="#d6e2fb"/>
<path d="M281 372C281 368.686 283.686 366 287 366H296C299.314 366 302 368.686 302 372V478C302 481.314 299.314 484 296 484H287C283.686 484 281 481.314 281 478V372Z" fill="url(#paint11_linear_182_7964)"/>
<path d="M312 347C312 343.686 314.686 341 318 341H327C330.314 341 333 343.686 333 347V478C333 481.314 330.314 484 327 484H318C314.686 484 312 481.314 312 478V347Z" fill="#d6e2fb"/>
<path d="M312 347C312 343.686 314.686 341 318 341H327C330.314 341 333 343.686 333 347V478C333 481.314 330.314 484 327 484H318C314.686 484 312 481.314 312 478V347Z" fill="url(#paint12_linear_182_7964)"/>
<path d="M68.9999 67.5C84.5999 67.5 86.4999 80.8333 85.4999 87.5L59.9999 109.5C41.4999 90 49.4999 67.5 68.9999 67.5Z" fill="#111928"/>
<path d="M36.7958 69.3923C40.5492 76.9319 48.8714 80.4157 55.384 77.1735C61.8966 73.9314 64.1334 65.1911 60.38 57.6516C56.6267 50.112 48.3045 46.6283 41.7919 49.8704C35.2793 53.1125 33.0425 61.8528 36.7958 69.3923Z" fill="#111928"/>
<path d="M66.5 133.5L72 109L62 97.5L53.5 129.5L66.5 133.5Z" fill="#FDBA8C"/>
<path d="M66.5 133.5L72 109L62 97.5L53.5 129.5L66.5 133.5Z" fill="url(#paint13_linear_182_7964)"/>
<path d="M74.5 112.5C81.3 112.1 84.6667 95.6664 85.5 87.4997C75.5 83.9997 69.5 95.9997 67.5 92.9997C65.5 89.9997 59 86.9997 59.5 93.9997C60 101 66 113 74.5 112.5Z" fill="#FDBA8C"/>
<path d="M77.9913 95.6638C77.7648 96.1915 78.009 96.803 78.5368 97.0294C79.0645 97.2559 79.676 97.0117 79.9024 96.4839C80.1289 95.9562 79.8847 95.3447 79.3569 95.1183C78.8292 94.8918 78.2177 95.136 77.9913 95.6638Z" fill="#111928"/>
<path fill-rule="evenodd" clip-rule="evenodd" d="M80.6287 92.4258C81.3325 92.6379 81.8202 93.1013 82.2417 93.6777C82.4048 93.9006 82.7176 93.9491 82.9405 93.7861C83.1634 93.6231 83.2119 93.3102 83.0489 93.0873C82.562 92.4216 81.9124 91.7683 80.9173 91.4683C79.9274 91.17 78.6793 91.2462 77.0414 91.8572C76.7826 91.9537 76.6511 92.2417 76.7476 92.5004C76.8441 92.7591 77.1321 92.8907 77.3908 92.7941C78.9075 92.2284 79.9197 92.2121 80.6287 92.4258Z" fill="#111928"/>
<path fill-rule="evenodd" clip-rule="evenodd" d="M83.0929 96.3466C82.8179 96.322 82.5749 96.525 82.5503 96.8L81.9368 103.652C81.9259 103.774 81.805 103.855 81.6876 103.819L78.8706 102.953C78.6067 102.872 78.3269 103.02 78.2458 103.284C78.1646 103.548 78.3128 103.828 78.5768 103.909L81.3937 104.775C82.1189 104.998 82.8652 104.496 82.9328 103.741L83.5463 96.8892C83.571 96.6141 83.3679 96.3712 83.0929 96.3466Z" fill="#111928"/>
<path fill-rule="evenodd" clip-rule="evenodd" d="M76.0076 106.347C75.2873 105.978 74.7652 105.328 74.4029 104.468C74.2957 104.213 74.0025 104.094 73.748 104.201C73.4935 104.308 73.3741 104.601 73.4813 104.856C73.9063 105.865 74.5643 106.73 75.5509 107.237C76.5383 107.744 77.7838 107.855 79.3118 107.493C79.5805 107.43 79.7467 107.16 79.6831 106.891C79.6195 106.623 79.3501 106.456 79.0814 106.52C77.7151 106.844 76.727 106.717 76.0076 106.347Z" fill="#111928"/>
<path fill-rule="evenodd" clip-rule="evenodd" d="M62.4473 94.8984C62.5909 94.1775 63.0054 93.6475 63.5386 93.1726C63.7448 92.9889 63.7631 92.6729 63.5794 92.4667C63.3957 92.2605 63.0797 92.2422 62.8735 92.4258C62.2576 92.9744 61.6696 93.6837 61.4666 94.703C61.2647 95.717 61.4604 96.952 62.2258 98.5237C62.3467 98.772 62.646 98.8753 62.8943 98.7544C63.1426 98.6334 63.2458 98.3342 63.1249 98.0859C62.4162 96.6306 62.3027 95.6246 62.4473 94.8984Z" fill="#111928"/>
<path d="M69.5 222.829H15L24.5 191H21C25.3333 164.5 39.9 114.829 63.5 126.829C87.1 138.829 77.3333 195.829 69.5 222.829Z" fill="#F9FAFB"/>
<path fill-rule="evenodd" clip-rule="evenodd" d="M15 222.829H69.5C70.7146 218.642 71.9757 213.735 73.1516 208.385L33.5 191.01H24.4971L15 222.829Z" fill="url(#paint14_linear_182_7964)"/>
<path fill-rule="evenodd" clip-rule="evenodd" d="M22.0857 184.993L58.265 184.993L58.265 186.993L21.7021 186.993C21.8246 186.336 21.9525 185.669 22.0857 184.993Z" fill="#c8d8fa"/>
<path fill-rule="evenodd" clip-rule="evenodd" d="M57.9912 192.633L61.9912 162.632L60.0088 162.368L56.0088 192.368L57.9912 192.633Z" fill="#c8d8fa"/>
<path d="M32.5 191H57C87.6667 197.333 150.2 210.5 155 212.5C161 215 165 218 158 220.5C152.4 222.5 142 218.333 137.5 216C122.167 214.333 85.7 210.8 62.5 210C39.3 209.2 32.8333 197 32.5 191Z" fill="#FDBA8C"/>
<path d="M32.5 191H57C87.6667 197.333 150.2 210.5 155 212.5C161 215 165 218 158 220.5C152.4 222.5 142 218.333 137.5 216C122.167 214.333 85.7 210.8 62.5 210C39.3 209.2 32.8333 197 32.5 191Z" fill="url(#paint15_linear_182_7964)"/>
<defs>
<linearGradient id="paint0_linear_182_7964" x1="116.459" y1="420.334" x2="116.459" y2="465.93" gradientUnits="userSpaceOnUse">
<stop stop-color="#c8d8fa"/>
<stop offset="1" stop-color="#c8d8fa" stop-opacity="0"/>
</linearGradient>
<linearGradient id="paint1_linear_182_7964" x1="182" y1="253" x2="58" y2="416" gradientUnits="userSpaceOnUse">
<stop stop-color="#111928"/>
<stop offset="1" stop-color="#111928" stop-opacity="0"/>
</linearGradient>
<linearGradient id="paint2_linear_182_7964" x1="182.996" y1="419.389" x2="182.996" y2="465.726" gradientUnits="userSpaceOnUse">
<stop stop-color="#c8d8fa"/>
<stop offset="1" stop-color="#c8d8fa" stop-opacity="0"/>
</linearGradient>
<linearGradient id="paint3_linear_182_7964" x1="146.931" y1="221.471" x2="146.931" y2="434.162" gradientUnits="userSpaceOnUse">
<stop stop-color="#F9FAFB"/>
<stop offset="1" stop-color="#F9FAFB" stop-opacity="0"/>
</linearGradient>
<linearGradient id="paint4_linear_182_7964" x1="111.238" y1="233.06" x2="114.882" y2="233.201" gradientUnits="userSpaceOnUse">
<stop stop-color="#c8d8fa"/>
<stop offset="1" stop-color="#c8d8fa" stop-opacity="0"/>
</linearGradient>
<linearGradient id="paint5_linear_182_7964" x1="183.016" y1="233.06" x2="186.659" y2="233.201" gradientUnits="userSpaceOnUse">
<stop stop-color="#c8d8fa"/>
<stop offset="1" stop-color="#c8d8fa" stop-opacity="0"/>
</linearGradient>
<linearGradient id="paint6_linear_182_7964" x1="322.153" y1="233.06" x2="325.797" y2="233.201" gradientUnits="userSpaceOnUse">
<stop stop-color="#c8d8fa"/>
<stop offset="1" stop-color="#c8d8fa" stop-opacity="0"/>
</linearGradient>
<linearGradient id="paint7_linear_182_7964" x1="73.1566" y1="219" x2="205.38" y2="239.349" gradientUnits="userSpaceOnUse">
<stop stop-color="#c8d8fa"/>
<stop offset="1" stop-color="#c8d8fa" stop-opacity="0"/>
</linearGradient>
<linearGradient id="paint8_linear_182_7964" x1="158.259" y1="219" x2="330.602" y2="254.178" gradientUnits="userSpaceOnUse">
<stop stop-color="#c8d8fa"/>
<stop offset="1" stop-color="#c8d8fa" stop-opacity="0"/>
</linearGradient>
<linearGradient id="paint9_linear_182_7964" x1="223.93" y1="500.321" x2="204.945" y2="459.614" gradientUnits="userSpaceOnUse">
<stop stop-color="#c8d8fa"/>
<stop offset="1" stop-color="#c8d8fa" stop-opacity="0"/>
</linearGradient>
<linearGradient id="paint10_linear_182_7964" x1="254.93" y1="509.647" x2="217.796" y2="458.981" gradientUnits="userSpaceOnUse">
<stop stop-color="#c8d8fa"/>
<stop offset="1" stop-color="#c8d8fa" stop-opacity="0"/>
</linearGradient>
<linearGradient id="paint11_linear_182_7964" x1="285.93" y1="518.39" x2="233.722" y2="465.267" gradientUnits="userSpaceOnUse">
<stop stop-color="#c8d8fa"/>
<stop offset="1" stop-color="#c8d8fa" stop-opacity="0"/>
</linearGradient>
<linearGradient id="paint12_linear_182_7964" x1="316.93" y1="525.676" x2="254.606" y2="473.347" gradientUnits="userSpaceOnUse">
<stop stop-color="#c8d8fa"/>
<stop offset="1" stop-color="#c8d8fa" stop-opacity="0"/>
</linearGradient>
<linearGradient id="paint13_linear_182_7964" x1="62.849" y1="91.011" x2="62.849" y2="125.815" gradientUnits="userSpaceOnUse">
<stop stop-color="#7F270F"/>
<stop offset="1" stop-color="#7F270F" stop-opacity="0"/>
</linearGradient>
<linearGradient id="paint14_linear_182_7964" x1="63.5" y1="176.01" x2="61.9028" y2="221.989" gradientUnits="userSpaceOnUse">
<stop stop-color="#c8d8fa"/>
<stop offset="1" stop-color="#c8d8fa" stop-opacity="0"/>
</linearGradient>
<linearGradient id="paint15_linear_182_7964" x1="87" y1="91.5" x2="97.7961" y2="214.617" gradientUnits="userSpaceOnUse">
<stop stop-color="#7F270F"/>
<stop offset="1" stop-color="#7F270F" stop-opacity="0"/>
</linearGradient>
</defs>
</svg>