<svg class="w-auto max-w-[16rem] h-40 text-gray-800 dark:text-white" aria-hidden="true" width="749" height="699" viewBox="0 0 749 699" fill="none" xmlns="http://www.w3.org/2000/svg">
<path d="M86.7031 51.9092H671.935V69.5705H86.7031V51.9092Z" fill="#d6e2fb"/>
<path d="M671.935 69.5706H86.7031V501.47H671.935V69.5706Z" fill="#d6e2fb"/>
<path fill-rule="evenodd" clip-rule="evenodd" d="M86.7031 69.5706H671.935V70.3733H86.7031V69.5706Z" fill="#c8d8fa"/>
<path d="M103.772 59.8736C103.772 61.7587 102.244 63.2869 100.359 63.2869C98.4735 63.2869 96.9453 61.7587 96.9453 59.8736C96.9453 57.9884 98.4735 56.4602 100.359 56.4602C102.244 56.4602 103.772 57.9884 103.772 59.8736Z" fill="#F9FAFB"/>
<path d="M116.284 59.8736C116.284 61.7587 114.756 63.2869 112.87 63.2869C110.985 63.2869 109.457 61.7587 109.457 59.8736C109.457 57.9884 110.985 56.4602 112.87 56.4602C114.756 56.4602 116.284 57.9884 116.284 59.8736Z" fill="#F9FAFB"/>
<path d="M128.801 59.8736C128.801 61.7587 127.273 63.2869 125.388 63.2869C123.503 63.2869 121.975 61.7587 121.975 59.8736C121.975 57.9884 123.503 56.4602 125.388 56.4602C127.273 56.4602 128.801 57.9884 128.801 59.8736Z" fill="#F9FAFB"/>
<path d="M111.592 417.177C111.592 416.291 112.311 415.572 113.197 415.572H645.445C646.332 415.572 647.051 416.291 647.051 417.177V478.189C647.051 479.076 646.332 479.795 645.445 479.795H113.197C112.311 479.795 111.592 479.076 111.592 478.189V417.177Z" fill="#F9FAFB"/>
<path d="M124.436 434.036C124.436 433.149 125.154 432.43 126.041 432.43H153.336C154.223 432.43 154.941 433.149 154.941 434.036V461.33C154.941 462.217 154.223 462.936 153.336 462.936H126.041C125.154 462.936 124.436 462.217 124.436 461.33V434.036Z" fill="#c8d8fa"/>
<path d="M170.195 447.683C170.195 446.353 171.274 445.275 172.604 445.275H414.242C415.573 445.275 416.651 446.353 416.651 447.683C416.651 449.013 415.573 450.092 414.242 450.092H172.604C171.274 450.092 170.195 449.013 170.195 447.683Z" fill="#c8d8fa"/>
<path d="M445.551 447.683C445.551 446.353 446.629 445.275 447.959 445.275H628.586C629.916 445.275 630.995 446.353 630.995 447.683C630.995 449.013 629.916 450.092 628.586 450.092H447.959C446.629 450.092 445.551 449.013 445.551 447.683Z" fill="#c8d8fa"/>
<path d="M111.592 336.899C111.592 336.012 112.311 335.293 113.197 335.293H645.445C646.332 335.293 647.051 336.012 647.051 336.899V397.911C647.051 398.797 646.332 399.516 645.445 399.516H113.197C112.311 399.516 111.592 398.797 111.592 397.911V336.899Z" fill="#F9FAFB"/>
<path d="M124.436 353.757C124.436 352.871 125.154 352.152 126.041 352.152H153.336C154.223 352.152 154.941 352.871 154.941 353.757V381.052C154.941 381.939 154.223 382.658 153.336 382.658H126.041C125.154 382.658 124.436 381.939 124.436 381.052V353.757Z" fill="#c8d8fa"/>
<path d="M170.195 367.405C170.195 366.075 171.274 364.996 172.604 364.996H414.242C415.573 364.996 416.651 366.075 416.651 367.405C416.651 368.735 415.573 369.813 414.242 369.813H172.604C171.274 369.813 170.195 368.735 170.195 367.405Z" fill="#c8d8fa"/>
<path d="M445.551 367.405C445.551 366.075 446.629 364.996 447.959 364.996H628.586C629.916 364.996 630.995 366.075 630.995 367.405C630.995 368.735 629.916 369.813 628.586 369.813H447.959C446.629 369.813 445.551 368.735 445.551 367.405Z" fill="#c8d8fa"/>
<path d="M111.592 256.62C111.592 255.733 112.311 255.014 113.197 255.014H645.445C646.332 255.014 647.051 255.733 647.051 256.62V317.632C647.051 318.518 646.332 319.237 645.445 319.237H113.197C112.311 319.237 111.592 318.518 111.592 317.632V256.62Z" fill="#F9FAFB"/>
<path d="M124.436 273.478C124.436 272.591 125.154 271.873 126.041 271.873H153.336C154.223 271.873 154.941 272.591 154.941 273.478V300.773C154.941 301.66 154.223 302.378 153.336 302.378H126.041C125.154 302.378 124.436 301.66 124.436 300.773V273.478Z" fill="#c8d8fa"/>
<path d="M170.195 287.126C170.195 285.796 171.274 284.717 172.604 284.717H414.242C415.573 284.717 416.651 285.796 416.651 287.126C416.651 288.456 415.573 289.534 414.242 289.534H172.604C171.274 289.534 170.195 288.456 170.195 287.126Z" fill="#c8d8fa"/>
<path d="M445.551 287.126C445.551 285.796 446.629 284.717 447.959 284.717H628.586C629.916 284.717 630.995 285.796 630.995 287.126C630.995 288.456 629.916 289.534 628.586 289.534H447.959C446.629 289.534 445.551 288.456 445.551 287.126Z" fill="#c8d8fa"/>
<path d="M111.592 176.341C111.592 175.454 112.311 174.736 113.197 174.736H645.445C646.332 174.736 647.051 175.454 647.051 176.341V237.353C647.051 238.24 646.332 238.959 645.445 238.959H113.197C112.311 238.959 111.592 238.24 111.592 237.353V176.341Z" fill="#F9FAFB"/>
<path d="M124.436 193.2C124.436 192.313 125.154 191.594 126.041 191.594H153.336C154.223 191.594 154.941 192.313 154.941 193.2V220.495C154.941 221.381 154.223 222.1 153.336 222.1H126.041C125.154 222.1 124.436 221.381 124.436 220.495V193.2Z" fill="#c8d8fa"/>
<path d="M170.195 206.847C170.195 205.517 171.274 204.439 172.604 204.439H414.242C415.573 204.439 416.651 205.517 416.651 206.847C416.651 208.177 415.573 209.255 414.242 209.255H172.604C171.274 209.255 170.195 208.177 170.195 206.847Z" fill="#c8d8fa"/>
<path d="M445.551 206.847C445.551 205.517 446.629 204.439 447.959 204.439H628.586C629.916 204.439 630.995 205.517 630.995 206.847C630.995 208.177 629.916 209.255 628.586 209.255H447.959C446.629 209.255 445.551 208.177 445.551 206.847Z" fill="#c8d8fa"/>
<path d="M111.592 96.0626C111.592 95.1759 112.311 94.457 113.197 94.457H645.445C646.332 94.457 647.051 95.1759 647.051 96.0626V157.074C647.051 157.961 646.332 158.68 645.445 158.68H113.197C112.311 158.68 111.592 157.961 111.592 157.074V96.0626Z" fill="#F9FAFB"/>
<path d="M124.436 112.921C124.436 112.034 125.154 111.315 126.041 111.315H153.336C154.223 111.315 154.941 112.034 154.941 112.921V140.216C154.941 141.102 154.223 141.821 153.336 141.821H126.041C125.154 141.821 124.436 141.102 124.436 140.216V112.921Z" fill="#c8d8fa"/>
<path d="M170.195 126.569C170.195 125.238 171.274 124.16 172.604 124.16H414.242C415.573 124.16 416.651 125.238 416.651 126.569C416.651 127.899 415.573 128.977 414.242 128.977H172.604C171.274 128.977 170.195 127.899 170.195 126.569Z" fill="#c8d8fa"/>
<path d="M445.551 126.569C445.551 125.238 446.629 124.16 447.959 124.16H628.586C629.916 124.16 630.995 125.238 630.995 126.569C630.995 127.899 629.916 128.977 628.586 128.977H447.959C446.629 128.977 445.551 127.899 445.551 126.569Z" fill="#c8d8fa"/>
<path d="M504.953 279.097C504.953 278.211 505.672 277.492 506.559 277.492H747.395C748.281 277.492 749 278.211 749 279.097V289.533H504.953V279.097Z" fill="#c8d8fa"/>
<path d="M749 289.533H504.953V411.101C504.953 411.988 505.672 412.707 506.559 412.707H747.395C748.281 412.707 749 411.988 749 411.101V289.533Z" fill="#c8d8fa"/>
<path d="M749 289.533H504.953V411.101C504.953 411.988 505.672 412.707 506.559 412.707H747.395C748.281 412.707 749 411.988 749 411.101V289.533Z" fill="url(#paint0_linear_411_1552)"/>
<path fill-rule="evenodd" clip-rule="evenodd" d="M504.953 289.533H749V290.336H504.953V289.533Z" fill="#d6e2fb"/>
<path d="M516.691 282.969C516.691 284.266 515.64 285.317 514.344 285.317C513.047 285.317 511.996 284.266 511.996 282.969C511.996 281.673 513.047 280.622 514.344 280.622C515.64 280.622 516.691 281.673 516.691 282.969Z" fill="#F9FAFB"/>
<path d="M525.299 282.969C525.299 284.266 524.248 285.317 522.951 285.317C521.655 285.317 520.604 284.266 520.604 282.969C520.604 281.673 521.655 280.622 522.951 280.622C524.248 280.622 525.299 281.673 525.299 282.969Z" fill="#F9FAFB"/>
<path d="M533.908 282.969C533.908 284.266 532.857 285.317 531.561 285.317C530.264 285.317 529.213 284.266 529.213 282.969C529.213 281.673 530.264 280.622 531.561 280.622C532.857 280.622 533.908 281.673 533.908 282.969Z" fill="#F9FAFB"/>
<path d="M516.691 307.937C516.691 309.234 515.64 310.285 514.344 310.285C513.047 310.285 511.996 309.234 511.996 307.937C511.996 306.64 513.047 305.589 514.344 305.589C515.64 305.589 516.691 306.64 516.691 307.937Z" fill="#d6e2fb"/>
<path d="M525.023 307.998C525.023 306.668 526.102 305.59 527.432 305.59H579.613C580.943 305.59 582.021 306.668 582.021 307.998C582.021 309.328 580.943 310.406 579.613 310.406H527.432C526.102 310.406 525.023 309.328 525.023 307.998Z" fill="#d6e2fb"/>
<path d="M590.049 307.998C590.049 306.668 591.127 305.59 592.457 305.59H669.525C670.855 305.59 671.933 306.668 671.933 307.998C671.933 309.328 670.855 310.406 669.525 310.406H592.457C591.127 310.406 590.049 309.328 590.049 307.998Z" fill="#d6e2fb"/>
<path d="M516.691 323.993C516.691 325.289 515.64 326.341 514.344 326.341C513.047 326.341 511.996 325.289 511.996 323.993C511.996 322.696 513.047 321.645 514.344 321.645C515.64 321.645 516.691 322.696 516.691 323.993Z" fill="#d6e2fb"/>
<path d="M541.078 324.054C541.078 322.724 542.156 321.645 543.486 321.645H595.668C596.998 321.645 598.076 322.724 598.076 324.054C598.076 325.384 596.998 326.462 595.668 326.462H543.486C542.156 326.462 541.078 325.384 541.078 324.054Z" fill="#d6e2fb"/>
<path d="M606.104 324.054C606.104 322.724 607.182 321.645 608.512 321.645H643.834C645.165 321.645 646.243 322.724 646.243 324.054C646.243 325.384 645.165 326.462 643.834 326.462H608.512C607.182 326.462 606.104 325.384 606.104 324.054Z" fill="#d6e2fb"/>
<path d="M516.691 340.049C516.691 341.345 515.64 342.396 514.344 342.396C513.047 342.396 511.996 341.345 511.996 340.049C511.996 338.752 513.047 337.701 514.344 337.701C515.64 337.701 516.691 338.752 516.691 340.049Z" fill="#d6e2fb"/>
<path d="M525.023 340.109C525.023 338.779 526.102 337.701 527.432 337.701H579.613C580.943 337.701 582.021 338.779 582.021 340.109C582.021 341.439 580.943 342.518 579.613 342.518H527.432C526.102 342.518 525.023 341.439 525.023 340.109Z" fill="#d6e2fb"/>
<path d="M590.049 340.109C590.049 338.779 591.127 337.701 592.457 337.701H669.525C670.855 337.701 671.933 338.779 671.933 340.109C671.933 341.439 670.855 342.518 669.525 342.518H592.457C591.127 342.518 590.049 341.439 590.049 340.109Z" fill="#d6e2fb"/>
<path d="M516.691 356.104C516.691 357.401 515.64 358.452 514.344 358.452C513.047 358.452 511.996 357.401 511.996 356.104C511.996 354.808 513.047 353.757 514.344 353.757C515.64 353.757 516.691 354.808 516.691 356.104Z" fill="#d6e2fb"/>
<path d="M541.078 356.165C541.078 354.835 542.156 353.757 543.486 353.757H625.371C626.701 353.757 627.779 354.835 627.779 356.165C627.779 357.495 626.701 358.573 625.371 358.573H543.486C542.156 358.573 541.078 357.495 541.078 356.165Z" fill="#d6e2fb"/>
<path d="M516.691 372.16C516.691 373.457 515.64 374.508 514.344 374.508C513.047 374.508 511.996 373.457 511.996 372.16C511.996 370.864 513.047 369.812 514.344 369.812C515.64 369.812 516.691 370.864 516.691 372.16Z" fill="#d6e2fb"/>
<path d="M541.078 372.221C541.078 370.891 542.156 369.812 543.486 369.812H621.357C622.687 369.812 623.765 370.891 623.765 372.221C623.765 373.551 622.687 374.629 621.357 374.629H543.486C542.156 374.629 541.078 373.551 541.078 372.221Z" fill="#d6e2fb"/>
<path d="M631.793 372.221C631.793 370.891 632.871 369.812 634.201 369.812H645.44C646.77 369.812 647.849 370.891 647.849 372.221C647.849 373.551 646.77 374.629 645.44 374.629H634.201C632.871 374.629 631.793 373.551 631.793 372.221Z" fill="#d6e2fb"/>
<path d="M516.691 388.216C516.691 389.512 515.64 390.563 514.344 390.563C513.047 390.563 511.996 389.512 511.996 388.216C511.996 386.919 513.047 385.868 514.344 385.868C515.64 385.868 516.691 386.919 516.691 388.216Z" fill="#d6e2fb"/>
<path d="M525.023 388.277C525.023 386.946 526.102 385.868 527.432 385.868H579.613C580.943 385.868 582.021 386.946 582.021 388.277C582.021 389.607 580.943 390.685 579.613 390.685H527.432C526.102 390.685 525.023 389.607 525.023 388.277Z" fill="#d6e2fb"/>
<path d="M590.049 388.277C590.049 386.946 591.127 385.868 592.457 385.868H669.525C670.855 385.868 671.933 386.946 671.933 388.277C671.933 389.607 670.855 390.685 669.525 390.685H592.457C591.127 390.685 590.049 389.607 590.049 388.277Z" fill="#d6e2fb"/>
<path d="M468.824 2.13585C468.824 1.24911 469.543 0.530273 470.43 0.530273H711.266C712.153 0.530273 712.871 1.24911 712.871 2.13585V12.5721H468.824V2.13585Z" fill="#c8d8fa"/>
<path d="M712.871 12.572H468.824V134.14C468.824 135.026 469.543 135.745 470.43 135.745H711.266C712.153 135.745 712.871 135.026 712.871 134.14V12.572Z" fill="#c8d8fa"/>
<path d="M712.871 12.572H468.824V134.14C468.824 135.026 469.543 135.745 470.43 135.745H711.266C712.153 135.745 712.871 135.026 712.871 134.14V12.572Z" fill="url(#paint1_linear_411_1552)"/>
<path fill-rule="evenodd" clip-rule="evenodd" d="M468.824 12.572H712.871V13.3748H468.824V12.572Z" fill="#d6e2fb"/>
<path d="M480.562 6.00805C480.562 7.30461 479.511 8.35569 478.215 8.35569C476.918 8.35569 475.867 7.30461 475.867 6.00805C475.867 4.71148 476.918 3.6604 478.215 3.6604C479.511 3.6604 480.562 4.71148 480.562 6.00805Z" fill="#F9FAFB"/>
<path d="M489.17 6.00805C489.17 7.30461 488.119 8.35569 486.822 8.35569C485.526 8.35569 484.475 7.30461 484.475 6.00805C484.475 4.71148 485.526 3.6604 486.822 3.6604C488.119 3.6604 489.17 4.71148 489.17 6.00805Z" fill="#F9FAFB"/>
<path d="M497.779 6.00805C497.779 7.30461 496.728 8.35569 495.432 8.35569C494.135 8.35569 493.084 7.30461 493.084 6.00805C493.084 4.71148 494.135 3.6604 495.432 3.6604C496.728 3.6604 497.779 4.71148 497.779 6.00805Z" fill="#F9FAFB"/>
<path d="M480.562 30.9758C480.562 32.2724 479.511 33.3235 478.215 33.3235C476.918 33.3235 475.867 32.2724 475.867 30.9758C475.867 29.6793 476.918 28.6282 478.215 28.6282C479.511 28.6282 480.562 29.6793 480.562 30.9758Z" fill="#d6e2fb"/>
<path d="M488.895 31.0365C488.895 29.7064 489.973 28.6282 491.303 28.6282H543.484C544.814 28.6282 545.892 29.7064 545.892 31.0365C545.892 32.3666 544.814 33.4449 543.484 33.4449H491.303C489.973 33.4449 488.895 32.3666 488.895 31.0365Z" fill="#d6e2fb"/>
<path d="M553.92 31.0365C553.92 29.7064 554.998 28.6282 556.328 28.6282H633.396C634.726 28.6282 635.804 29.7064 635.804 31.0365C635.804 32.3666 634.726 33.4449 633.396 33.4449H556.328C554.998 33.4449 553.92 32.3666 553.92 31.0365Z" fill="#d6e2fb"/>
<path d="M480.562 47.0315C480.562 48.3281 479.511 49.3791 478.215 49.3791C476.918 49.3791 475.867 48.3281 475.867 47.0315C475.867 45.7349 476.918 44.6838 478.215 44.6838C479.511 44.6838 480.562 45.7349 480.562 47.0315Z" fill="#d6e2fb"/>
<path d="M504.949 47.0922C504.949 45.7621 506.027 44.6838 507.358 44.6838H559.539C560.869 44.6838 561.947 45.7621 561.947 47.0922C561.947 48.4223 560.869 49.5006 559.539 49.5006H507.358C506.027 49.5006 504.949 48.4223 504.949 47.0922Z" fill="#d6e2fb"/>
<path d="M569.975 47.0922C569.975 45.7621 571.053 44.6838 572.383 44.6838H607.706C609.036 44.6838 610.114 45.7621 610.114 47.0922C610.114 48.4223 609.036 49.5006 607.706 49.5006H572.383C571.053 49.5006 569.975 48.4223 569.975 47.0922Z" fill="#d6e2fb"/>
<path d="M480.562 63.0874C480.562 64.384 479.511 65.435 478.215 65.435C476.918 65.435 475.867 64.384 475.867 63.0874C475.867 61.7908 476.918 60.7397 478.215 60.7397C479.511 60.7397 480.562 61.7908 480.562 63.0874Z" fill="#d6e2fb"/>
<path d="M488.895 63.1481C488.895 61.818 489.973 60.7397 491.303 60.7397H543.484C544.814 60.7397 545.892 61.818 545.892 63.1481C545.892 64.4782 544.814 65.5565 543.484 65.5565H491.303C489.973 65.5565 488.895 64.4782 488.895 63.1481Z" fill="#d6e2fb"/>
<path d="M553.92 63.1481C553.92 61.818 554.998 60.7397 556.328 60.7397H633.396C634.726 60.7397 635.804 61.818 635.804 63.1481C635.804 64.4782 634.726 65.5565 633.396 65.5565H556.328C554.998 65.5565 553.92 64.4782 553.92 63.1481Z" fill="#d6e2fb"/>
<path d="M480.562 79.1431C480.562 80.4396 479.511 81.4907 478.215 81.4907C476.918 81.4907 475.867 80.4396 475.867 79.1431C475.867 77.8465 476.918 76.7954 478.215 76.7954C479.511 76.7954 480.562 77.8465 480.562 79.1431Z" fill="#d6e2fb"/>
<path d="M504.949 79.2038C504.949 77.8737 506.027 76.7954 507.358 76.7954H589.242C590.572 76.7954 591.65 77.8737 591.65 79.2038C591.65 80.5339 590.572 81.6121 589.242 81.6121H507.358C506.027 81.6121 504.949 80.5339 504.949 79.2038Z" fill="#d6e2fb"/>
<path d="M480.562 95.1987C480.562 96.4953 479.511 97.5464 478.215 97.5464C476.918 97.5464 475.867 96.4953 475.867 95.1987C475.867 93.9022 476.918 92.8511 478.215 92.8511C479.511 92.8511 480.562 93.9022 480.562 95.1987Z" fill="#d6e2fb"/>
<path d="M504.949 95.2594C504.949 93.9293 506.027 92.8511 507.358 92.8511H585.228C586.558 92.8511 587.636 93.9293 587.636 95.2594C587.636 96.5895 586.558 97.6678 585.228 97.6678H507.358C506.027 97.6678 504.949 96.5895 504.949 95.2594Z" fill="#d6e2fb"/>
<path d="M595.664 95.2594C595.664 93.9293 596.742 92.8511 598.072 92.8511H609.311C610.642 92.8511 611.72 93.9293 611.72 95.2594C611.72 96.5895 610.642 97.6678 609.311 97.6678H598.072C596.742 97.6678 595.664 96.5895 595.664 95.2594Z" fill="#d6e2fb"/>
<path d="M480.562 111.254C480.562 112.551 479.511 113.602 478.215 113.602C476.918 113.602 475.867 112.551 475.867 111.254C475.867 109.958 476.918 108.907 478.215 108.907C479.511 108.907 480.562 109.958 480.562 111.254Z" fill="#d6e2fb"/>
<path d="M488.895 111.315C488.895 109.985 489.973 108.907 491.303 108.907H543.484C544.814 108.907 545.892 109.985 545.892 111.315C545.892 112.645 544.814 113.723 543.484 113.723H491.303C489.973 113.723 488.895 112.645 488.895 111.315Z" fill="#d6e2fb"/>
<path d="M553.92 111.315C553.92 109.985 554.998 108.907 556.328 108.907H633.396C634.726 108.907 635.804 109.985 635.804 111.315C635.804 112.645 634.726 113.723 633.396 113.723H556.328C554.998 113.723 553.92 112.645 553.92 111.315Z" fill="#d6e2fb"/>
<path d="M0 100.105C0 99.2184 0.71884 98.4995 1.60557 98.4995H353.226C354.113 98.4995 354.832 99.2184 354.832 100.105V116.008H0V100.105Z" fill="#c8d8fa"/>
<path d="M354.832 116.008H0V293.489C0 294.376 0.71884 295.095 1.60557 295.095H353.226C354.113 295.095 354.832 294.376 354.832 293.489V116.008Z" fill="#c8d8fa"/>
<path d="M354.832 116.008H0V293.489C0 294.376 0.71884 295.095 1.60557 295.095H353.226C354.113 295.095 354.832 294.376 354.832 293.489V116.008Z" fill="url(#paint2_linear_411_1552)"/>
<path fill-rule="evenodd" clip-rule="evenodd" d="M0 116.008H354.832V117.175H0V116.008Z" fill="#d6e2fb"/>
<path d="M17.0689 106.464C17.0689 108.349 15.5407 109.877 13.6555 109.877C11.7704 109.877 10.2422 108.349 10.2422 106.464C10.2422 104.579 11.7704 103.051 13.6555 103.051C15.5407 103.051 17.0689 104.579 17.0689 106.464Z" fill="#F9FAFB"/>
<path d="M29.5806 106.464C29.5806 108.349 28.0524 109.877 26.1673 109.877C24.2821 109.877 22.7539 108.349 22.7539 106.464C22.7539 104.579 24.2821 103.051 26.1673 103.051C28.0524 103.051 29.5806 104.579 29.5806 106.464Z" fill="#F9FAFB"/>
<path d="M42.0982 106.464C42.0982 108.349 40.57 109.877 38.6848 109.877C36.7997 109.877 35.2715 108.349 35.2715 106.464C35.2715 104.579 36.7997 103.051 38.6848 103.051C40.57 103.051 42.0982 104.579 42.0982 106.464Z" fill="#F9FAFB"/>
<path d="M17.0689 142.765C17.0689 144.65 15.5407 146.178 13.6555 146.178C11.7704 146.178 10.2422 144.65 10.2422 142.765C10.2422 140.88 11.7704 139.352 13.6555 139.352C15.5407 139.352 17.0689 140.88 17.0689 142.765Z" fill="#d6e2fb"/>
<path d="M29.1797 142.853C29.1797 140.919 30.7474 139.352 32.6813 139.352H108.55C110.484 139.352 112.052 140.919 112.052 142.853C112.052 144.787 110.484 146.355 108.55 146.355H32.6813C30.7474 146.355 29.1797 144.787 29.1797 142.853Z" fill="#d6e2fb"/>
<path d="M123.723 142.853C123.723 140.919 125.29 139.352 127.224 139.352H239.276C241.21 139.352 242.778 140.919 242.778 142.853C242.778 144.787 241.21 146.355 239.276 146.355H127.224C125.29 146.355 123.723 144.787 123.723 142.853Z" fill="#d6e2fb"/>
<path d="M17.0689 166.109C17.0689 167.994 15.5407 169.523 13.6555 169.523C11.7704 169.523 10.2422 167.994 10.2422 166.109C10.2422 164.224 11.7704 162.696 13.6555 162.696C15.5407 162.696 17.0689 164.224 17.0689 166.109Z" fill="#d6e2fb"/>
<path d="M52.5273 166.197C52.5273 164.264 54.0951 162.696 56.029 162.696H131.898C133.831 162.696 135.399 164.264 135.399 166.197C135.399 168.131 133.831 169.699 131.898 169.699H56.029C54.0951 169.699 52.5273 168.131 52.5273 166.197Z" fill="#d6e2fb"/>
<path d="M147.066 166.197C147.066 164.264 148.634 162.696 150.568 162.696H201.925C203.859 162.696 205.427 164.264 205.427 166.197C205.427 168.131 203.859 169.699 201.925 169.699H150.568C148.634 169.699 147.066 168.131 147.066 166.197Z" fill="#d6e2fb"/>
<path d="M17.0689 189.454C17.0689 191.339 15.5407 192.867 13.6555 192.867C11.7704 192.867 10.2422 191.339 10.2422 189.454C10.2422 187.568 11.7704 186.04 13.6555 186.04C15.5407 186.04 17.0689 187.568 17.0689 189.454Z" fill="#d6e2fb"/>
<path d="M29.1797 189.542C29.1797 187.608 30.7474 186.04 32.6813 186.04H108.55C110.484 186.04 112.052 187.608 112.052 189.542C112.052 191.476 110.484 193.044 108.55 193.044H32.6813C30.7474 193.044 29.1797 191.476 29.1797 189.542Z" fill="#d6e2fb"/>
<path d="M123.723 189.542C123.723 187.608 125.29 186.04 127.224 186.04H239.276C241.21 186.04 242.778 187.608 242.778 189.542C242.778 191.476 241.21 193.044 239.276 193.044H127.224C125.29 193.044 123.723 191.476 123.723 189.542Z" fill="#d6e2fb"/>
<path d="M17.0689 212.797C17.0689 214.683 15.5407 216.211 13.6555 216.211C11.7704 216.211 10.2422 214.683 10.2422 212.797C10.2422 210.912 11.7704 209.384 13.6555 209.384C15.5407 209.384 17.0689 210.912 17.0689 212.797Z" fill="#d6e2fb"/>
<path d="M52.5273 212.886C52.5273 210.952 54.0951 209.384 56.029 209.384H175.084C177.018 209.384 178.586 210.952 178.586 212.886C178.586 214.82 177.018 216.387 175.084 216.387H56.029C54.0951 216.387 52.5273 214.82 52.5273 212.886Z" fill="#d6e2fb"/>
<path d="M17.0689 236.142C17.0689 238.027 15.5407 239.555 13.6555 239.555C11.7704 239.555 10.2422 238.027 10.2422 236.142C10.2422 234.257 11.7704 232.729 13.6555 232.729C15.5407 232.729 17.0689 234.257 17.0689 236.142Z" fill="#d6e2fb"/>
<path d="M52.5273 236.23C52.5273 234.296 54.0951 232.729 56.029 232.729H169.248C171.182 232.729 172.75 234.296 172.75 236.23C172.75 238.164 171.182 239.732 169.248 239.732H56.029C54.0951 239.732 52.5273 238.164 52.5273 236.23Z" fill="#d6e2fb"/>
<path d="M184.418 236.23C184.418 234.296 185.986 232.729 187.92 232.729H204.261C206.194 232.729 207.762 234.296 207.762 236.23C207.762 238.164 206.194 239.732 204.261 239.732H187.92C185.986 239.732 184.418 238.164 184.418 236.23Z" fill="#d6e2fb"/>
<path d="M17.0689 259.486C17.0689 261.371 15.5407 262.899 13.6555 262.899C11.7704 262.899 10.2422 261.371 10.2422 259.486C10.2422 257.6 11.7704 256.072 13.6555 256.072C15.5407 256.072 17.0689 257.6 17.0689 259.486Z" fill="#d6e2fb"/>
<path d="M29.1797 259.574C29.1797 257.64 30.7474 256.072 32.6813 256.072H108.55C110.484 256.072 112.052 257.64 112.052 259.574C112.052 261.508 110.484 263.076 108.55 263.076H32.6813C30.7474 263.076 29.1797 261.508 29.1797 259.574Z" fill="#d6e2fb"/>
<path d="M123.723 259.574C123.723 257.64 125.29 256.072 127.224 256.072H239.276C241.21 256.072 242.778 257.64 242.778 259.574C242.778 261.508 241.21 263.076 239.276 263.076H127.224C125.29 263.076 123.723 261.508 123.723 259.574Z" fill="#d6e2fb"/>
<path d="M494.578 692.751H428V696.857C428 697.976 428.908 698.884 430.027 698.884H492.552C493.671 698.884 494.578 697.976 494.578 696.857V692.751Z" fill="#2563eb"/>
<path d="M494.578 692.751L488.446 648.95L463.041 638.876C465.523 650.264 461.727 673.917 449.463 677.421C432.943 682.141 428.146 689.101 428 692.751H494.578Z" fill="#d6e2fb"/>
<path d="M494.578 692.751L488.446 648.95L463.041 638.876C465.523 650.264 461.727 673.917 449.463 677.421C432.943 682.141 428.146 689.101 428 692.751H494.578Z" fill="url(#paint3_linear_411_1552)"/>
<path fill-rule="evenodd" clip-rule="evenodd" d="M440.526 680.646C439.847 680.955 439.202 681.267 438.588 681.582C440.783 683.692 444.344 685.953 449.094 686.285C455.317 686.72 480.422 686.496 493.676 686.312L493.396 684.315C480.042 684.499 455.316 684.715 449.234 684.29C445.411 684.023 442.462 682.327 440.526 680.646Z" fill="#c8d8fa"/>
<path d="M391.576 692.751H324.999V696.857C324.999 697.976 325.906 698.884 327.025 698.884H389.55C390.669 698.884 391.576 697.976 391.576 696.857V692.751Z" fill="#2563eb"/>
<path d="M396.832 638L391.576 692.751H324.998C326.75 684.429 331.13 684.867 351.717 675.669C368.186 668.31 372.303 647.49 372.303 638H396.832Z" fill="#d6e2fb"/>
<path d="M396.832 638L391.576 692.751H324.998C326.75 684.429 331.13 684.867 351.717 675.669C368.186 668.31 372.303 647.49 372.303 638H396.832Z" fill="url(#paint4_linear_411_1552)"/>
<path fill-rule="evenodd" clip-rule="evenodd" d="M340.872 680.315C342.793 682.098 345.874 684.005 349.949 684.29C355.777 684.697 378.727 684.516 392.383 684.338L392.191 686.341C378.532 686.518 355.703 686.697 349.809 686.285C344.729 685.93 341.01 683.369 338.866 681.146C339.225 680.997 339.593 680.845 339.971 680.688C340.265 680.566 340.565 680.442 340.872 680.315Z" fill="#c8d8fa"/>
<path d="M365 324.5L377 304.5L396.5 311.5C391.5 319.333 380 335.7 374 338.5C368 341.3 336.833 346.667 322 349H301.5C301.5 348.333 303 346.1 309 342.5C315 338.9 348.833 329 365 324.5Z" fill="#FDBA8C"/>
<path d="M365 324.5L377 304.5L396.5 311.5C391.5 319.333 380 335.7 374 338.5C368 341.3 336.833 346.667 322 349H301.5C301.5 348.333 303 346.1 309 342.5C315 338.9 348.833 329 365 324.5Z" fill="url(#paint5_linear_411_1552)"/>
<path d="M449 193C448.6 201.4 436.5 214.833 430.5 220.5L413 190.5C408 190.167 398 187.5 398 179.5C398 169.5 405 168.5 413 169.5C421 170.5 419 167 428 167C437 167 435 178.5 441 179.5C447 180.5 449.5 182.5 449 193Z" fill="#111928"/>
<path d="M421.5 237L419 207.5L427.5 200.5L440.5 233L421.5 237Z" fill="#FDBA8C"/>
<path d="M421.5 237L419 207.5L427.5 200.5L440.5 233L421.5 237Z" fill="url(#paint6_linear_411_1552)"/>
<path d="M421.001 216C411.264 217.168 408.006 197.892 407.533 187.337C407.509 186.8 407.719 186.264 408.109 185.893C419.283 175.238 427.054 195.5 430.001 195.5C433.001 195.5 435.501 191.5 437.001 194.5C438.501 197.5 433.501 214.5 421.001 216Z" fill="#FDBA8C"/>
<path d="M416.517 196.201C416.74 196.848 416.397 197.553 415.751 197.777C415.104 198.001 414.398 197.658 414.175 197.011C413.951 196.364 414.294 195.659 414.941 195.435C415.587 195.211 416.293 195.554 416.517 196.201Z" fill="#111928"/>
<path fill-rule="evenodd" clip-rule="evenodd" d="M413.649 192.224C412.825 192.52 412.274 193.102 411.808 193.814C411.628 194.09 411.259 194.167 410.983 193.987C410.708 193.807 410.631 193.438 410.811 193.162C411.348 192.34 412.08 191.522 413.246 191.102C414.405 190.685 415.895 190.698 417.882 191.322C418.196 191.421 418.371 191.755 418.272 192.069C418.174 192.383 417.839 192.558 417.525 192.459C415.685 191.881 414.479 191.925 413.649 192.224Z" fill="#111928"/>
<path fill-rule="evenodd" clip-rule="evenodd" d="M410.394 196.572C410.723 196.566 410.994 196.829 410.999 197.158L411.138 205.354C411.14 205.5 411.277 205.607 411.42 205.574L414.842 204.788C415.163 204.714 415.483 204.914 415.556 205.235C415.63 205.556 415.43 205.876 415.109 205.949L411.686 206.736C410.805 206.938 409.962 206.278 409.946 205.374L409.808 197.178C409.802 196.849 410.065 196.577 410.394 196.572Z" fill="#111928"/>
<path fill-rule="evenodd" clip-rule="evenodd" d="M416.818 209.395C417.425 208.94 418 208.349 418.862 207.42C419.086 207.178 419.463 207.164 419.704 207.388C419.945 207.612 419.959 207.989 419.736 208.23C418.881 209.151 418.238 209.82 417.532 210.348C416.813 210.887 416.051 211.265 414.968 211.651C414.658 211.761 414.317 211.599 414.207 211.289C414.097 210.979 414.258 210.638 414.568 210.528C415.579 210.169 416.224 209.84 416.818 209.395Z" fill="#111928"/>
<path fill-rule="evenodd" clip-rule="evenodd" d="M434.356 198.943C434.558 198.091 434.373 197.311 434.032 196.532C433.9 196.23 434.037 195.879 434.338 195.747C434.64 195.615 434.991 195.752 435.123 196.054C435.517 196.954 435.802 198.014 435.515 199.219C435.23 200.418 434.404 201.658 432.794 202.98C432.539 203.188 432.164 203.152 431.955 202.897C431.746 202.643 431.783 202.267 432.038 202.059C433.528 200.835 434.151 199.802 434.356 198.943Z" fill="#111928"/>
<path d="M450 662.5L430 487L406 662.5H356.5L403 349H467L499.5 662.5H450Z" fill="#2563eb"/>
<path d="M450 662.5L430 487L406 662.5H356.5L403 349H467L499.5 662.5H450Z" fill="url(#paint7_linear_411_1552)"/>
<path fill-rule="evenodd" clip-rule="evenodd" d="M459.099 369.986C448.412 369.647 441.425 363.355 439.174 360.065L440.824 358.935C442.844 361.887 449.593 368 459.999 368H460.898L490.758 648.182C490.947 649.955 489.557 651.5 487.775 651.5H448.499V649.5H487.775C488.369 649.5 488.832 648.985 488.769 648.394L459.099 369.986Z" fill="#9ab7f6"/>
<path fill-rule="evenodd" clip-rule="evenodd" d="M400.001 370C411.195 370 418.513 363.446 420.826 360.065L419.176 358.935C417.156 361.887 410.407 368 400.001 368V370Z" fill="#9ab7f6"/>
<path d="M396.5 319.5L372 305C394.5 244.5 416 231.5 428.5 229.5C441 227.5 469 231 475 252C479.8 268.8 474.333 286 471 292.5V350.5C471 351.605 470.105 352.5 469 352.5H400.854C399.808 352.5 398.939 351.694 398.86 350.651L396.5 319.5Z" fill="#F9FAFB"/>
<path d="M396.5 319.5L372 305C394.5 244.5 416 231.5 428.5 229.5C441 227.5 469 231 475 252C479.8 268.8 474.333 286 471 292.5V350.5C471 351.605 470.105 352.5 469 352.5H400.854C399.808 352.5 398.939 351.694 398.86 350.651L396.5 319.5Z" fill="url(#paint8_linear_411_1552)"/>
<path fill-rule="evenodd" clip-rule="evenodd" d="M443.418 265.394L425.418 307.394L423.58 306.606L441.58 264.606L443.418 265.394Z" fill="#9ab7f6"/>
<path fill-rule="evenodd" clip-rule="evenodd" d="M372 305L396.5 319.5L391.5 263L391.38 263.033C385.142 273.536 378.614 287.216 372 305Z" fill="url(#paint9_linear_411_1552)"/>
<path fill-rule="evenodd" clip-rule="evenodd" d="M470.999 292.5C464.599 303.3 454.665 315 450.499 319.5L435.999 312.5L434.499 314.5L440.999 319.5L397.863 337.513L398.859 350.651C398.938 351.694 399.807 352.5 400.853 352.5H468.999C470.103 352.5 470.999 351.605 470.999 350.5V292.5Z" fill="url(#paint10_linear_411_1552)"/>
<path d="M358 340.5C346.8 341.7 342 346.667 341 349H368.5C371.833 349 385 347.3 411 340.5C437 333.7 446.833 323 448.5 318.5L428 308.5L422 317.5C405 324.333 369.2 339.3 358 340.5Z" fill="#FDBA8C"/>
<path d="M358 340.5C346.8 341.7 342 346.667 341 349H368.5C371.833 349 385 347.3 411 340.5C437 333.7 446.833 323 448.5 318.5L428 308.5L422 317.5C405 324.333 369.2 339.3 358 340.5Z" fill="url(#paint11_linear_411_1552)"/>
<path d="M388 357H334V699H388V357Z" fill="url(#paint12_linear_411_1552)"/>
<path fill-rule="evenodd" clip-rule="evenodd" d="M387 699L387 359L389 359L389 699L387 699Z" fill="#d6e2fb"/>
<path fill-rule="evenodd" clip-rule="evenodd" d="M387 699L387 359L389 359L389 699L387 699Z" fill="url(#paint13_linear_411_1552)"/>
<path d="M228 357H334V699H228V357Z" fill="url(#paint14_linear_411_1552)"/>
<path d="M223 354C223 352.895 223.895 352 225 352H391C392.105 352 393 352.895 393 354V357C393 358.105 392.105 359 391 359H225C223.895 359 223 358.105 223 357V354Z" fill="#d6e2fb"/>
<path d="M223 354C223 352.895 223.895 352 225 352H391C392.105 352 393 352.895 393 354V357C393 358.105 392.105 359 391 359H225C223.895 359 223 358.105 223 357V354Z" fill="url(#paint15_linear_411_1552)"/>
<path fill-rule="evenodd" clip-rule="evenodd" d="M333 699L333 359L335 359L335 699L333 699Z" fill="#d6e2fb"/>
<path fill-rule="evenodd" clip-rule="evenodd" d="M333 699L333 359L335 359L335 699L333 699Z" fill="url(#paint16_linear_411_1552)"/>
<path fill-rule="evenodd" clip-rule="evenodd" d="M227 699L227 359L229 359L229 699L227 699Z" fill="#d6e2fb"/>
<path fill-rule="evenodd" clip-rule="evenodd" d="M227 699L227 359L229 359L229 699L227 699Z" fill="url(#paint17_linear_411_1552)"/>
<path d="M330 354C330 352.895 330.895 352 332 352H391C392.105 352 393 352.895 393 354V357C393 358.105 392.105 359 391 359H332C330.895 359 330 358.105 330 357V354Z" fill="#d6e2fb"/>
<path d="M330 354C330 352.895 330.895 352 332 352H391C392.105 352 393 352.895 393 354V357C393 358.105 392.105 359 391 359H332C330.895 359 330 358.105 330 357V354Z" fill="url(#paint18_linear_411_1552)"/>
<path d="M243.727 302.549C243.362 301.272 244.321 300 245.65 300H314.49C315.383 300 316.167 300.592 316.413 301.451L329.998 349H256.998L243.727 302.549Z" fill="#2563eb"/>
<path d="M329.998 349H372.498C373.326 349 373.998 349.672 373.998 350.5C373.998 351.328 373.326 352 372.498 352H329.998V349Z" fill="#111928"/>
<path d="M329.998 349H256.998V350C256.998 351.105 257.893 352 258.998 352H329.998V349Z" fill="#111928"/>
<path d="M289.806 324.889C290.253 326.485 289.271 327.778 287.615 327.778C285.958 327.778 284.253 326.485 283.806 324.889C283.36 323.293 284.341 322 285.998 322C287.655 322 289.36 323.293 289.806 324.889Z" fill="#d6e2fb"/>
<path fill-rule="evenodd" clip-rule="evenodd" d="M162.698 479.891C162.698 482.233 162.272 484.476 161.492 486.546C160.844 488.268 161.288 490.285 162.694 491.472C169.056 496.844 173.097 504.88 173.097 513.859C173.097 517.037 172.591 520.096 171.655 522.961C171.169 524.448 171.578 526.105 172.741 527.152C181.472 535.019 186.961 546.415 186.961 559.093C186.961 582.83 167.718 602.074 143.981 602.074C120.243 602.074 101 582.83 101 559.093C101 546.533 106.387 535.232 114.977 527.373C116.131 526.317 116.528 524.657 116.03 523.174C115.049 520.248 114.518 517.116 114.518 513.859C114.518 504.88 118.559 496.844 124.921 491.472C126.327 490.285 126.771 488.268 126.122 486.546C125.343 484.476 124.917 482.233 124.917 479.891C124.917 469.458 133.374 461 143.807 461C154.24 461 162.698 469.458 162.698 479.891Z" fill="#d6e2fb"/>
<path fill-rule="evenodd" clip-rule="evenodd" d="M143.635 478.717C144.187 478.717 144.635 479.165 144.635 479.717L144.635 645.747C144.635 646.3 144.187 646.747 143.635 646.747C143.082 646.747 142.635 646.3 142.635 645.747L142.635 479.717C142.635 479.165 143.082 478.717 143.635 478.717Z" fill="#9ab7f6"/>
<path fill-rule="evenodd" clip-rule="evenodd" d="M163.279 553.774C163.728 554.095 163.832 554.719 163.511 555.169L144.447 581.858C144.126 582.308 143.502 582.412 143.052 582.091C142.603 581.77 142.499 581.145 142.82 580.696L161.884 554.006C162.205 553.557 162.829 553.453 163.279 553.774Z" fill="#9ab7f6"/>
<path fill-rule="evenodd" clip-rule="evenodd" d="M123.989 512.526C123.54 512.847 123.435 513.471 123.757 513.921L142.821 540.61C143.142 541.06 143.766 541.164 144.215 540.843C144.665 540.522 144.769 539.897 144.448 539.448L125.384 512.758C125.063 512.309 124.438 512.205 123.989 512.526Z" fill="#9ab7f6"/>
<path d="M116.689 621.839C116.64 620.701 117.549 619.751 118.688 619.751H168.927C170.066 619.751 170.975 620.701 170.925 621.839L167.635 696.868C167.588 697.937 166.707 698.78 165.637 698.78H121.978C120.908 698.78 120.027 697.937 119.98 696.868L116.689 621.839Z" fill="#d6e2fb"/>
<path d="M116.689 621.839C116.64 620.701 117.549 619.751 118.688 619.751H168.927C170.066 619.751 170.975 620.701 170.925 621.839L167.635 696.868C167.588 697.937 166.707 698.78 165.637 698.78H121.978C120.908 698.78 120.027 697.937 119.98 696.868L116.689 621.839Z" fill="url(#paint19_linear_411_1552)"/>
<defs>
<linearGradient id="paint0_linear_411_1552" x1="626.977" y1="336.817" x2="626.977" y2="686.876" gradientUnits="userSpaceOnUse">
<stop stop-color="#2563eb" stop-opacity="0"/>
<stop offset="1" stop-color="#2563eb"/>
</linearGradient>
<linearGradient id="paint1_linear_411_1552" x1="590.848" y1="59.8556" x2="590.848" y2="409.914" gradientUnits="userSpaceOnUse">
<stop stop-color="#2563eb" stop-opacity="0"/>
<stop offset="1" stop-color="#2563eb"/>
</linearGradient>
<linearGradient id="paint2_linear_411_1552" x1="177.416" y1="184.755" x2="177.416" y2="693.722" gradientUnits="userSpaceOnUse">
<stop stop-color="#2563eb" stop-opacity="0"/>
<stop offset="1" stop-color="#2563eb"/>
</linearGradient>
<linearGradient id="paint3_linear_411_1552" x1="445.89" y1="629.678" x2="445.89" y2="679.173" gradientUnits="userSpaceOnUse">
<stop stop-color="#c8d8fa"/>
<stop offset="1" stop-color="#c8d8fa" stop-opacity="0"/>
</linearGradient>
<linearGradient id="paint4_linear_411_1552" x1="344.3" y1="628.652" x2="344.3" y2="678.952" gradientUnits="userSpaceOnUse">
<stop stop-color="#c8d8fa"/>
<stop offset="1" stop-color="#c8d8fa" stop-opacity="0"/>
</linearGradient>
<linearGradient id="paint5_linear_411_1552" x1="404" y1="386.5" x2="355.5" y2="317" gradientUnits="userSpaceOnUse">
<stop stop-color="#7F270F"/>
<stop offset="1" stop-color="#7F270F" stop-opacity="0"/>
</linearGradient>
<linearGradient id="paint6_linear_411_1552" x1="432.648" y1="193.452" x2="432.648" y2="228.468" gradientUnits="userSpaceOnUse">
<stop stop-color="#7F270F"/>
<stop offset="1" stop-color="#7F270F" stop-opacity="0"/>
</linearGradient>
<linearGradient id="paint7_linear_411_1552" x1="460.833" y1="562.5" x2="635.814" y2="367.586" gradientUnits="userSpaceOnUse">
<stop stop-color="#111928" stop-opacity="0"/>
<stop offset="1" stop-color="#111928"/>
</linearGradient>
<linearGradient id="paint8_linear_411_1552" x1="506.422" y1="352.5" x2="432.024" y2="230.429" gradientUnits="userSpaceOnUse">
<stop stop-color="#c8d8fa"/>
<stop offset="1" stop-color="#c8d8fa" stop-opacity="0"/>
</linearGradient>
<linearGradient id="paint9_linear_411_1552" x1="402" y1="317" x2="387.947" y2="296.217" gradientUnits="userSpaceOnUse">
<stop stop-color="#c8d8fa"/>
<stop offset="1" stop-color="#c8d8fa" stop-opacity="0"/>
</linearGradient>
<linearGradient id="paint10_linear_411_1552" x1="443" y1="317" x2="430.143" y2="361.132" gradientUnits="userSpaceOnUse">
<stop stop-color="#c8d8fa"/>
<stop offset="1" stop-color="#c8d8fa" stop-opacity="0"/>
</linearGradient>
<linearGradient id="paint11_linear_411_1552" x1="495.5" y1="362.5" x2="409.238" y2="339.65" gradientUnits="userSpaceOnUse">
<stop stop-color="#7F270F"/>
<stop offset="1" stop-color="#7F270F" stop-opacity="0"/>
</linearGradient>
<linearGradient id="paint12_linear_411_1552" x1="361" y1="342.71" x2="361" y2="631.362" gradientUnits="userSpaceOnUse">
<stop stop-color="#F9FAFB"/>
<stop offset="1" stop-color="#F9FAFB" stop-opacity="0"/>
</linearGradient>
<linearGradient id="paint13_linear_411_1552" x1="387.804" y1="359" x2="384.158" y2="359.105" gradientUnits="userSpaceOnUse">
<stop stop-color="#c8d8fa"/>
<stop offset="1" stop-color="#c8d8fa" stop-opacity="0"/>
</linearGradient>
<linearGradient id="paint14_linear_411_1552" x1="281" y1="342.71" x2="281" y2="631.362" gradientUnits="userSpaceOnUse">
<stop stop-color="#F9FAFB"/>
<stop offset="1" stop-color="#F9FAFB" stop-opacity="0"/>
</linearGradient>
<linearGradient id="paint15_linear_411_1552" x1="179.5" y1="344" x2="386" y2="395.5" gradientUnits="userSpaceOnUse">
<stop stop-color="#c8d8fa"/>
<stop offset="1" stop-color="#c8d8fa" stop-opacity="0"/>
</linearGradient>
<linearGradient id="paint16_linear_411_1552" x1="333.804" y1="359" x2="330.158" y2="359.105" gradientUnits="userSpaceOnUse">
<stop stop-color="#c8d8fa"/>
<stop offset="1" stop-color="#c8d8fa" stop-opacity="0"/>
</linearGradient>
<linearGradient id="paint17_linear_411_1552" x1="227.804" y1="359" x2="224.158" y2="359.105" gradientUnits="userSpaceOnUse">
<stop stop-color="#c8d8fa"/>
<stop offset="1" stop-color="#c8d8fa" stop-opacity="0"/>
</linearGradient>
<linearGradient id="paint18_linear_411_1552" x1="313.879" y1="344" x2="394.477" y2="351.449" gradientUnits="userSpaceOnUse">
<stop stop-color="#c8d8fa"/>
<stop offset="1" stop-color="#c8d8fa" stop-opacity="0"/>
</linearGradient>
<linearGradient id="paint19_linear_411_1552" x1="236.32" y1="673.369" x2="78.7637" y2="673.369" gradientUnits="userSpaceOnUse">
<stop stop-color="#9ab7f6"/>
<stop offset="1" stop-color="#9ab7f6" stop-opacity="0"/>
</linearGradient>
</defs>
</svg>