<svg class="w-auto max-w-[16rem] h-40 text-gray-800 dark:text-white" aria-hidden="true" width="570" height="751" viewBox="0 0 570 751" fill="none" xmlns="http://www.w3.org/2000/svg">
<path d="M256 724.5C256 739.136 267.864 751 282.5 751H292.5V698H282.5C267.864 698 256 709.864 256 724.5Z" fill="#d6e2fb"/>
<path d="M256 724.5C256 739.136 267.864 751 282.5 751H292.5V698H282.5C267.864 698 256 709.864 256 724.5Z" fill="url(#paint0_linear_748_168)"/>
<path d="M319 724.5C319 739.136 307.136 751 292.5 751C277.864 751 266 739.136 266 724.5C266 709.864 277.864 698 292.5 698C307.136 698 319 709.864 319 724.5Z" fill="#d6e2fb"/>
<path d="M319 724.5C319 739.136 307.136 751 292.5 751C277.864 751 266 739.136 266 724.5C266 709.864 277.864 698 292.5 698C307.136 698 319 709.864 319 724.5Z" fill="url(#paint1_linear_748_168)"/>
<path d="M288 724.5C288 720.358 291.358 717 295.5 717H335.5C339.642 717 343 720.358 343 724.5C343 728.642 339.642 732 335.5 732H295.5C291.358 732 288 728.642 288 724.5Z" fill="#d6e2fb"/>
<path d="M288 724.5C288 720.358 291.358 717 295.5 717H335.5C339.642 717 343 720.358 343 724.5C343 728.642 339.642 732 335.5 732H295.5C291.358 732 288 728.642 288 724.5Z" fill="url(#paint2_linear_748_168)"/>
<path d="M324 724.5C324 739.136 335.864 751 350.5 751H360.5V698H350.5C335.864 698 324 709.864 324 724.5Z" fill="#d6e2fb"/>
<path d="M324 724.5C324 739.136 335.864 751 350.5 751H360.5V698H350.5C335.864 698 324 709.864 324 724.5Z" fill="url(#paint3_linear_748_168)"/>
<path d="M387 724.5C387 739.136 375.136 751 360.5 751C345.864 751 334 739.136 334 724.5C334 709.864 345.864 698 360.5 698C375.136 698 387 709.864 387 724.5Z" fill="#d6e2fb"/>
<path fill-rule="evenodd" clip-rule="evenodd" d="M360.5 736C366.851 736 372 730.851 372 724.5C372 718.149 366.851 713 360.5 713C354.149 713 349 718.149 349 724.5C349 730.851 354.149 736 360.5 736ZM360.5 738C367.956 738 374 731.956 374 724.5C374 717.044 367.956 711 360.5 711C353.044 711 347 717.044 347 724.5C347 731.956 353.044 738 360.5 738Z" fill="white"/>
<path fill-rule="evenodd" clip-rule="evenodd" d="M364 3V513H567V3H364ZM363 0C361.895 0 361 0.895432 361 2V514C361 515.105 361.895 516 363 516H568C569.105 516 570 515.105 570 514V2C570 0.895431 569.105 0 568 0H363Z" fill="#c8d8fa"/>
<path fill-rule="evenodd" clip-rule="evenodd" d="M123 3V513H326V3H123ZM122 0C120.895 0 120 0.895432 120 2V514C120 515.105 120.895 516 122 516H327C328.105 516 329 515.105 329 514V2C329 0.895431 328.105 0 327 0H122Z" fill="#c8d8fa"/>
<path d="M221 597.5C221 612.136 209.136 624 194.5 624C179.864 624 168 612.136 168 597.5C168 582.864 179.864 571 194.5 571C209.136 571 221 582.864 221 597.5Z" fill="#d6e2fb"/>
<path d="M221 597.5C221 612.136 209.136 624 194.5 624C179.864 624 168 612.136 168 597.5C168 582.864 179.864 571 194.5 571C209.136 571 221 582.864 221 597.5Z" fill="url(#paint4_linear_748_168)"/>
<path fill-rule="evenodd" clip-rule="evenodd" d="M194.5 609C200.851 609 206 603.851 206 597.5C206 591.149 200.851 586 194.5 586C188.149 586 183 591.149 183 597.5C183 603.851 188.149 609 194.5 609ZM194.5 611C201.956 611 208 604.956 208 597.5C208 590.044 201.956 584 194.5 584C187.044 584 181 590.044 181 597.5C181 604.956 187.044 611 194.5 611Z" fill="white"/>
<path d="M284 597.5C284 612.136 272.136 624 257.5 624C242.864 624 231 612.136 231 597.5C231 582.864 242.864 571 257.5 571C272.136 571 284 582.864 284 597.5Z" fill="#d6e2fb"/>
<path d="M284 597.5C284 612.136 272.136 624 257.5 624C242.864 624 231 612.136 231 597.5C231 582.864 242.864 571 257.5 571C272.136 571 284 582.864 284 597.5Z" fill="url(#paint5_linear_748_168)"/>
<path fill-rule="evenodd" clip-rule="evenodd" d="M257.5 609C263.851 609 269 603.851 269 597.5C269 591.149 263.851 586 257.5 586C251.149 586 246 591.149 246 597.5C246 603.851 251.149 609 257.5 609ZM257.5 611C264.956 611 271 604.956 271 597.5C271 590.044 264.956 584 257.5 584C250.044 584 244 590.044 244 597.5C244 604.956 250.044 611 257.5 611Z" fill="white"/>
<path d="M347 597.5C347 612.136 335.136 624 320.5 624C305.864 624 294 612.136 294 597.5C294 582.864 305.864 571 320.5 571C335.136 571 347 582.864 347 597.5Z" fill="#d6e2fb"/>
<path d="M347 597.5C347 612.136 335.136 624 320.5 624C305.864 624 294 612.136 294 597.5C294 582.864 305.864 571 320.5 571C335.136 571 347 582.864 347 597.5Z" fill="url(#paint6_linear_748_168)"/>
<path fill-rule="evenodd" clip-rule="evenodd" d="M320.5 609C326.851 609 332 603.851 332 597.5C332 591.149 326.851 586 320.5 586C314.149 586 309 591.149 309 597.5C309 603.851 314.149 609 320.5 609ZM320.5 611C327.956 611 334 604.956 334 597.5C334 590.044 327.956 584 320.5 584C313.044 584 307 590.044 307 597.5C307 604.956 313.044 611 320.5 611Z" fill="white"/>
<path d="M410 597.5C410 612.136 398.136 624 383.5 624C368.864 624 357 612.136 357 597.5C357 582.864 368.864 571 383.5 571C398.136 571 410 582.864 410 597.5Z" fill="#d6e2fb"/>
<path d="M410 597.5C410 612.136 398.136 624 383.5 624C368.864 624 357 612.136 357 597.5C357 582.864 368.864 571 383.5 571C398.136 571 410 582.864 410 597.5Z" fill="url(#paint7_linear_748_168)"/>
<path fill-rule="evenodd" clip-rule="evenodd" d="M383.5 609C389.851 609 395 603.851 395 597.5C395 591.149 389.851 586 383.5 586C377.149 586 372 591.149 372 597.5C372 603.851 377.149 609 383.5 609ZM383.5 611C390.956 611 397 604.956 397 597.5C397 590.044 390.956 584 383.5 584C376.044 584 370 590.044 370 597.5C370 604.956 376.044 611 383.5 611Z" fill="white"/>
<path d="M473 597.5C473 612.136 461.136 624 446.5 624C431.864 624 420 612.136 420 597.5C420 582.864 431.864 571 446.5 571C461.136 571 473 582.864 473 597.5Z" fill="#d6e2fb"/>
<path d="M473 597.5C473 612.136 461.136 624 446.5 624C431.864 624 420 612.136 420 597.5C420 582.864 431.864 571 446.5 571C461.136 571 473 582.864 473 597.5Z" fill="url(#paint8_linear_748_168)"/>
<path fill-rule="evenodd" clip-rule="evenodd" d="M446.5 609C452.851 609 458 603.851 458 597.5C458 591.149 452.851 586 446.5 586C440.149 586 435 591.149 435 597.5C435 603.851 440.149 609 446.5 609ZM446.5 611C453.956 611 460 604.956 460 597.5C460 590.044 453.956 584 446.5 584C439.044 584 433 590.044 433 597.5C433 604.956 439.044 611 446.5 611Z" fill="white"/>
<path d="M536 597.5C536 612.136 524.136 624 509.5 624C494.864 624 483 612.136 483 597.5C483 582.864 494.864 571 509.5 571C524.136 571 536 582.864 536 597.5Z" fill="#d6e2fb"/>
<path d="M536 597.5C536 612.136 524.136 624 509.5 624C494.864 624 483 612.136 483 597.5C483 582.864 494.864 571 509.5 571C524.136 571 536 582.864 536 597.5Z" fill="url(#paint9_linear_748_168)"/>
<path fill-rule="evenodd" clip-rule="evenodd" d="M509.5 609C515.851 609 521 603.851 521 597.5C521 591.149 515.851 586 509.5 586C503.149 586 498 591.149 498 597.5C498 603.851 503.149 609 509.5 609ZM509.5 611C516.956 611 523 604.956 523 597.5C523 590.044 516.956 584 509.5 584C502.044 584 496 590.044 496 597.5C496 604.956 502.044 611 509.5 611Z" fill="white"/>
<path d="M94 305.558C94 320.193 105.864 332.058 120.5 332.058H130.5V279.058H120.5C105.864 279.058 94 290.922 94 305.558Z" fill="#d6e2fb"/>
<path d="M94 305.558C94 320.193 105.864 332.058 120.5 332.058H130.5V279.058H120.5C105.864 279.058 94 290.922 94 305.558Z" fill="url(#paint10_linear_748_168)"/>
<path d="M157 305.558C157 320.193 145.136 332.058 130.5 332.058C115.864 332.058 104 320.193 104 305.558C104 290.922 115.864 279.058 130.5 279.058C145.136 279.058 157 290.922 157 305.558Z" fill="#d6e2fb"/>
<path d="M157 305.558C157 320.193 145.136 332.058 130.5 332.058C115.864 332.058 104 320.193 104 305.558C104 290.922 115.864 279.058 130.5 279.058C145.136 279.058 157 290.922 157 305.558Z" fill="url(#paint11_linear_748_168)"/>
<path d="M126 305.558C126 301.415 129.358 298.058 133.5 298.058H173.5C177.642 298.058 181 301.415 181 305.558C181 309.7 177.642 313.058 173.5 313.058H133.5C129.358 313.058 126 309.7 126 305.558Z" fill="#d6e2fb"/>
<path d="M126 305.558C126 301.415 129.358 298.058 133.5 298.058H173.5C177.642 298.058 181 301.415 181 305.558C181 309.7 177.642 313.058 173.5 313.058H133.5C129.358 313.058 126 309.7 126 305.558Z" fill="url(#paint12_linear_748_168)"/>
<path d="M162 305.558C162 320.193 173.864 332.058 188.5 332.058H198.5V279.058H188.5C173.864 279.058 162 290.922 162 305.558Z" fill="#d6e2fb"/>
<path d="M162 305.558C162 320.193 173.864 332.058 188.5 332.058H198.5V279.058H188.5C173.864 279.058 162 290.922 162 305.558Z" fill="url(#paint13_linear_748_168)"/>
<path d="M225 305.558C225 320.193 213.136 332.058 198.5 332.058C183.864 332.058 172 320.193 172 305.558C172 290.922 183.864 279.058 198.5 279.058C213.136 279.058 225 290.922 225 305.558Z" fill="#d6e2fb"/>
<path fill-rule="evenodd" clip-rule="evenodd" d="M198.5 317.058C204.851 317.058 210 311.909 210 305.558C210 299.206 204.851 294.058 198.5 294.058C192.149 294.058 187 299.206 187 305.558C187 311.909 192.149 317.058 198.5 317.058ZM198.5 319.058C205.956 319.058 212 313.013 212 305.558C212 298.102 205.956 292.058 198.5 292.058C191.044 292.058 185 298.102 185 305.558C185 313.013 191.044 319.058 198.5 319.058Z" fill="white"/>
<path d="M568 624C569.105 624 570 624.895 570 626L570 636L133 636L133 626C133 624.895 133.895 624 135 624L568 624Z" fill="#d6e2fb"/>
<path d="M570 749C570 750.105 569.105 751 568 751L560 751C558.895 751 558 750.105 558 749L558 636L570 636L570 749Z" fill="#d6e2fb"/>
<path d="M145 749C145 750.105 144.105 751 143 751L135 751C133.895 751 133 750.105 133 749L133 636L145 636L145 749Z" fill="#d6e2fb"/>
<path d="M467 499C468.105 499 469 499.895 469 501L469 522C469 523.105 468.105 524 467 524L2 524C0.895446 524 -1.05365e-06 523.105 -1.00536e-06 522L-8.74228e-08 501C-3.91406e-08 499.895 0.895416 499 2 499L467 499Z" fill="#d6e2fb"/>
<path d="M47 749C47 750.105 46.1046 751 45 751L33 751C31.8954 751 31 750.105 31 749L31 524L47 524L47 749Z" fill="#d6e2fb"/>
<path d="M47 749C47 750.105 46.1046 751 45 751L33 751C31.8954 751 31 750.105 31 749L31 524L47 524L47 749Z" fill="url(#paint14_linear_748_168)"/>
<path d="M438 749C438 750.105 437.105 751 436 751L424 751C422.895 751 422 750.105 422 749L422 524L438 524L438 749Z" fill="#d6e2fb"/>
<path d="M438 749C438 750.105 437.105 751 436 751L424 751C422.895 751 422 750.105 422 749L422 524L438 524L438 749Z" fill="url(#paint15_linear_748_168)"/>
<path d="M131.509 499.558H242.509L224.5 425.058C210 426.558 169.518 429.558 131.509 434.058C93.5 438.558 73.5092 454.558 74.0092 483.558C74.5092 512.558 98.0349 589.054 105 621.558C114 663.558 113.5 695 111.5 714L148.5 710.5C143 695.167 144.5 644.958 136.5 588.558C128.5 532.158 144.342 529.891 131.509 499.558Z" fill="#FDBA8C"/>
<path d="M131.509 499.558H242.509L224.5 425.058C210 426.558 169.518 429.558 131.509 434.058C93.5 438.558 73.5092 454.558 74.0092 483.558C74.5092 512.558 98.0349 589.054 105 621.558C114 663.558 113.5 695 111.5 714L148.5 710.5C143 695.167 144.5 644.958 136.5 588.558C128.5 532.158 144.342 529.891 131.509 499.558Z" fill="url(#paint16_linear_748_168)"/>
<path d="M87.9996 725.5C76.3996 733.5 73.833 740.167 73.9996 742.5L82 746.5L159.5 735.5L149.677 706.499C149.309 705.413 148.107 704.857 147.03 705.25C142.151 707.028 133.586 709.653 127 710C120.775 710.328 115.019 707.77 111.767 705.735C110.78 705.117 109.439 705.317 108.727 706.238C105.343 710.615 98.0636 718.559 87.9996 725.5Z" fill="#d6e2fb"/>
<path d="M87.9996 725.5C76.3996 733.5 73.833 740.167 73.9996 742.5L82 746.5L159.5 735.5L149.677 706.499C149.309 705.413 148.107 704.857 147.03 705.25C142.151 707.028 133.586 709.653 127 710C120.775 710.328 115.019 707.77 111.767 705.735C110.78 705.117 109.439 705.317 108.727 706.238C105.343 710.615 98.0636 718.559 87.9996 725.5Z" fill="url(#paint17_linear_748_168)"/>
<path fill-rule="evenodd" clip-rule="evenodd" d="M129.69 709.752L107.808 739.591L106.195 738.409L127.029 709.998C127.887 709.953 128.778 709.868 129.69 709.752ZM138.548 707.927L116.195 738.409L117.808 739.591L141.688 707.028C140.68 707.334 139.627 707.637 138.548 707.927Z" fill="white"/>
<path d="M154.557 751H76.7463C74.5165 751 72.5441 749.554 71.8727 747.428C70.9032 744.358 72.9794 741.167 76.1789 740.81L153.509 732.172C159.105 731.547 164.001 735.926 164.001 741.557C164.001 746.772 159.773 751 154.557 751Z" fill="#374151"/>
<path d="M151.001 297.058C155.001 298.658 155.668 311.058 155.501 317.058L223.002 361.558L246.502 311.558L267.502 341.558L249.289 375.742C241.888 389.633 223.646 393.311 211.44 383.374L152.654 335.51C146.679 330.645 141.669 324.174 141.452 316.473C141.1 303.936 147.11 295.501 151.001 297.058Z" fill="#FDBA8C"/>
<path d="M151.001 297.058C155.001 298.658 155.668 311.058 155.501 317.058L223.002 361.558L246.502 311.558L267.502 341.558L249.289 375.742C241.888 389.633 223.646 393.311 211.44 383.374L152.654 335.51C146.679 330.645 141.669 324.174 141.452 316.473C141.1 303.936 147.11 295.501 151.001 297.058Z" fill="url(#paint18_linear_748_168)"/>
<path d="M147.501 499.558H258.501L222.002 423.058C209.835 424.724 177.901 429.258 147.501 434.058C109.501 440.058 89.5013 454.558 90.0013 483.558C90.5013 512.558 139.178 632.375 147.501 664.558C155.002 693.558 158.168 710.391 155.501 715.558L199.502 725.058C194.002 709.724 180.502 655.558 176.001 611.058C170.269 554.382 160.335 529.891 147.501 499.558Z" fill="#FDBA8C"/>
<path d="M147.501 499.558H258.501L222.002 423.058C209.835 424.724 177.901 429.258 147.501 434.058C109.501 440.058 89.5013 454.558 90.0013 483.558C90.5013 512.558 139.178 632.375 147.501 664.558C155.002 693.558 158.168 710.391 155.501 715.558L199.502 725.058C194.002 709.724 180.502 655.558 176.001 611.058C170.269 554.382 160.335 529.891 147.501 499.558Z" fill="url(#paint19_linear_748_168)"/>
<path d="M135 725.5C123.4 733.5 120.833 740.167 121 742.5L129 746.5L206.5 735.5L196.677 706.499C196.309 705.413 195.107 704.857 194.03 705.25C189.151 707.028 180.586 709.653 174 710C167.775 710.328 162.019 707.77 158.767 705.735C157.78 705.117 156.439 705.317 155.727 706.238C152.343 710.615 145.064 718.559 135 725.5Z" fill="#d6e2fb"/>
<path d="M135 725.5C123.4 733.5 120.833 740.167 121 742.5L129 746.5L206.5 735.5L196.677 706.499C196.309 705.413 195.107 704.857 194.03 705.25C189.151 707.028 180.586 709.653 174 710C167.775 710.328 162.019 707.77 158.767 705.735C157.78 705.117 156.439 705.317 155.727 706.238C152.343 710.615 145.064 718.559 135 725.5Z" fill="url(#paint20_linear_748_168)"/>
<path fill-rule="evenodd" clip-rule="evenodd" d="M176.69 709.752L154.808 739.591L153.195 738.409L174.029 709.998C174.887 709.953 175.778 709.868 176.69 709.752ZM185.548 707.927L163.195 738.409L164.808 739.591L188.688 707.028C187.68 707.334 186.627 707.637 185.548 707.927Z" fill="white"/>
<path d="M201.557 751H123.746C121.517 751 119.544 749.554 118.873 747.428C117.903 744.358 119.979 741.167 123.179 740.81L200.509 732.172C206.105 731.547 211.001 735.926 211.001 741.557C211.001 746.772 206.773 751 201.557 751Z" fill="#374151"/>
<path d="M247.515 508.684L217.819 424.866C217.397 423.673 218.173 422.393 219.426 422.217L272.4 414.782C273.334 414.651 274.049 413.885 274.117 412.944L274.501 407.558L330.001 392.058C339.168 404.391 353.501 436.958 337.501 468.558C321.825 499.519 273.19 509.008 249.44 510.007C248.572 510.043 247.805 509.503 247.515 508.684Z" fill="#2563eb"/>
<path d="M247.515 508.684L217.819 424.866C217.397 423.673 218.173 422.393 219.426 422.217L272.4 414.782C273.334 414.651 274.049 413.885 274.117 412.944L274.501 407.558L330.001 392.058C339.168 404.391 353.501 436.958 337.501 468.558C321.825 499.519 273.19 509.008 249.44 510.007C248.572 510.043 247.805 509.503 247.515 508.684Z" fill="url(#paint21_linear_748_168)"/>
<path fill-rule="evenodd" clip-rule="evenodd" d="M329.842 416.342C330.469 427.65 329.366 439.335 324.451 447.183C320.936 452.796 314.538 457.391 306.614 461.223C298.67 465.065 289.074 468.194 279.022 470.813C264.966 474.475 249.918 477.161 237.136 479.387L236.458 477.475C249.303 475.239 264.397 472.557 278.518 468.878C288.511 466.274 297.965 463.184 305.743 459.422C313.541 455.651 319.537 451.261 322.756 446.122C327.326 438.824 328.467 427.673 327.845 416.453C327.389 408.232 325.994 400.091 324.405 393.621L326.333 393.083C327.957 399.681 329.378 407.969 329.842 416.342ZM315.105 396.218C316.352 401.461 317.421 407.889 317.782 414.38C318.295 423.591 317.397 433.151 313.349 439.59C310.451 444.202 305.187 447.96 298.702 451.084C292.197 454.218 284.346 456.768 276.129 458.901C263.941 462.064 250.837 464.334 240.008 466.209L240.008 466.209C237.507 466.643 235.127 467.055 232.907 467.452L232.23 465.541C234.575 465.12 237.093 464.684 239.741 464.225L239.741 464.225L239.741 464.225C250.555 462.352 263.527 460.106 275.626 456.965C283.784 454.848 291.496 452.336 297.834 449.282C304.194 446.219 309.055 442.664 311.656 438.526C315.357 432.638 316.293 423.614 315.785 414.491C315.432 408.152 314.389 401.872 313.177 396.757L315.105 396.218Z" fill="#c8d8fa"/>
<path d="M274.672 233.416C264.242 223.495 241.975 202.229 239.33 188.391C238.386 181.779 241.7 168.257 258.5 167.057C279.5 165.557 285 194.057 296.5 201.557C308 209.057 334.5 213.057 335 243.557C335.5 274.057 361 295.057 359 313.057C357.4 327.457 336 337.39 325.5 340.557L296.5 267.557L274.672 233.416Z" fill="#111928"/>
<path d="M273.501 204.557L253.711 219.017C260.92 223.476 270.503 240.057 268.003 249.058C266.003 256.258 255.169 281.725 250.003 293.558C251.504 310.558 266.502 307.557 272.502 289.057C277.302 274.257 285.502 254.661 289.002 246.712C286.729 244.196 284.508 241.93 282.502 240.057C276.502 234.457 274.001 214.057 273.501 204.557Z" fill="#FDBA8C"/>
<path d="M273.501 204.557L253.711 219.017C260.92 223.476 270.503 240.057 268.003 249.058C266.003 256.258 255.169 281.725 250.003 293.558C251.504 310.558 266.502 307.557 272.502 289.057C277.302 274.257 285.502 254.661 289.002 246.712C286.729 244.196 284.508 241.93 282.502 240.057C276.502 234.457 274.001 214.057 273.501 204.557Z" fill="url(#paint22_linear_748_168)"/>
<path d="M274.498 201.557C274.498 208.057 270 226.557 255.5 226.557C250.19 226.558 246.494 221.179 243.998 214.115C243.648 213.126 241.802 215.161 241.498 214.115C241.05 212.574 242.172 207.924 241.819 206.316C240.384 199.79 239.692 192.979 239.5 188.057C248.502 187.056 257.498 199.058 261.498 198.558C265.498 198.058 267.498 191.558 269.998 192.558C272.498 193.558 274.498 195.057 274.498 201.557Z" fill="#FDBA8C"/>
<path fill-rule="evenodd" clip-rule="evenodd" d="M241.627 204.224C241.908 204.227 242.133 204.458 242.13 204.739L242.027 213.965L245.737 213.222C246.012 213.167 246.28 213.345 246.335 213.621C246.391 213.896 246.212 214.164 245.937 214.22L241.936 215.021C241.452 215.118 241.001 214.745 241.007 214.252L241.113 204.727C241.116 204.446 241.346 204.221 241.627 204.224Z" fill="#111928"/>
<path fill-rule="evenodd" clip-rule="evenodd" d="M249.757 219.241C250.663 218.889 251.555 218.366 252.803 217.6C253.043 217.453 253.356 217.528 253.503 217.767C253.65 218.007 253.575 218.32 253.336 218.467C252.095 219.228 251.129 219.799 250.125 220.189C249.09 220.591 248.065 220.783 246.7 220.878C246.419 220.898 246.176 220.687 246.157 220.406C246.137 220.126 246.349 219.883 246.629 219.863C247.929 219.773 248.846 219.595 249.757 219.241Z" fill="#111928"/>
<path fill-rule="evenodd" clip-rule="evenodd" d="M270.367 205.178C270.063 206.313 269.217 207.578 267.393 208.992C267.171 209.164 266.851 209.123 266.679 208.901C266.507 208.679 266.548 208.359 266.77 208.187C268.489 206.855 269.157 205.761 269.384 204.915C269.607 204.081 269.456 203.29 269.106 202.426C269.001 202.166 269.126 201.869 269.387 201.764C269.647 201.658 269.944 201.784 270.049 202.044C270.441 203.013 270.67 204.046 270.367 205.178Z" fill="#111928"/>
<path fill-rule="evenodd" clip-rule="evenodd" d="M250.263 210.835C250.654 209.328 250.711 207.265 250.289 205.02C249.867 202.776 249.064 200.875 248.153 199.613C247.189 198.279 246.349 197.957 245.854 198.05C245.36 198.143 244.694 198.749 244.28 200.341C243.889 201.848 243.832 203.911 244.254 206.155C244.676 208.399 245.479 210.301 246.391 211.563C247.354 212.896 248.194 213.218 248.689 213.125C249.184 213.032 249.85 212.427 250.263 210.835ZM251.289 204.832C252.176 209.548 251.096 213.708 248.877 214.125C246.658 214.543 244.141 211.059 243.254 206.343C242.367 201.628 243.447 197.468 245.666 197.05C247.885 196.633 250.403 200.117 251.289 204.832Z" fill="#111928"/>
<path fill-rule="evenodd" clip-rule="evenodd" d="M240.044 210.835C240.435 209.328 240.492 207.265 240.07 205.02C239.648 202.776 238.846 200.875 237.934 199.613C236.97 198.279 236.13 197.957 235.635 198.05C235.141 198.143 234.475 198.749 234.062 200.341C233.67 201.848 233.613 203.911 234.035 206.155C234.457 208.399 235.26 210.301 236.172 211.563C237.135 212.896 237.976 213.218 238.47 213.125C238.965 213.032 239.631 212.427 240.044 210.835ZM241.07 204.832C241.957 209.548 240.877 213.708 238.658 214.125C236.439 214.543 233.922 211.059 233.035 206.343C232.148 201.628 233.228 197.468 235.447 197.05C237.666 196.633 240.184 200.117 241.07 204.832Z" fill="#111928"/>
<path d="M292.504 251.058C291.304 249.058 290.005 247.391 289.005 246.557C287.171 248.891 282.404 256.457 278.004 268.057C272.504 282.557 265.004 302.057 259.004 301.057C254.204 300.257 252.004 293.057 251.504 289.557C249.504 293.224 245.105 304.057 243.505 318.057C241.505 335.557 250.505 347.557 259.005 362.557C265.805 374.557 271.171 398.891 273.005 409.557L334.505 393.057L323.005 353.057C316.171 349.224 307.004 336.458 299.004 332.058C289.004 326.558 273.004 314.058 276.504 295.058C279.304 279.858 289.504 260.058 292.504 251.058Z" fill="#F9FAFB"/>
<path d="M292.504 251.058C291.304 249.058 290.005 247.391 289.005 246.557C287.171 248.891 282.404 256.457 278.004 268.057C272.504 282.557 265.004 302.057 259.004 301.057C254.204 300.257 252.004 293.057 251.504 289.557C249.504 293.224 245.105 304.057 243.505 318.057C241.505 335.557 250.505 347.557 259.005 362.557C265.805 374.557 271.171 398.891 273.005 409.557L334.505 393.057L323.005 353.057C316.171 349.224 307.004 336.458 299.004 332.058C289.004 326.558 273.004 314.058 276.504 295.058C279.304 279.858 289.504 260.058 292.504 251.058Z" fill="url(#paint23_linear_748_168)"/>
<path d="M332.566 335.937C322.58 309.157 311.302 277.858 308.002 269.058C304.86 262.459 297.879 257.374 292.502 251.058C289.447 256.659 281.203 272.057 276.003 294.057C270.803 316.057 289.835 329.224 297.502 334.058L302.002 347.558C277.335 365.224 220.501 405.457 204.501 411.057C188.501 416.657 179.502 426.5 180.502 429L212.002 424.5C217.202 423.7 231.335 415.891 235.502 413.057L317.269 374.084C331.484 367.309 338.068 350.692 332.566 335.937Z" fill="#FDBA8C"/>
<path d="M332.566 335.937C322.58 309.157 311.302 277.858 308.002 269.058C304.86 262.459 297.879 257.374 292.502 251.058C289.447 256.659 281.203 272.057 276.003 294.057C270.803 316.057 289.835 329.224 297.502 334.058L302.002 347.558C277.335 365.224 220.501 405.457 204.501 411.057C188.501 416.657 179.502 426.5 180.502 429L212.002 424.5C217.202 423.7 231.335 415.891 235.502 413.057L317.269 374.084C331.484 367.309 338.068 350.692 332.566 335.937Z" fill="url(#paint24_linear_748_168)"/>
<path fill-rule="evenodd" clip-rule="evenodd" d="M276.727 310.991C280.86 322.909 291.894 330.514 297.379 333.981L286.001 300.558L276.727 310.991Z" fill="url(#paint25_linear_748_168)"/>
<defs>
<linearGradient id="paint0_linear_748_168" x1="289" y1="753.5" x2="274" y2="711" gradientUnits="userSpaceOnUse">
<stop stop-color="#9ab7f6"/>
<stop offset="1" stop-color="#9ab7f6" stop-opacity="0"/>
</linearGradient>
<linearGradient id="paint1_linear_748_168" x1="294" y1="745.5" x2="276.5" y2="683.5" gradientUnits="userSpaceOnUse">
<stop stop-color="#9ab7f6"/>
<stop offset="1" stop-color="#9ab7f6" stop-opacity="0"/>
</linearGradient>
<linearGradient id="paint2_linear_748_168" x1="337.726" y1="732.708" x2="336.873" y2="715.896" gradientUnits="userSpaceOnUse">
<stop stop-color="#9ab7f6"/>
<stop offset="1" stop-color="#9ab7f6" stop-opacity="0"/>
</linearGradient>
<linearGradient id="paint3_linear_748_168" x1="357" y1="753.5" x2="342" y2="698" gradientUnits="userSpaceOnUse">
<stop stop-color="#9ab7f6"/>
<stop offset="1" stop-color="#9ab7f6" stop-opacity="0"/>
</linearGradient>
<linearGradient id="paint4_linear_748_168" x1="178.5" y1="668.5" x2="178.5" y2="598" gradientUnits="userSpaceOnUse">
<stop stop-color="#9ab7f6"/>
<stop offset="1" stop-color="#9ab7f6" stop-opacity="0"/>
</linearGradient>
<linearGradient id="paint5_linear_748_168" x1="241.5" y1="668.5" x2="241.5" y2="598" gradientUnits="userSpaceOnUse">
<stop stop-color="#9ab7f6"/>
<stop offset="1" stop-color="#9ab7f6" stop-opacity="0"/>
</linearGradient>
<linearGradient id="paint6_linear_748_168" x1="304.5" y1="668.5" x2="304.5" y2="598" gradientUnits="userSpaceOnUse">
<stop stop-color="#9ab7f6"/>
<stop offset="1" stop-color="#9ab7f6" stop-opacity="0"/>
</linearGradient>
<linearGradient id="paint7_linear_748_168" x1="367.5" y1="668.5" x2="367.5" y2="598" gradientUnits="userSpaceOnUse">
<stop stop-color="#9ab7f6"/>
<stop offset="1" stop-color="#9ab7f6" stop-opacity="0"/>
</linearGradient>
<linearGradient id="paint8_linear_748_168" x1="430.5" y1="668.5" x2="430.5" y2="598" gradientUnits="userSpaceOnUse">
<stop stop-color="#9ab7f6"/>
<stop offset="1" stop-color="#9ab7f6" stop-opacity="0"/>
</linearGradient>
<linearGradient id="paint9_linear_748_168" x1="493.5" y1="668.5" x2="493.5" y2="598" gradientUnits="userSpaceOnUse">
<stop stop-color="#9ab7f6"/>
<stop offset="1" stop-color="#9ab7f6" stop-opacity="0"/>
</linearGradient>
<linearGradient id="paint10_linear_748_168" x1="127" y1="334.558" x2="112" y2="292.058" gradientUnits="userSpaceOnUse">
<stop stop-color="#9ab7f6"/>
<stop offset="1" stop-color="#9ab7f6" stop-opacity="0"/>
</linearGradient>
<linearGradient id="paint11_linear_748_168" x1="132" y1="326.558" x2="114.5" y2="264.558" gradientUnits="userSpaceOnUse">
<stop stop-color="#9ab7f6"/>
<stop offset="1" stop-color="#9ab7f6" stop-opacity="0"/>
</linearGradient>
<linearGradient id="paint12_linear_748_168" x1="175.726" y1="313.765" x2="174.873" y2="296.954" gradientUnits="userSpaceOnUse">
<stop stop-color="#9ab7f6"/>
<stop offset="1" stop-color="#9ab7f6" stop-opacity="0"/>
</linearGradient>
<linearGradient id="paint13_linear_748_168" x1="195" y1="334.558" x2="180" y2="279.058" gradientUnits="userSpaceOnUse">
<stop stop-color="#9ab7f6"/>
<stop offset="1" stop-color="#9ab7f6" stop-opacity="0"/>
</linearGradient>
<linearGradient id="paint14_linear_748_168" x1="58.187" y1="166.639" x2="64.1489" y2="705.385" gradientUnits="userSpaceOnUse">
<stop stop-color="#9ab7f6"/>
<stop offset="1" stop-color="#9ab7f6" stop-opacity="0"/>
</linearGradient>
<linearGradient id="paint15_linear_748_168" x1="449.187" y1="166.639" x2="455.149" y2="705.385" gradientUnits="userSpaceOnUse">
<stop stop-color="#9ab7f6"/>
<stop offset="1" stop-color="#9ab7f6" stop-opacity="0"/>
</linearGradient>
<linearGradient id="paint16_linear_748_168" x1="358" y1="479.058" x2="146.77" y2="669.672" gradientUnits="userSpaceOnUse">
<stop stop-color="#7F270F"/>
<stop offset="1" stop-color="#7F270F" stop-opacity="0"/>
</linearGradient>
<linearGradient id="paint17_linear_748_168" x1="167.93" y1="701.5" x2="165.964" y2="734.022" gradientUnits="userSpaceOnUse">
<stop stop-color="#c8d8fa"/>
<stop offset="1" stop-color="#c8d8fa" stop-opacity="0"/>
</linearGradient>
<linearGradient id="paint18_linear_748_168" x1="349.502" y1="297.058" x2="200.226" y2="311.788" gradientUnits="userSpaceOnUse">
<stop stop-color="#7F270F"/>
<stop offset="1" stop-color="#7F270F" stop-opacity="0"/>
</linearGradient>
<linearGradient id="paint19_linear_748_168" x1="406.502" y1="741.558" x2="133.599" y2="676.712" gradientUnits="userSpaceOnUse">
<stop stop-color="#7F270F"/>
<stop offset="1" stop-color="#7F270F" stop-opacity="0"/>
</linearGradient>
<linearGradient id="paint20_linear_748_168" x1="214.93" y1="701.5" x2="212.964" y2="734.022" gradientUnits="userSpaceOnUse">
<stop stop-color="#c8d8fa"/>
<stop offset="1" stop-color="#c8d8fa" stop-opacity="0"/>
</linearGradient>
<linearGradient id="paint21_linear_748_168" x1="280.703" y1="327.879" x2="280.703" y2="424.609" gradientUnits="userSpaceOnUse">
<stop stop-color="#111928"/>
<stop offset="1" stop-color="#111928" stop-opacity="0"/>
</linearGradient>
<linearGradient id="paint22_linear_748_168" x1="201.168" y1="144.439" x2="256.071" y2="349.485" gradientUnits="userSpaceOnUse">
<stop stop-color="#7F270F"/>
<stop offset="1" stop-color="#7F270F" stop-opacity="0"/>
</linearGradient>
<linearGradient id="paint23_linear_748_168" x1="416.97" y1="462.86" x2="266.356" y2="425.888" gradientUnits="userSpaceOnUse">
<stop stop-color="#c8d8fa"/>
<stop offset="1" stop-color="#c8d8fa" stop-opacity="0"/>
</linearGradient>
<linearGradient id="paint24_linear_748_168" x1="201.164" y1="144.438" x2="256.067" y2="349.484" gradientUnits="userSpaceOnUse">
<stop stop-color="#7F270F"/>
<stop offset="1" stop-color="#7F270F" stop-opacity="0"/>
</linearGradient>
<linearGradient id="paint25_linear_748_168" x1="304" y1="353.058" x2="290.5" y2="314.058" gradientUnits="userSpaceOnUse">
<stop stop-color="#7F270F"/>
<stop offset="1" stop-color="#7F270F" stop-opacity="0"/>
</linearGradient>
</defs>
</svg>