<svg class="w-auto max-w-[16rem] h-40 text-gray-800 dark:text-white" aria-hidden="true" width="621" height="608" viewBox="0 0 621 608" fill="none" xmlns="http://www.w3.org/2000/svg">
<circle cx="310" cy="227" r="227" fill="url(#paint0_linear_275_984)"/>
<path d="M426.132 542.339L429.531 504.028L459.163 494.703C459.193 503.091 462.424 521.964 475.107 530.351C487.79 538.738 491.642 546.29 491.983 549.017L426.132 542.339Z" fill="#374151"/>
<path d="M426.132 542.339L429.531 504.028L459.163 494.703C459.193 503.091 462.424 521.964 475.107 530.351C487.79 538.738 491.642 546.29 491.983 549.017L426.132 542.339Z" fill="url(#paint1_linear_275_984)"/>
<rect x="426.066" y="541.828" width="66.4241" height="8" transform="rotate(5.76679 426.066 541.828)" fill="#2563eb"/>
<path d="M477.863 506.321L478.004 406.45L422.681 421.432L423.629 504.919C423.641 505.992 424.499 506.865 425.572 506.895L475.806 508.317C476.932 508.349 477.861 507.446 477.863 506.321Z" fill="#2563eb"/>
<path d="M477.863 506.321L478.004 406.45L422.681 421.432L423.629 504.919C423.641 505.992 424.499 506.865 425.572 506.895L475.806 508.317C476.932 508.349 477.861 507.446 477.863 506.321Z" fill="url(#paint2_linear_275_984)"/>
<path d="M152.299 314.642L197.344 383.81L333.375 360.39C275.415 297.097 188.508 303.52 152.299 314.642Z" fill="#c8d8fa"/>
<path d="M152.299 314.642L197.344 383.81L333.375 360.39C275.415 297.097 188.508 303.52 152.299 314.642Z" fill="url(#paint3_linear_275_984)"/>
<path d="M209.188 606.919L225.001 525.905L359.886 496.595C329.896 577.006 246.925 603.649 209.188 606.919Z" fill="#c8d8fa"/>
<path d="M209.188 606.919L225.001 525.905L359.886 496.595C329.896 577.006 246.925 603.649 209.188 606.919Z" fill="url(#paint4_linear_275_984)"/>
<path fill-rule="evenodd" clip-rule="evenodd" d="M603.551 370.908C605.188 372.867 606.239 375.24 606.726 377.746C607.214 380.252 607.13 382.846 606.347 385.276C598.322 410.193 581.651 429.367 563.856 443.169C545.187 457.649 525.219 466.357 512.51 469.943L512.49 469.949L512.47 469.953L225.492 525.809L225.001 525.905L224.905 525.412L222.988 515.563L221.838 509.653L197.394 384.068L197.298 383.576L197.79 383.48L484.767 327.623L484.787 327.62L484.808 327.617C497.934 326.175 519.711 326.758 542.447 333.179C564.12 339.299 586.766 350.82 603.551 370.908Z" fill="#d6e2fb"/>
<path fill-rule="evenodd" clip-rule="evenodd" d="M418.456 488.251L457.289 349.5L428.598 338.556L197.789 383.48L197.298 383.576L197.394 384.068L221.837 509.653L222.988 515.563L224.905 525.412L225.001 525.905L225.492 525.809L418.456 488.251Z" fill="url(#paint5_linear_275_984)"/>
<path d="M197.298 383.576L225.001 525.905L193.643 521.821L169.761 399.123L197.298 383.576Z" fill="#c8d8fa"/>
<path d="M0 421.978L27.7027 564.307L193.642 521.821L169.761 399.123L0 421.978Z" fill="url(#paint6_linear_275_984)"/>
<path d="M606.631 377.255L211.054 454.25" stroke="#9ab7f6" stroke-width="2"/>
<path d="M606.631 377.255L211.054 454.25" stroke="url(#paint7_linear_275_984)" stroke-width="2"/>
<path d="M267.905 102.921C286.053 95.341 295.799 105.98 298.486 112.04C297.208 125.763 295.15 160.188 281.406 157.921C263.906 145.921 240.405 120.421 267.905 102.921Z" fill="#111928"/>
<path d="M234.171 117.595C243.706 123.862 255.824 122.264 261.237 114.028C266.65 105.791 263.308 94.0341 253.772 87.7677C244.237 81.5013 232.119 83.0985 226.706 91.3352C221.293 99.5718 224.635 111.329 234.171 117.595Z" fill="#111928"/>
<path d="M294.406 176.65L295.06 152.45L281.548 143.594L275.988 171.984C279.968 175.547 290.425 176.579 294.406 176.65Z" fill="#FDBA8C"/>
<path d="M294.406 176.65L295.06 152.45L281.548 143.594L275.988 171.984C279.968 175.547 290.425 176.579 294.406 176.65Z" fill="url(#paint8_linear_275_984)"/>
<path d="M271.923 132.933C269.461 135.761 282.498 158.393 298.319 153.735C303.787 152.126 305.536 146.428 305.337 139.48C305.322 138.962 305.892 139.494 305.856 138.963C305.822 138.446 305.182 136.868 305.129 136.342C304.273 127.872 301.119 118.267 298.487 112.039C296.269 114.029 291.644 119.591 290.887 125.919C289.942 133.828 284.599 137.179 281.194 134.821C277.528 132.281 274.386 130.105 271.923 132.933Z" fill="#FDBA8C"/>
<path fill-rule="evenodd" clip-rule="evenodd" d="M303.026 128.824C302.672 128.944 302.482 129.329 302.603 129.683L305.606 138.506C305.66 138.663 305.555 138.83 305.39 138.85L301.425 139.325C301.054 139.369 300.789 139.706 300.833 140.078C300.878 140.449 301.215 140.714 301.586 140.67L305.551 140.195C306.571 140.073 307.22 139.042 306.889 138.069L303.885 129.247C303.765 128.892 303.38 128.703 303.026 128.824Z" fill="#111928"/>
<path fill-rule="evenodd" clip-rule="evenodd" d="M301.008 144.958C300.146 144.912 299.229 144.717 297.827 144.383C297.463 144.297 297.098 144.522 297.011 144.886C296.925 145.25 297.15 145.615 297.514 145.701C298.903 146.032 299.934 146.257 300.935 146.311C301.955 146.366 302.914 146.241 304.181 145.921C304.544 145.83 304.764 145.461 304.672 145.099C304.581 144.736 304.212 144.516 303.85 144.608C302.668 144.906 301.85 145.003 301.008 144.958Z" fill="#111928"/>
<path fill-rule="evenodd" clip-rule="evenodd" d="M276.431 138.591C275.886 137.758 275.785 136.852 275.85 135.887C275.876 135.514 275.594 135.19 275.22 135.165C274.847 135.14 274.524 135.422 274.499 135.795C274.423 136.91 274.527 138.154 275.297 139.332C276.063 140.505 277.423 141.515 279.654 142.309C280.007 142.435 280.394 142.251 280.52 141.899C280.645 141.546 280.461 141.159 280.109 141.033C278.043 140.297 276.98 139.431 276.431 138.591Z" fill="#111928"/>
<path d="M369.789 556.5L386.789 522L417.789 524C414.789 531.833 410.989 550.6 419.789 563C428.589 575.4 429.456 583.833 428.789 586.5L369.789 556.5Z" fill="#374151"/>
<path d="M369.789 556.5L386.789 522L417.789 524C414.789 531.833 410.989 550.6 419.789 563C428.589 575.4 429.456 583.833 428.789 586.5L369.789 556.5Z" fill="url(#paint9_linear_275_984)"/>
<rect x="369.912" y="556" width="66.4241" height="8" transform="rotate(26.928 369.912 556)" fill="#2563eb"/>
<path d="M344.289 317L329.789 286.5L277.289 284.5C273.955 291.5 268.889 314.8 275.289 352C281.689 389.2 309.289 398 332.789 393.5L432.789 374L380.918 520.72C380.565 521.719 381.052 522.821 382.029 523.231L428.36 542.69C429.411 543.131 430.618 542.606 431.011 541.537L494.922 367.851C504.684 341.319 484.591 313.308 456.33 314.052L344.289 317Z" fill="#2563eb"/>
<path d="M344.289 317L329.789 286.5L277.289 284.5C273.955 291.5 268.889 314.8 275.289 352C281.689 389.2 309.289 398 332.789 393.5L432.789 374L380.918 520.72C380.565 521.719 381.052 522.821 382.029 523.231L428.36 542.69C429.411 543.131 430.618 542.606 431.011 541.537L494.922 367.851C504.684 341.319 484.591 313.308 456.33 314.052L344.289 317Z" fill="url(#paint10_linear_275_984)"/>
<path fill-rule="evenodd" clip-rule="evenodd" d="M273.451 339.156C273.374 338.479 273.301 337.807 273.232 337.141C278.544 337.419 284.928 338.528 291.852 340.432C302.868 343.462 315.368 348.538 327.3 355.641C347.778 367.83 368.529 359.136 390.54 348.475C391.941 347.796 393.347 347.11 394.757 346.422L394.765 346.418C404.358 341.735 414.165 336.948 424.147 333.751C435.621 330.076 447.416 328.469 459.533 331.53C478.252 336.259 490.122 343.862 497.346 351.579C497.409 352.601 497.432 353.63 497.414 354.664C490.702 346.705 478.891 338.484 459.043 333.47C447.411 330.531 436.018 332.049 424.757 335.656C414.924 338.805 405.259 343.522 395.653 348.21L395.646 348.213C394.234 348.903 392.822 349.592 391.412 350.275C369.548 360.864 347.798 370.17 326.277 357.359C314.505 350.352 302.171 345.345 291.322 342.361C284.595 340.51 278.483 339.45 273.451 339.156ZM291.499 383.951C290.976 383.493 290.461 383.018 289.955 382.527C295.211 379.5 301.845 377.037 309.395 376.428C320.774 375.51 334.14 378.809 347.9 390.553L345.371 391.046C332.427 380.46 320.029 377.577 309.556 378.422C302.586 378.984 296.43 381.201 291.499 383.951ZM425.896 393.496L426.904 390.646C433.402 387.094 440.873 383.657 448.774 381.038C462.411 376.518 477.459 374.394 491.016 378.465L490.323 380.346C477.356 376.491 462.823 378.489 449.403 382.937C440.815 385.783 432.736 389.616 425.896 393.496ZM406.46 448.472L407.314 446.057C417.595 462.164 419.662 479.981 417.794 496.189C416.133 510.607 411.355 523.796 406.43 533.479L404.581 532.703C409.432 523.199 414.168 510.182 415.807 495.96C417.585 480.538 415.717 463.751 406.46 448.472ZM448.347 494.424L446.637 499.071C446.215 487.651 443.552 477.669 440.47 468.894C439.008 464.732 437.452 460.844 435.99 457.188L435.989 457.187L435.807 456.732C434.296 452.953 432.888 449.412 431.821 446.112C429.698 439.547 428.831 433.678 431.394 428.553C433.413 424.515 436.97 421.383 441.304 418.964C445.64 416.545 450.813 414.805 456.164 413.575C463.993 411.777 472.286 411.052 479.072 410.924L478.33 412.941C471.81 413.106 463.989 413.83 456.612 415.525C451.372 416.729 446.395 418.414 442.279 420.711C438.161 423.009 434.964 425.885 433.183 429.447C430.995 433.822 431.628 439.016 433.724 445.497C434.767 448.721 436.148 452.199 437.664 455.989L437.85 456.454C439.31 460.103 440.88 464.027 442.357 468.231C445.072 475.962 447.475 484.648 448.347 494.424ZM411.533 315.23L415.616 315.123C407.705 319.892 397.713 325.539 387.681 330.497C380.841 333.877 373.966 336.945 367.711 339.194C361.475 341.437 355.776 342.896 351.311 343C329.299 343.512 308.827 320.408 312.621 285.846L314.624 285.922C310.836 319.804 330.848 341.475 351.265 341C355.401 340.904 360.855 339.534 367.034 337.312C373.193 335.097 379.994 332.065 386.795 328.704C395.521 324.391 404.222 319.551 411.533 315.23Z" fill="#c8d8fa"/>
<path fill-rule="evenodd" clip-rule="evenodd" d="M399.372 530.515L463.288 368L426.513 375.224L432.788 374L380.918 520.72C380.564 521.719 381.052 522.821 382.029 523.231L399.372 530.515Z" fill="url(#paint11_linear_275_984)"/>
<path d="M408.093 241.423C404.473 241.548 388.333 244.093 380.715 245.35L379.382 262.799C384.712 260.866 396.996 256.723 403.499 255.615C411.628 254.23 414.928 256.989 421.025 255.95C427.122 254.911 428.149 241.451 424.199 240.648C420.249 239.844 412.618 241.267 408.093 241.423Z" fill="#FDBA8C"/>
<path d="M408.093 241.423C404.473 241.548 388.333 244.093 380.715 245.35L379.382 262.799C384.712 260.866 396.996 256.723 403.499 255.615C411.628 254.23 414.928 256.989 421.025 255.95C427.122 254.911 428.149 241.451 424.199 240.648C420.249 239.844 412.618 241.267 408.093 241.423Z" fill="url(#paint12_linear_275_984)"/>
<path fill-rule="evenodd" clip-rule="evenodd" d="M320.289 289C349.281 283.59 386.386 272.316 407.289 265.212C407.289 258.489 401.151 245.603 398.081 240L320.289 250.122V289Z" fill="#F9FAFB"/>
<path fill-rule="evenodd" clip-rule="evenodd" d="M320.289 289C349.281 283.59 386.386 272.316 407.289 265.212C407.289 258.489 401.151 245.603 398.081 240L320.289 250.122V289Z" fill="url(#paint13_linear_275_984)"/>
<path d="M427.789 252.5H425.789C423.289 262 417.789 269.5 414.789 261.5C412.764 256.1 415.825 244.948 417.888 238.009C418.42 236.22 420.069 235 421.934 235H422.097C423.723 235 425.185 235.99 425.789 237.5H435.789L436.907 236.382C437.792 235.497 438.992 235 440.244 235C443.315 235 445.565 237.884 444.792 240.856C443.616 245.376 442.096 251.057 440.789 255.5C438.289 264 434.789 267 431.789 265C428.812 263.015 427.789 256 427.789 252.5Z" fill="#111928"/>
<path d="M430.289 242C426.689 242.4 410.789 246.167 403.289 248V265.5C408.456 263.167 420.389 258.1 426.789 256.5C434.789 254.5 438.289 257 444.289 255.5C450.289 254 450.289 240.5 446.289 240C442.289 239.5 434.789 241.5 430.289 242Z" fill="#FDBA8C"/>
<path d="M430.289 242C426.689 242.4 410.789 246.167 403.289 248V265.5C408.456 263.167 420.389 258.1 426.789 256.5C434.789 254.5 438.289 257 444.289 255.5C450.289 254 450.289 240.5 446.289 240C442.289 239.5 434.789 241.5 430.289 242Z" fill="url(#paint14_linear_275_984)"/>
<path d="M264.289 303V241L303.789 297.5L264.289 303Z" fill="#F9FAFB"/>
<path d="M264.289 303V241L303.789 297.5L264.289 303Z" fill="url(#paint15_linear_275_984)"/>
<path d="M414.289 272C414.289 264.8 408.622 251 405.789 245L326.289 257C325.956 250.333 324.889 233.2 323.289 218C321.727 203.162 306.379 179.81 298.362 169.249C298.022 168.801 297.428 168.644 296.906 168.853C290.305 171.494 282.895 171.219 276.508 168.096L276.058 167.876C275.591 167.647 275.03 167.712 274.662 168.08C271.177 171.564 263.924 182.709 258.289 204.5C250.789 233.5 277.789 297.5 302.789 304C322.789 309.2 385.122 283.5 414.289 272Z" fill="#F9FAFB"/>
<path fill-rule="evenodd" clip-rule="evenodd" d="M323.447 219.524L290.789 214.5L310.789 259.5L326.289 257C325.967 250.555 324.959 234.329 323.447 219.524Z" fill="url(#paint16_linear_275_984)"/>
<path fill-rule="evenodd" clip-rule="evenodd" d="M287.842 133.384L296.09 131.912L295.719 128.943L294.977 125.603L290.74 126.927L275.482 131.695C277.119 132.036 278.936 133.258 280.907 134.622L287.842 133.384Z" fill="#111928"/>
<path fill-rule="evenodd" clip-rule="evenodd" d="M287.842 133.384L296.09 131.912L295.719 128.943L294.977 125.603L290.74 126.927L275.482 131.695C277.119 132.036 278.936 133.258 280.907 134.622L287.842 133.384Z" fill="url(#paint17_linear_275_984)"/>
<path fill-rule="evenodd" clip-rule="evenodd" d="M297.654 121.126C298.961 120.749 302.51 120.036 304.255 120.036L303.513 121.892L302.437 121.757C306.06 130.494 308.325 137.32 307.967 139.706C307.472 140.077 304.255 141.561 302.771 141.561C301.241 141.561 299.06 140.819 297.204 138.221C295.349 135.623 292.38 124.119 294.978 122.263C295.737 121.721 296.685 121.36 297.654 121.126Z" fill="#111928"/>
<path fill-rule="evenodd" clip-rule="evenodd" d="M297.654 121.126C298.961 120.749 302.51 120.036 304.255 120.036L303.513 121.892L302.437 121.757C306.06 130.494 308.325 137.32 307.967 139.706C307.472 140.077 304.255 141.561 302.771 141.561C301.241 141.561 299.06 140.819 297.204 138.221C295.349 135.623 292.38 124.119 294.978 122.263C295.737 121.721 296.685 121.36 297.654 121.126Z" fill="url(#paint18_linear_275_984)"/>
<path d="M298.688 121.521C300.134 120.488 302.261 120.114 303.922 120.024C305.038 119.963 306.017 120.681 306.417 121.726C309.173 128.94 309.69 134.77 309.56 137.74C309.525 138.528 309.103 139.24 308.417 139.628C307.845 139.951 307.148 140.281 306.482 140.448C304.997 140.819 302.771 140.077 300.915 137.479C299.06 134.881 296.091 123.376 298.688 121.521Z" fill="#111928"/>
<path d="M298.688 121.521C300.134 120.488 302.261 120.114 303.922 120.024C305.038 119.963 306.017 120.681 306.417 121.726C309.173 128.94 309.69 134.77 309.56 137.74C309.525 138.528 309.103 139.24 308.417 139.628C307.845 139.951 307.148 140.281 306.482 140.448C304.997 140.819 302.771 140.077 300.915 137.479C299.06 134.881 296.091 123.376 298.688 121.521Z" fill="url(#paint19_linear_275_984)"/>
<defs>
<linearGradient id="paint0_linear_275_984" x1="310" y1="0" x2="310" y2="454" gradientUnits="userSpaceOnUse">
<stop stop-color="#d6e2fb"/>
<stop offset="1" stop-color="#d6e2fb" stop-opacity="0"/>
</linearGradient>
<linearGradient id="paint1_linear_275_984" x1="441.271" y1="499.484" x2="464.555" y2="559.635" gradientUnits="userSpaceOnUse">
<stop stop-color="#111928"/>
<stop offset="1" stop-color="#111928" stop-opacity="0"/>
</linearGradient>
<linearGradient id="paint2_linear_275_984" x1="439.79" y1="443.5" x2="476.79" y2="526" gradientUnits="userSpaceOnUse">
<stop stop-color="#111928"/>
<stop offset="1" stop-color="#111928" stop-opacity="0"/>
</linearGradient>
<linearGradient id="paint3_linear_275_984" x1="306.73" y1="421.435" x2="196.29" y2="367.5" gradientUnits="userSpaceOnUse">
<stop stop-color="#9ab7f6"/>
<stop offset="1" stop-color="#9ab7f6" stop-opacity="0"/>
</linearGradient>
<linearGradient id="paint4_linear_275_984" x1="312.29" y1="450" x2="201.664" y2="568.263" gradientUnits="userSpaceOnUse">
<stop stop-color="#9ab7f6"/>
<stop offset="1" stop-color="#9ab7f6" stop-opacity="0"/>
</linearGradient>
<linearGradient id="paint5_linear_275_984" x1="427.289" y1="381.5" x2="316.289" y2="464" gradientUnits="userSpaceOnUse">
<stop stop-color="#9ab7f6"/>
<stop offset="1" stop-color="#9ab7f6" stop-opacity="0"/>
</linearGradient>
<linearGradient id="paint6_linear_275_984" x1="414.289" y1="397" x2="75.7891" y2="490.5" gradientUnits="userSpaceOnUse">
<stop stop-color="#c8d8fa"/>
<stop offset="1" stop-color="#c8d8fa" stop-opacity="0"/>
</linearGradient>
<linearGradient id="paint7_linear_275_984" x1="606.726" y1="377.746" x2="461.5" y2="422" gradientUnits="userSpaceOnUse">
<stop stop-color="#d6e2fb"/>
<stop offset="1" stop-color="#d6e2fb" stop-opacity="0"/>
</linearGradient>
<linearGradient id="paint8_linear_275_984" x1="277.972" y1="137.409" x2="283.939" y2="170.277" gradientUnits="userSpaceOnUse">
<stop stop-color="#7F270F"/>
<stop offset="1" stop-color="#7F270F" stop-opacity="0"/>
</linearGradient>
<linearGradient id="paint9_linear_275_984" x1="399.377" y1="522" x2="399.377" y2="586.5" gradientUnits="userSpaceOnUse">
<stop stop-color="#111928"/>
<stop offset="1" stop-color="#111928" stop-opacity="0"/>
</linearGradient>
<linearGradient id="paint10_linear_275_984" x1="268.289" y1="214" x2="354.789" y2="367" gradientUnits="userSpaceOnUse">
<stop stop-color="#111928"/>
<stop offset="1" stop-color="#111928" stop-opacity="0"/>
</linearGradient>
<linearGradient id="paint11_linear_275_984" x1="409.788" y1="210" x2="419.788" y2="469" gradientUnits="userSpaceOnUse">
<stop stop-color="#111928"/>
<stop offset="1" stop-color="#111928" stop-opacity="0"/>
</linearGradient>
<linearGradient id="paint12_linear_275_984" x1="397.29" y1="264.5" x2="438.79" y2="266" gradientUnits="userSpaceOnUse">
<stop stop-color="#7F270F"/>
<stop offset="1" stop-color="#7F270F" stop-opacity="0"/>
</linearGradient>
<linearGradient id="paint13_linear_275_984" x1="298.789" y1="258.5" x2="397.289" y2="282" gradientUnits="userSpaceOnUse">
<stop stop-color="#c8d8fa"/>
<stop offset="1" stop-color="#c8d8fa" stop-opacity="0"/>
</linearGradient>
<linearGradient id="paint14_linear_275_984" x1="379.289" y1="266" x2="435.289" y2="266" gradientUnits="userSpaceOnUse">
<stop stop-color="#7F270F"/>
<stop offset="1" stop-color="#7F270F" stop-opacity="0"/>
</linearGradient>
<linearGradient id="paint15_linear_275_984" x1="284.039" y1="241" x2="284.039" y2="303" gradientUnits="userSpaceOnUse">
<stop stop-color="#c8d8fa"/>
<stop offset="1" stop-color="#c8d8fa" stop-opacity="0"/>
</linearGradient>
<linearGradient id="paint16_linear_275_984" x1="317.789" y1="274" x2="307.289" y2="234.5" gradientUnits="userSpaceOnUse">
<stop stop-color="#c8d8fa"/>
<stop offset="1" stop-color="#c8d8fa" stop-opacity="0"/>
</linearGradient>
<linearGradient id="paint17_linear_275_984" x1="287.289" y1="117" x2="285.786" y2="134.622" gradientUnits="userSpaceOnUse">
<stop stop-color="#2563eb"/>
<stop offset="1" stop-color="#2563eb" stop-opacity="0"/>
</linearGradient>
<linearGradient id="paint18_linear_275_984" x1="307.224" y1="145.272" x2="302.26" y2="133.669" gradientUnits="userSpaceOnUse">
<stop stop-color="#2563eb"/>
<stop offset="1" stop-color="#2563eb" stop-opacity="0"/>
</linearGradient>
<linearGradient id="paint19_linear_275_984" x1="302.4" y1="112.985" x2="304.255" y2="134.881" gradientUnits="userSpaceOnUse">
<stop stop-color="#2563eb"/>
<stop offset="1" stop-color="#2563eb" stop-opacity="0"/>
</linearGradient>
</defs>
</svg>