<svg class="w-auto max-w-[16rem] h-40 text-gray-800 dark:text-white" aria-hidden="true" width="627" height="499" viewBox="0 0 627 499" fill="none" xmlns="http://www.w3.org/2000/svg">
<path d="M406 318C406 314.686 408.686 312 412 312H621C624.314 312 627 314.686 627 318V493C627 496.314 624.314 499 621 499H412C408.686 499 406 496.314 406 493V318Z" fill="#d6e2fb"/>
<path d="M406 318C406 314.686 408.686 312 412 312H621C624.314 312 627 314.686 627 318V493C627 496.314 624.314 499 621 499H412C408.686 499 406 496.314 406 493V318Z" fill="url(#paint0_linear_182_7958)"/>
<path d="M429 6C429 2.68629 431.686 0 435 0H610C613.314 0 616 2.68629 616 6V163C616 166.314 613.314 169 610 169H435C431.686 169 429 166.314 429 163V6Z" fill="#d6e2fb"/>
<path d="M429 6C429 2.68629 431.686 0 435 0H610C613.314 0 616 2.68629 616 6V163C616 166.314 613.314 169 610 169H435C431.686 169 429 166.314 429 163V6Z" fill="url(#paint1_linear_182_7958)"/>
<path d="M0 184C0 180.686 2.68629 178 6 178H206C209.314 178 212 180.686 212 184V361C212 364.314 209.314 367 206 367H6C2.68629 367 0 364.314 0 361V184Z" fill="#d6e2fb"/>
<path d="M0 184C0 180.686 2.68629 178 6 178H206C209.314 178 212 180.686 212 184V361C212 364.314 209.314 367 206 367H6C2.68629 367 0 364.314 0 361V184Z" fill="url(#paint2_linear_182_7958)"/>
<path d="M178 79C178 75.6863 180.686 73 184 73H464C467.314 73 470 75.6863 470 79V279C470 282.314 467.314 285 464 285H184C180.686 285 178 282.314 178 279V79Z" fill="#c8d8fa"/>
<path d="M178 79C178 75.6863 180.686 73 184 73H464C467.314 73 470 75.6863 470 79V279C470 282.314 467.314 285 464 285H184C180.686 285 178 282.314 178 279V79Z" fill="url(#paint3_linear_182_7958)"/>
<path d="M270 195C270 191.686 272.686 189 276 189H371C374.314 189 377 191.686 377 195V259C377 262.314 374.314 265 371 265H276C272.686 265 270 262.314 270 259V195Z" fill="#F9FAFB"/>
<path fill-rule="evenodd" clip-rule="evenodd" d="M329.792 213.68C330.168 212.642 329.63 211.495 328.592 211.119C327.553 210.743 326.407 211.28 326.031 212.319L316.075 239.819C315.699 240.857 316.236 242.004 317.275 242.38C318.313 242.756 319.46 242.219 319.836 241.18L329.792 213.68ZM312.926 215.112C313.737 215.862 313.788 217.127 313.039 217.939L304.721 226.949L313.039 235.96C313.788 236.771 313.737 238.037 312.926 238.786C312.114 239.535 310.849 239.484 310.099 238.673L301.156 228.984C300.095 227.835 300.095 226.063 301.156 224.914L310.099 215.225C310.849 214.414 312.114 214.363 312.926 215.112ZM333.738 215.112C332.926 215.862 332.876 217.127 333.625 217.939L341.942 226.949L333.625 235.96C332.876 236.771 332.926 238.037 333.738 238.786C334.55 239.535 335.815 239.484 336.564 238.673L345.508 228.984C346.568 227.835 346.568 226.063 345.508 224.914L336.564 215.225C335.815 214.414 334.55 214.363 333.738 215.112Z" fill="#c8d8fa"/>
<path d="M290 106C290 102.686 292.686 100 296 100H391C394.314 100 397 102.686 397 106V170C397 173.314 394.314 176 391 176H296C292.686 176 290 173.314 290 170V106Z" fill="#F9FAFB"/>
<path fill-rule="evenodd" clip-rule="evenodd" d="M345.732 120C344.776 119.447 343.553 119.775 343 120.732L341.5 123.33C341.038 124.131 341.193 125.119 341.817 125.743L333.06 135.436C332.319 136.256 332.009 137.377 332.224 138.461L334.889 151.941C335.192 153.473 336.811 154.356 338.263 153.78L350.498 148.928C351.469 148.543 352.217 147.744 352.538 146.75L356.573 134.263C357.426 134.491 358.359 134.131 358.821 133.33L360.321 130.732C360.873 129.775 360.545 128.552 359.589 128L345.732 120ZM335.286 137.447L343.399 128.467L353.423 134.254L349.684 145.828C349.638 145.97 349.531 146.084 349.392 146.139L340.048 149.845L343.385 144.064C345.338 144.466 347.411 143.603 348.462 141.783C349.776 139.508 348.996 136.599 346.722 135.286C344.447 133.973 341.538 134.752 340.225 137.027C339.174 138.847 339.463 141.074 340.787 142.564L337.291 148.62L335.167 137.879C335.136 137.724 335.18 137.564 335.286 137.447ZM345.864 140.283C345.38 141.122 344.306 141.41 343.466 140.925C342.626 140.44 342.338 139.366 342.823 138.527C343.308 137.687 344.382 137.399 345.222 137.884C346.062 138.369 346.349 139.443 345.864 140.283Z" fill="#c8d8fa"/>
<path d="M456 499L460.025 437.541L530.46 432L537 499H456Z" fill="#2563eb"/>
<path d="M456 499L460.025 437.541L530.46 432L537 499H456Z" fill="url(#paint4_linear_182_7958)"/>
<path d="M499 466L495 499H504.5L499 466Z" fill="url(#paint5_linear_182_7958)"/>
<path fill-rule="evenodd" clip-rule="evenodd" d="M505 452V465.5C505 471.299 509.701 476 515.5 476C521.299 476 526 471.299 526 465.5V452H505ZM504.647 450C503.737 450 503 450.737 503 451.647V465.5C503 472.404 508.596 478 515.5 478C522.404 478 528 472.404 528 465.5V451.647C528 450.737 527.263 450 526.353 450H504.647Z" fill="#c8d8fa" fill-opacity="0.4"/>
<path fill-rule="evenodd" clip-rule="evenodd" d="M473 452V466.5C473 471.747 477.253 476 482.5 476C487.747 476 492 471.747 492 466.5V452H473ZM472.647 450C471.737 450 471 450.737 471 451.647V466.5C471 472.851 476.149 478 482.5 478C488.851 478 494 472.851 494 466.5V451.647C494 450.737 493.263 450 492.353 450H472.647Z" fill="#c8d8fa" fill-opacity="0.4"/>
<path d="M458 435H535V438C535 439.105 534.105 440 533 440H460C458.895 440 458 439.105 458 438V435Z" fill="#F9FAFB"/>
<path d="M458 435H535V438C535 439.105 534.105 440 533 440H460C458.895 440 458 439.105 458 438V435Z" fill="url(#paint6_linear_182_7958)"/>
<path d="M375 245C384.6 246.2 390 261.833 391.5 269.5L382.5 277C381.333 273.667 378.2 266.1 375 262.5C371 258 363 243.5 375 245Z" fill="#FDBA8C"/>
<path d="M375 245C384.6 246.2 390 261.833 391.5 269.5L382.5 277C381.333 273.667 378.2 266.1 375 262.5C371 258 363 243.5 375 245Z" fill="url(#paint7_linear_182_7958)"/>
<path d="M391.82 265.611L378.882 270.316C377.843 270.694 377.308 271.843 377.687 272.882L409.8 360.768C412.763 368.879 421.337 373.479 429.734 371.464L452.5 366L455.417 433.087C455.463 434.157 456.344 435 457.415 435H534.925C536.059 435 536.966 434.068 536.918 432.936C536.099 413.851 532.97 374.547 529.5 354.5C525.035 328.701 515.647 329.486 509.64 329.989L509.5 330C503.5 330.5 498 328 490.5 327C484.5 326.2 448.333 335.667 431 340.5L394.295 266.601C393.842 265.689 392.777 265.263 391.82 265.611Z" fill="#F9FAFB"/>
<path d="M391.82 265.611L378.882 270.316C377.843 270.694 377.308 271.843 377.687 272.882L409.8 360.768C412.763 368.879 421.337 373.479 429.734 371.464L452.5 366L455.417 433.087C455.463 434.157 456.344 435 457.415 435H534.925C536.059 435 536.966 434.068 536.918 432.936C536.099 413.851 532.97 374.547 529.5 354.5C525.035 328.701 515.647 329.486 509.64 329.989L509.5 330C503.5 330.5 498 328 490.5 327C484.5 326.2 448.333 335.667 431 340.5L394.295 266.601C393.842 265.689 392.777 265.263 391.82 265.611Z" fill="url(#paint8_linear_182_7958)"/>
<path fill-rule="evenodd" clip-rule="evenodd" d="M488.588 435L475 360.5L451.062 366.345L452.5 366L455.416 433.087C455.463 434.157 456.344 435 457.415 435H488.588Z" fill="url(#paint9_linear_182_7958)"/>
<path fill-rule="evenodd" clip-rule="evenodd" d="M529.53 354.676C515.515 357.651 505 370.098 505 385C505 402.1 518.846 415.967 535.939 416C535.894 415.339 535.847 414.672 535.8 413.999C519.876 413.891 507 400.949 507 385C507 371.09 516.792 359.468 529.859 356.651C529.75 355.974 529.64 355.315 529.53 354.676Z" fill="#c8d8fa"/>
<path d="M510.5 268.5C499.3 270.5 500.166 278.667 502 282.5V297.5C505 298.5 510.9 301.6 510.5 306C510.1 310.4 514 315.833 516 318C520.5 307 532.5 305 537 294C540.6 285.2 535.5 282.667 532.5 282.5C533 275 524.5 266 510.5 268.5Z" fill="#111928"/>
<path d="M493 333L499 309.5L514 305L516 318L515 334L493 333Z" fill="#FDBA8C"/>
<path d="M493 333L499 309.5L514 305L516 318L515 334L493 333Z" fill="url(#paint10_linear_182_7958)"/>
<path d="M516.5 298C518 308.5 491.5 318.5 491.5 305.5C491.5 302.865 492.056 300.154 492.957 297.5C493.185 296.829 491.731 297.162 492 296.5C492.343 295.656 494.42 293.821 494.816 293C497.729 286.97 501.896 281.704 504.5 279C503.833 286.667 503.8 301.2 509 298C514.2 294.8 516.167 296.667 516.5 298Z" fill="#FDBA8C"/>
<path d="M501.204 292.32C501.124 292.888 500.599 293.284 500.03 293.204C499.461 293.124 499.065 292.598 499.145 292.03C499.225 291.461 499.751 291.065 500.32 291.145C500.888 291.225 501.285 291.751 501.204 292.32Z" fill="#111928"/>
<path fill-rule="evenodd" clip-rule="evenodd" d="M500.833 288.248C500.337 288.143 499.82 288.307 499.242 288.628C499.001 288.762 498.696 288.675 498.562 288.434C498.428 288.192 498.515 287.888 498.757 287.754C499.399 287.397 500.184 287.089 501.039 287.269C501.905 287.452 502.704 288.102 503.449 289.339C503.592 289.575 503.516 289.882 503.28 290.025C503.043 290.168 502.736 290.092 502.593 289.855C501.921 288.741 501.319 288.35 500.833 288.248Z" fill="#111928"/>
<path fill-rule="evenodd" clip-rule="evenodd" d="M496.973 290.663C497.179 290.847 497.198 291.163 497.015 291.369L492.449 296.514C492.367 296.606 492.391 296.75 492.498 296.811L495.06 298.267C495.3 298.404 495.384 298.709 495.247 298.949C495.111 299.189 494.806 299.273 494.566 299.136L492.004 297.68C491.344 297.305 491.197 296.418 491.701 295.851L496.267 290.705C496.45 290.499 496.766 290.48 496.973 290.663Z" fill="#111928"/>
<path fill-rule="evenodd" clip-rule="evenodd" d="M495.202 303.275C495.99 303.516 496.789 303.366 497.443 302.9C497.669 302.74 497.981 302.793 498.141 303.018C498.301 303.243 498.248 303.555 498.023 303.715C497.129 304.351 496.01 304.568 494.91 304.232C493.812 303.896 492.79 303.028 492.028 301.599C491.898 301.356 491.99 301.053 492.234 300.923C492.477 300.793 492.78 300.885 492.91 301.129C493.577 302.379 494.413 303.034 495.202 303.275Z" fill="#111928"/>
<path fill-rule="evenodd" clip-rule="evenodd" d="M512.941 301.038C513.338 300.419 513.408 299.75 513.353 299.038C513.332 298.762 513.539 298.522 513.814 298.501C514.089 298.48 514.329 298.686 514.35 298.962C514.413 299.784 514.344 300.703 513.783 301.578C513.225 302.448 512.226 303.201 510.585 303.801C510.325 303.896 510.038 303.763 509.943 303.503C509.848 303.244 509.982 302.957 510.241 302.862C511.761 302.306 512.541 301.661 512.941 301.038Z" fill="#111928"/>
<path d="M499 169L476.5 156L486 128C485.81 103.301 490.664 72.7319 511.5 69.0001C538.3 64.2001 550 133.667 552.5 169H499Z" fill="#2563eb"/>
<path fill-rule="evenodd" clip-rule="evenodd" d="M488.978 97.2754L495.5 98.0001L486 128C485.924 117.997 486.674 107.031 488.978 97.2754Z" fill="url(#paint11_linear_182_7958)"/>
<path d="M511.783 162.675L495 159.5L496 169H534L524.5 130L514.052 161.343C513.736 162.292 512.767 162.861 511.783 162.675Z" fill="url(#paint12_linear_182_7958)"/>
<path d="M417 139C423 141.4 453.167 151.333 477 156L505.5 161.5C502.667 168.333 494.6 182.3 485 183.5C473 185 415.5 149.5 397 147.5C378.5 145.5 372 133.5 378.5 131C383.7 129 393 131.833 397 133.5V129C400 130.5 409.5 136 417 139Z" fill="#FDBA8C"/>
<path d="M417 139C423 141.4 453.167 151.333 477 156L505.5 161.5C502.667 168.333 494.6 182.3 485 183.5C473 185 415.5 149.5 397 147.5C378.5 145.5 372 133.5 378.5 131C383.7 129 393 131.833 397 133.5V129C400 130.5 409.5 136 417 139Z" fill="url(#paint13_linear_182_7958)"/>
<path d="M478 16.4995C467.6 24.0995 471.333 31.9995 474.5 34.9995L504 56.5C504.333 50.8333 505.1 37.5 505.5 29.5C505.9 21.5 501.333 20.1663 499 20.4995C496.333 15.9995 488.4 8.8995 478 16.4995Z" fill="#F9FAFB"/>
<path d="M504 78L491.5 59L499 41.5L514.5 69.5C512.9 73.9 506.833 77 504 78Z" fill="#FDBA8C"/>
<path d="M504 78L491.5 59L499 41.5L514.5 69.5C512.9 73.9 506.833 77 504 78Z" fill="url(#paint14_linear_182_7958)"/>
<path d="M499.5 34.5C502.5 36 498.5 66 486.5 63.5C482.522 62.6713 479.78 59.0664 477.933 54.5C477.735 54.0103 476.769 54.5096 476.591 54C476.307 53.1861 476.826 51.3498 476.591 50.5C475.031 44.8704 474.5 38.6535 474.5 34.5C484 30.4997 490.5 40.5 492 39.5C493.5 38.5 496.5 33 499.5 34.5Z" fill="#FDBA8C"/>
<path d="M481.094 45.0041C481.386 45.4988 481.221 46.1363 480.727 46.4281C480.232 46.7199 479.594 46.5554 479.303 46.0607C479.011 45.566 479.175 44.9285 479.67 44.6368C480.165 44.345 480.802 44.5095 481.094 45.0041Z" fill="#111928"/>
<path fill-rule="evenodd" clip-rule="evenodd" d="M479.772 41.7875C479.011 41.9036 478.443 42.3009 477.932 42.8142C477.738 43.0099 477.421 43.0106 477.225 42.8158C477.03 42.621 477.029 42.3044 477.224 42.1087C477.815 41.5146 478.568 40.9597 479.621 40.7989C480.667 40.6392 481.93 40.8808 483.524 41.7071C483.769 41.8341 483.865 42.1359 483.738 42.381C483.611 42.6262 483.309 42.722 483.064 42.5949C481.583 41.8272 480.539 41.6704 479.772 41.7875Z" fill="#111928"/>
<path fill-rule="evenodd" clip-rule="evenodd" d="M476.752 46.3458C477.028 46.3605 477.239 46.5959 477.225 46.8717L476.86 53.7411C476.853 53.8638 476.961 53.9613 477.083 53.9422L479.994 53.4849C480.267 53.442 480.523 53.6284 480.565 53.9012C480.608 54.174 480.422 54.4299 480.149 54.4727L477.238 54.9301C476.488 55.0479 475.821 54.4456 475.861 53.688L476.226 46.8186C476.241 46.5428 476.476 46.3312 476.752 46.3458Z" fill="#111928"/>
<path fill-rule="evenodd" clip-rule="evenodd" d="M484.467 57.748C485.209 57.4411 485.733 56.7748 485.939 55.8873C486.001 55.6182 486.27 55.4507 486.539 55.5131C486.808 55.5754 486.975 55.8441 486.913 56.1131C486.646 57.262 485.937 58.222 484.85 58.6719C483.765 59.1212 482.398 59.0238 480.884 58.2573C480.638 58.1325 480.539 57.8317 480.664 57.5853C480.789 57.339 481.09 57.2404 481.336 57.3651C482.669 58.0402 483.724 58.0556 484.467 57.748Z" fill="#111928"/>
<path fill-rule="evenodd" clip-rule="evenodd" d="M498.124 40.1608C498.049 39.4296 497.686 38.863 497.2 38.34C497.012 38.1377 497.023 37.8213 497.226 37.6333C497.428 37.4453 497.744 37.4569 497.932 37.6592C498.494 38.2633 499.012 39.0249 499.119 40.0588C499.224 41.0872 498.913 42.2984 498.003 43.791C497.859 44.0268 497.551 44.1014 497.316 43.9576C497.08 43.8138 497.005 43.5062 497.149 43.2704C497.992 41.8883 498.199 40.8975 498.124 40.1608Z" fill="#111928"/>
<path d="M119.288 298.127L108.254 293.382L103 309.2L119.288 315L146.086 274.928L176.035 236.437C192.5 225 180.344 223.15 172.357 226.946C164.371 230.743 133.65 275.982 119.288 298.127Z" fill="#FDBA8C"/>
<path d="M119.288 298.127L108.254 293.382L103 309.2L119.288 315L146.086 274.928L176.035 236.437C192.5 225 180.344 223.15 172.357 226.946C164.371 230.743 133.65 275.982 119.288 298.127Z" fill="url(#paint15_linear_182_7958)"/>
<path d="M170 219H207V235.5C207 245.717 198.717 254 188.5 254C178.283 254 170 245.717 170 235.5V219Z" fill="#111928"/>
<path fill-rule="evenodd" clip-rule="evenodd" d="M170.382 163.5C167.498 163.5 165.713 164.597 164.939 166.379C164.191 168.101 164.458 170.316 165.292 172.433C166.132 174.566 167.583 176.693 169.343 178.292C171.098 179.886 173.213 181 175.382 181C176.381 181 177.254 180.845 178.025 180.57C178.263 181.9 178.483 183.279 178.687 184.696C180.333 196.122 180.882 209.847 180.882 219H181.882C181.882 209.82 181.332 196.044 179.677 184.554C179.46 183.043 179.223 181.57 178.965 180.151C179.443 179.892 179.877 179.583 180.274 179.236C181.468 178.191 182.316 176.811 183.066 175.498C183.177 175.305 183.285 175.113 183.392 174.924L183.392 174.924C184.026 173.802 184.607 172.772 185.318 171.973C186.084 171.111 186.968 170.556 188.191 170.504C189.414 170.556 190.297 171.111 191.064 171.973C191.774 172.772 192.356 173.802 192.99 174.924L192.99 174.924C193.097 175.113 193.205 175.305 193.316 175.498C194.066 176.811 194.914 178.191 196.108 179.236C196.505 179.583 196.938 179.892 197.417 180.151C197.159 181.57 196.922 183.043 196.705 184.554C195.05 196.044 194.5 209.82 194.5 219H195.5C195.5 209.847 196.049 196.122 197.694 184.696C197.898 183.279 198.119 181.9 198.357 180.57C199.128 180.845 200 181 201 181C203.169 181 205.284 179.886 207.039 178.292C208.799 176.693 210.249 174.566 211.09 172.433C211.924 170.316 212.191 168.101 211.443 166.379C210.668 164.597 208.884 163.5 206 163.5C204.706 163.5 203.583 164.179 202.623 165.283C201.667 166.384 200.834 167.948 200.102 169.835C199.118 172.373 198.296 175.554 197.611 179.109C197.309 178.923 197.028 178.712 196.766 178.483C195.711 177.559 194.933 176.314 194.184 175.002C194.079 174.819 193.975 174.634 193.87 174.448L193.87 174.448C193.241 173.333 192.599 172.195 191.811 171.308C190.94 170.329 189.86 169.618 188.382 169.513V169.5C188.318 169.5 188.254 169.501 188.191 169.503C188.128 169.501 188.064 169.5 188 169.5V169.513C186.521 169.618 185.442 170.329 184.571 171.308C183.783 172.195 183.141 173.333 182.512 174.448L182.512 174.448C182.407 174.634 182.303 174.819 182.198 175.002C181.448 176.314 180.671 177.559 179.615 178.483C179.353 178.712 179.073 178.923 178.77 179.109C178.086 175.554 177.264 172.373 176.28 169.835C175.548 167.948 174.715 166.384 173.759 165.283C172.799 164.179 171.676 163.5 170.382 163.5ZM175.347 170.196C176.329 172.727 177.153 175.944 177.841 179.571C177.14 179.844 176.332 180 175.382 180C173.552 180 171.666 179.051 170.015 177.552C168.37 176.057 167.007 174.059 166.222 172.067C165.432 170.059 165.261 168.149 165.857 166.777C166.426 165.466 167.767 164.5 170.382 164.5C171.289 164.5 172.159 164.967 173.004 165.939C173.852 166.916 174.635 168.359 175.347 170.196ZM201.035 170.196C200.053 172.727 199.229 175.944 198.541 179.571C199.242 179.844 200.05 180 201 180C202.83 180 204.715 179.051 206.367 177.552C208.012 176.057 209.375 174.059 210.159 172.067C210.95 170.059 211.121 168.149 210.525 166.777C209.956 165.466 208.615 164.5 206 164.5C205.093 164.5 204.223 164.967 203.378 165.939C202.529 166.916 201.747 168.359 201.035 170.196Z" fill="#2563eb"/>
<path fill-rule="evenodd" clip-rule="evenodd" d="M207 219C207 203.149 217.866 189.491 226.266 176.049C230.533 169.219 233 161.147 233 152.5C233 127.923 213.077 108 188.5 108C163.923 108 144 127.923 144 152.5C144 161.147 146.467 169.219 150.734 176.049C159.134 189.491 170 203.149 170 219H207Z" fill="url(#paint16_linear_182_7958)"/>
<path fill-rule="evenodd" clip-rule="evenodd" d="M207 219C207 203.149 217.866 189.491 226.266 176.049C230.533 169.219 233 161.147 233 152.5C233 127.923 213.077 108 188.5 108C163.923 108 144 127.923 144 152.5C144 161.147 146.467 169.219 150.734 176.049C159.134 189.491 170 203.149 170 219H207Z" fill="url(#paint17_linear_182_7958)"/>
<path fill-rule="evenodd" clip-rule="evenodd" d="M207 219C207 205.67 214.685 193.891 222.124 182.487C223.531 180.33 224.93 178.187 226.266 176.049C230.533 169.219 233 161.147 233 152.5C233 127.923 213.077 108 188.5 108C163.923 108 144 127.923 144 152.5C144 161.147 146.467 169.219 150.734 176.049C152.07 178.187 153.469 180.33 154.876 182.487C162.315 193.891 170 205.67 170 219H207ZM206.014 218C206.231 210.225 208.952 203.005 212.6 196.151C215.19 191.287 218.288 186.536 221.318 181.892C222.718 179.745 224.104 177.621 225.417 175.519C229.589 168.843 232 160.955 232 152.5C232 128.476 212.524 109 188.5 109C164.476 109 145 128.476 145 152.5C145 160.955 147.411 168.843 151.583 175.519C152.896 177.621 154.282 179.745 155.682 181.892C158.712 186.536 161.811 191.287 164.4 196.151C168.048 203.005 170.769 210.225 170.986 218H206.014Z" fill="url(#paint18_linear_182_7958)"/>
<path d="M119 307L111.5 304.5L103.5 324.5C108 327.333 119.7 331.1 130.5 323.5C144 314 165 248.5 175 243.5C185 238.5 188 229.5 185 229C182 228.5 175 230.5 168 237.5C162.4 243.1 133 286.167 119 307Z" fill="#FDBA8C"/>
<path d="M119 307L111.5 304.5L103.5 324.5C108 327.333 119.7 331.1 130.5 323.5C144 314 165 248.5 175 243.5C185 238.5 188 229.5 185 229C182 228.5 175 230.5 168 237.5C162.4 243.1 133 286.167 119 307Z" fill="url(#paint19_linear_182_7958)"/>
<path d="M111.5 332.06V293.728C111.5 292.975 111.077 292.285 110.404 291.945L76 274.5L61.5 278.5C48.7 282.1 39.5 339 36.5 367H101.5V332.5L109.108 334.022C110.345 334.269 111.5 333.322 111.5 332.06Z" fill="#F9FAFB"/>
<path d="M69 367L75.5 327L101.5 332.433V367H69Z" fill="url(#paint20_linear_182_7958)"/>
<path d="M82.5 294L111.5 304.5V292.5L94.5 284L82.5 294Z" fill="url(#paint21_linear_182_7958)"/>
<path d="M52.0003 220.5C66.4003 216.9 70.0003 227.334 70.0003 233L62.5 257.5C57.0001 258.667 44.5003 259.9 38.5003 255.5C31.0003 250 34.0003 225 52.0003 220.5Z" fill="#111928"/>
<path d="M41 226C41 235.389 33.3888 243 24 243C14.6112 243 7 235.389 7 226C7 216.611 14.6112 209 24 209C33.3888 209 41 216.611 41 226Z" fill="#111928"/>
<path d="M61.5 278.5C60.7 271.3 56.1667 259.167 54 254L69 255.5L76 274.5C72 278.9 64.6667 279 61.5 278.5Z" fill="#FDBA8C"/>
<path d="M61.5 278.5C60.7 271.3 56.1667 259.167 54 254L69 255.5L76 274.5C72 278.9 64.6667 279 61.5 278.5Z" fill="url(#paint22_linear_182_7958)"/>
<path d="M55.0002 256C62.5002 260.5 78.5002 264 80.0002 253.5C80.4048 250.668 79.5323 247.301 78 243.872C77.796 243.415 78.7259 243.458 78.5 243C78.1703 242.332 76.6732 241.164 76.3044 240.5C73.1941 234.896 68.8545 229.538 66.0002 226.5C65.5 228.667 64.4997 236.052 64.4997 241C64.4997 247 62 249 57.0002 249C52.8771 249 47.5002 251.5 55.0002 256Z" fill="#FDBA8C"/>
<path d="M68.2428 239.326C68.2499 239.9 68.7211 240.36 69.2954 240.353C69.8696 240.346 70.3294 239.875 70.3224 239.301C70.3153 238.726 69.844 238.266 69.2698 238.274C68.6955 238.281 68.2357 238.752 68.2428 239.326Z" fill="#111928"/>
<path fill-rule="evenodd" clip-rule="evenodd" d="M78.9752 246.307L71.2676 249.384C73.3886 251.761 76.251 252.801 80.0391 250.846C79.8999 249.402 79.5246 247.873 78.9752 246.307Z" fill="white"/>
<path fill-rule="evenodd" clip-rule="evenodd" d="M68.3154 235.409C69.0292 235.234 69.6849 235.384 70.3411 235.666C70.5948 235.775 70.8888 235.657 70.9977 235.403C71.1066 235.149 70.9891 234.856 70.7353 234.747C69.9774 234.421 69.0856 234.19 68.0764 234.438C67.0725 234.685 66.037 235.386 64.9382 236.746C64.7646 236.961 64.798 237.276 65.0128 237.449C65.2276 237.623 65.5424 237.589 65.716 237.375C66.7334 236.116 67.5964 235.586 68.3154 235.409Z" fill="#111928"/>
<path fill-rule="evenodd" clip-rule="evenodd" d="M73.6717 236.931C73.4547 237.101 73.4173 237.416 73.5881 237.633L77.8433 243.038C77.9193 243.134 77.8871 243.276 77.7769 243.331L75.1336 244.634C74.8859 244.756 74.7841 245.056 74.9062 245.303C75.0283 245.551 75.328 245.653 75.5757 245.531L78.2191 244.228C78.8995 243.892 79.0983 243.015 78.6291 242.419L74.3739 237.014C74.203 236.797 73.8887 236.76 73.6717 236.931Z" fill="#111928"/>
<path fill-rule="evenodd" clip-rule="evenodd" d="M55.1652 253.331C54.516 252.986 54.1277 252.436 53.8262 251.789C53.7096 251.539 53.4122 251.43 53.1618 251.547C52.9115 251.664 52.8031 251.961 52.9197 252.211C53.2679 252.959 53.7782 253.726 54.696 254.214C55.6091 254.699 56.8482 254.866 58.5737 254.585C58.8462 254.541 59.0312 254.284 58.9868 254.012C58.9424 253.739 58.6855 253.554 58.4129 253.598C56.8153 253.859 55.8191 253.678 55.1652 253.331Z" fill="#111928"/>
<defs>
<linearGradient id="paint0_linear_182_7958" x1="457.887" y1="553.5" x2="433.919" y2="391.547" gradientUnits="userSpaceOnUse">
<stop stop-color="#c8d8fa"/>
<stop offset="1" stop-color="#c8d8fa" stop-opacity="0"/>
</linearGradient>
<linearGradient id="paint1_linear_182_7958" x1="472.904" y1="218.254" x2="455.979" y2="111.175" gradientUnits="userSpaceOnUse">
<stop stop-color="#c8d8fa"/>
<stop offset="1" stop-color="#c8d8fa" stop-opacity="0"/>
</linearGradient>
<linearGradient id="paint2_linear_182_7958" x1="49.7739" y1="422.083" x2="24.3111" y2="258.783" gradientUnits="userSpaceOnUse">
<stop stop-color="#c8d8fa"/>
<stop offset="1" stop-color="#c8d8fa" stop-opacity="0"/>
</linearGradient>
<linearGradient id="paint3_linear_182_7958" x1="324" y1="-4" x2="324" y2="285" gradientUnits="userSpaceOnUse">
<stop stop-color="#d6e2fb"/>
<stop offset="1" stop-color="#d6e2fb" stop-opacity="0"/>
</linearGradient>
<linearGradient id="paint4_linear_182_7958" x1="611.5" y1="278" x2="513.5" y2="499" gradientUnits="userSpaceOnUse">
<stop stop-color="#111928"/>
<stop offset="1" stop-color="#111928" stop-opacity="0"/>
</linearGradient>
<linearGradient id="paint5_linear_182_7958" x1="439" y1="485" x2="487.531" y2="524.913" gradientUnits="userSpaceOnUse">
<stop stop-color="#111928"/>
<stop offset="1" stop-color="#111928" stop-opacity="0"/>
</linearGradient>
<linearGradient id="paint6_linear_182_7958" x1="531.5" y1="397.5" x2="494.5" y2="460" gradientUnits="userSpaceOnUse">
<stop stop-color="#c8d8fa"/>
<stop offset="1" stop-color="#c8d8fa" stop-opacity="0"/>
</linearGradient>
<linearGradient id="paint7_linear_182_7958" x1="414.5" y1="306.5" x2="361.433" y2="266.529" gradientUnits="userSpaceOnUse">
<stop stop-color="#7F270F"/>
<stop offset="1" stop-color="#7F270F" stop-opacity="0"/>
</linearGradient>
<linearGradient id="paint8_linear_182_7958" x1="249.5" y1="382" x2="414.565" y2="363.365" gradientUnits="userSpaceOnUse">
<stop stop-color="#c8d8fa"/>
<stop offset="1" stop-color="#c8d8fa" stop-opacity="0"/>
</linearGradient>
<linearGradient id="paint9_linear_182_7958" x1="460.999" y1="299.5" x2="446.005" y2="406.571" gradientUnits="userSpaceOnUse">
<stop stop-color="#c8d8fa"/>
<stop offset="1" stop-color="#c8d8fa" stop-opacity="0"/>
</linearGradient>
<linearGradient id="paint10_linear_182_7958" x1="506.5" y1="291" x2="517.351" y2="318.733" gradientUnits="userSpaceOnUse">
<stop stop-color="#7F270F"/>
<stop offset="1" stop-color="#7F270F" stop-opacity="0"/>
</linearGradient>
<linearGradient id="paint11_linear_182_7958" x1="477" y1="137" x2="473.298" y2="103.375" gradientUnits="userSpaceOnUse">
<stop stop-color="#111928"/>
<stop offset="1" stop-color="#111928" stop-opacity="0"/>
</linearGradient>
<linearGradient id="paint12_linear_182_7958" x1="497.5" y1="113" x2="547" y2="134.5" gradientUnits="userSpaceOnUse">
<stop stop-color="#111928"/>
<stop offset="1" stop-color="#111928" stop-opacity="0"/>
</linearGradient>
<linearGradient id="paint13_linear_182_7958" x1="630.5" y1="220" x2="446.5" y2="133.5" gradientUnits="userSpaceOnUse">
<stop stop-color="#7F270F"/>
<stop offset="1" stop-color="#7F270F" stop-opacity="0"/>
</linearGradient>
<linearGradient id="paint14_linear_182_7958" x1="472" y1="43.5" x2="510.595" y2="50.0492" gradientUnits="userSpaceOnUse">
<stop stop-color="#7F270F"/>
<stop offset="1" stop-color="#7F270F" stop-opacity="0"/>
</linearGradient>
<linearGradient id="paint15_linear_182_7958" x1="18.9306" y1="450.508" x2="62.5185" y2="182.125" gradientUnits="userSpaceOnUse">
<stop stop-color="#7F270F"/>
<stop offset="1" stop-color="#7F270F" stop-opacity="0"/>
</linearGradient>
<linearGradient id="paint16_linear_182_7958" x1="189" y1="241" x2="188.5" y2="182.5" gradientUnits="userSpaceOnUse">
<stop stop-color="#c8d8fa"/>
<stop offset="1" stop-color="#c8d8fa" stop-opacity="0"/>
</linearGradient>
<linearGradient id="paint17_linear_182_7958" x1="188.5" y1="108" x2="188.5" y2="208.5" gradientUnits="userSpaceOnUse">
<stop stop-color="#F9FAFB"/>
<stop offset="1" stop-color="#F9FAFB" stop-opacity="0"/>
</linearGradient>
<linearGradient id="paint18_linear_182_7958" x1="-7" y1="89.5" x2="188.5" y2="219" gradientUnits="userSpaceOnUse">
<stop stop-color="#1B5BD9"/>
<stop offset="1" stop-color="#1B5BD9" stop-opacity="0"/>
</linearGradient>
<linearGradient id="paint19_linear_182_7958" x1="73" y1="451.5" x2="40.8831" y2="299.172" gradientUnits="userSpaceOnUse">
<stop stop-color="#7F270F"/>
<stop offset="1" stop-color="#7F270F" stop-opacity="0"/>
</linearGradient>
<linearGradient id="paint20_linear_182_7958" x1="73.5" y1="232.5" x2="76" y2="359" gradientUnits="userSpaceOnUse">
<stop stop-color="#c8d8fa"/>
<stop offset="1" stop-color="#c8d8fa" stop-opacity="0"/>
</linearGradient>
<linearGradient id="paint21_linear_182_7958" x1="102.5" y1="316.5" x2="104.494" y2="295.046" gradientUnits="userSpaceOnUse">
<stop stop-color="#c8d8fa"/>
<stop offset="1" stop-color="#c8d8fa" stop-opacity="0"/>
</linearGradient>
<linearGradient id="paint22_linear_182_7958" x1="93.0323" y1="255.475" x2="62.4765" y2="272.439" gradientUnits="userSpaceOnUse">
<stop stop-color="#7F270F"/>
<stop offset="1" stop-color="#7F270F" stop-opacity="0"/>
</linearGradient>
</defs>
</svg>