<svg class="w-auto max-w-[16rem] h-40 text-gray-800 dark:text-white" aria-hidden="true" width="620" height="517" viewBox="0 0 620 517" fill="none" xmlns="http://www.w3.org/2000/svg">
<path d="M1 56H466V298.934C466 301.18 463.693 303 460.848 303H6.15235C3.30678 303 1 301.18 1 298.934V56Z" fill="#d6e2fb"/>
<path d="M1 56H466V298.934C466 301.18 463.693 303 460.848 303H6.15235C3.30678 303 1 301.18 1 298.934V56Z" fill="url(#paint0_linear_344_2359)"/>
<path d="M1 45C1 42.7909 3.30679 41 6.15235 41H460.848C463.693 41 466 42.7909 466 45V56H1V45Z" fill="#d6e2fb"/>
<path fill-rule="evenodd" clip-rule="evenodd" d="M1 56H466V58H1V56Z" fill="#c8d8fa"/>
<path d="M15.6222 47.8238C15.6222 49.4389 14.3129 50.7482 12.6978 50.7482C11.0827 50.7482 9.77344 49.4389 9.77344 47.8238C9.77344 46.2087 11.0827 44.8994 12.6978 44.8994C14.3129 44.8994 15.6222 46.2087 15.6222 47.8238Z" fill="#F9FAFB"/>
<path d="M26.3448 47.8238C26.3448 49.4389 25.0355 50.7482 23.4205 50.7482C21.8054 50.7482 20.4961 49.4389 20.4961 47.8238C20.4961 46.2087 21.8054 44.8994 23.4205 44.8994C25.0355 44.8994 26.3448 46.2087 26.3448 47.8238Z" fill="#F9FAFB"/>
<path d="M37.0675 47.8238C37.0675 49.4389 35.7582 50.7482 34.1431 50.7482C32.528 50.7482 31.2188 49.4389 31.2188 47.8238C31.2188 46.2087 32.528 44.8994 34.1431 44.8994C35.7582 44.8994 37.0675 46.2087 37.0675 47.8238Z" fill="#F9FAFB"/>
<path d="M61.1175 103.999C34.807 105.616 59.8029 159.867 74.9021 177.412C83.6219 163.176 104.927 133.147 120.39 126.915C139.719 119.125 142.486 96.551 104.484 90.2067C74.0829 85.1312 62.907 93.281 61.1175 103.999Z" fill="#111928"/>
<path d="M52.9996 209.5L79.3999 151.531L103.583 164.342L87.9995 219.5L52.9996 209.5Z" fill="#FDBA8C"/>
<path d="M52.9996 209.5L79.3999 151.531L103.583 164.342L87.9995 219.5L52.9996 209.5Z" fill="url(#paint1_linear_344_2359)"/>
<path d="M108.702 180.989C125.092 179.514 125.502 138.169 123.658 117.682C111.993 113.979 97.1873 144.848 92.4946 136.169C87.802 127.489 76.5632 126.49 74.1421 135.737C71.7209 144.984 88.2142 182.833 108.702 180.989Z" fill="#FDBA8C"/>
<path d="M113.078 142.831C112.702 143.917 113.279 145.103 114.365 145.479C115.452 145.854 116.637 145.278 117.013 144.192C117.389 143.105 116.813 141.92 115.726 141.544C114.639 141.168 113.454 141.744 113.078 142.831Z" fill="#111928"/>
<path fill-rule="evenodd" clip-rule="evenodd" d="M117.891 136.149C119.276 136.647 120.202 137.624 120.984 138.821C121.287 139.284 121.907 139.414 122.37 139.111C122.832 138.809 122.962 138.189 122.66 137.726C121.757 136.344 120.527 134.969 118.569 134.265C116.621 133.564 114.118 133.585 110.779 134.634C110.252 134.8 109.958 135.362 110.124 135.89C110.29 136.417 110.852 136.71 111.379 136.544C114.471 135.573 116.496 135.647 117.891 136.149Z" fill="#111928"/>
<path fill-rule="evenodd" clip-rule="evenodd" d="M123.363 143.454C122.811 143.445 122.355 143.885 122.346 144.438L122.113 158.208C122.109 158.454 121.88 158.633 121.64 158.578L115.89 157.257C115.351 157.133 114.814 157.47 114.69 158.009C114.566 158.548 114.903 159.085 115.441 159.208L121.192 160.529C122.672 160.869 124.089 159.76 124.115 158.242L124.347 144.472C124.357 143.919 123.916 143.463 123.363 143.454Z" fill="#111928"/>
<path fill-rule="evenodd" clip-rule="evenodd" d="M112.493 164.882C111.318 164.387 110.14 163.657 108.358 162.493C107.895 162.191 107.275 162.321 106.972 162.784C106.67 163.247 106.8 163.867 107.263 164.169C109.03 165.324 110.351 166.152 111.716 166.727C113.107 167.313 114.504 167.619 116.425 167.808C116.976 167.861 117.465 167.459 117.519 166.909C117.573 166.359 117.171 165.869 116.621 165.815C114.828 165.64 113.642 165.366 112.493 164.882Z" fill="#111928"/>
<path fill-rule="evenodd" clip-rule="evenodd" d="M79.8541 141.443C79.5134 140.011 79.8249 138.701 80.3985 137.391C80.6203 136.885 80.3896 136.295 79.8833 136.073C79.3769 135.851 78.7866 136.082 78.5648 136.588C77.9022 138.1 77.4248 139.882 77.9066 141.906C78.3859 143.92 79.7734 146.003 82.4785 148.224C82.9058 148.575 83.5366 148.513 83.8873 148.085C84.2381 147.658 84.176 147.027 83.7487 146.676C81.2439 144.62 80.1974 142.885 79.8541 141.443Z" fill="#111928"/>
<path d="M5.49999 303H216.5C183.5 267 91.5 208 60 201.5C34.8 196.3 9.83333 228 0.5 244.5V298C0.5 300.761 2.73857 303 5.49999 303Z" fill="#F9FAFB"/>
<path d="M5.49999 303H216.5C183.5 267 91.5 208 60 201.5C34.8 196.3 9.83333 228 0.5 244.5V298C0.5 300.761 2.73857 303 5.49999 303Z" fill="url(#paint2_linear_344_2359)"/>
<path d="M234.796 203.955C235.268 202.211 236.851 201 238.657 201H420.775C423.409 201 425.324 203.502 424.636 206.045L399.206 300.045C398.734 301.789 397.151 303 395.344 303H213.227C210.593 303 208.678 300.498 209.366 297.955L234.796 203.955Z" fill="#F9FAFB"/>
<path fill-rule="evenodd" clip-rule="evenodd" d="M377.78 223H270.774C269.87 223 269.078 223.607 268.843 224.48L254.29 278.48C253.947 279.75 254.905 281 256.221 281H363.227C364.131 281 364.923 280.393 365.158 279.52L379.711 225.52C380.053 224.25 379.096 223 377.78 223ZM270.774 221C268.966 221 267.382 222.213 266.912 223.959L252.359 277.959C251.674 280.501 253.588 283 256.221 283H363.227C365.035 283 366.618 281.787 367.089 280.041L381.642 226.041C382.327 223.499 380.412 221 377.78 221H270.774Z" fill="#c8d8fa"/>
<path fill-rule="evenodd" clip-rule="evenodd" d="M96.28 0C94.4685 0 93 1.4685 93 3.27999V67.2398C93 69.0513 94.4685 70.5198 96.28 70.5198H116.78V80.5059C116.78 81.7418 118.095 82.5336 119.187 81.9553L140.788 70.5198H268.48C270.291 70.5198 271.76 69.0513 271.76 67.2398V3.27999C271.76 1.4685 270.291 0 268.48 0H96.28Z" fill="#c8d8fa"/>
<path d="M137.102 35.2777C137.102 34.3719 137.836 33.6377 138.742 33.6377H225.014C225.919 33.6377 226.654 34.3719 226.654 35.2777C226.654 36.1834 225.919 36.9177 225.014 36.9177H138.742C137.836 36.9177 137.102 36.1834 137.102 35.2777Z" fill="#9ab7f6"/>
<path d="M137 270H602V512.934C602 515.18 599.693 517 596.848 517H142.152C139.307 517 137 515.18 137 512.934V270Z" fill="#d6e2fb"/>
<path d="M137 270H602V512.934C602 515.18 599.693 517 596.848 517H142.152C139.307 517 137 515.18 137 512.934V270Z" fill="url(#paint3_linear_344_2359)"/>
<path d="M137 259C137 256.791 139.307 255 142.152 255H596.848C599.693 255 602 256.791 602 259V270H137V259Z" fill="#d6e2fb"/>
<path d="M137 259C137 256.791 139.307 255 142.152 255H596.848C599.693 255 602 256.791 602 259V270H137V259Z" fill="url(#paint4_linear_344_2359)"/>
<path fill-rule="evenodd" clip-rule="evenodd" d="M137 269H602V271H137V269Z" fill="#c8d8fa"/>
<path d="M151.622 261.824C151.622 263.439 150.313 264.748 148.698 264.748C147.083 264.748 145.773 263.439 145.773 261.824C145.773 260.209 147.083 258.899 148.698 258.899C150.313 258.899 151.622 260.209 151.622 261.824Z" fill="#c8d8fa"/>
<path d="M162.345 261.824C162.345 263.439 161.036 264.748 159.42 264.748C157.805 264.748 156.496 263.439 156.496 261.824C156.496 260.209 157.805 258.899 159.42 258.899C161.036 258.899 162.345 260.209 162.345 261.824Z" fill="#c8d8fa"/>
<path d="M173.067 261.824C173.067 263.439 171.758 264.748 170.143 264.748C168.528 264.748 167.219 263.439 167.219 261.824C167.219 260.209 168.528 258.899 170.143 258.899C171.758 258.899 173.067 260.209 173.067 261.824Z" fill="#c8d8fa"/>
<path d="M620 437L549 517H584.696C607.604 490.647 617.777 452.686 620 437Z" fill="#d6e2fb"/>
<path d="M620 437L549 517H584.696C607.604 490.647 617.777 452.686 620 437Z" fill="url(#paint5_linear_344_2359)"/>
<path d="M604.5 415L514 517H559.5C588.7 483.4 601.667 435 604.5 415Z" fill="#d6e2fb"/>
<path d="M604.5 415L514 517H559.5C588.7 483.4 601.667 435 604.5 415Z" fill="url(#paint6_linear_344_2359)"/>
<path d="M210.193 466.056H265.176L255.499 517H200.516L210.193 466.056Z" fill="#c8d8fa"/>
<path d="M210.193 466.056H265.176L255.499 517H200.516L210.193 466.056Z" fill="url(#paint7_linear_344_2359)"/>
<path d="M328 513C328 511.895 327.105 511 326 511H219C217.895 511 217 511.895 217 513V515C217 516.105 217.895 517 219 517H326C327.105 517 328 516.105 328 515V513Z" fill="#d6e2fb"/>
<path d="M342.262 326.966C341.794 325.217 340.209 324 338.398 324H75.4279C72.7985 324 70.8843 326.494 71.5638 329.034L108.736 467.988C109.204 469.738 110.789 470.954 112.6 470.954H375.57C378.2 470.954 380.114 468.461 379.434 465.921L342.262 326.966Z" fill="#F9FAFB"/>
<path fill-rule="evenodd" clip-rule="evenodd" d="M164.577 358.33H271.814C272.72 358.33 273.513 358.939 273.746 359.814L288.352 414.515C288.691 415.784 287.734 417.031 286.42 417.031H179.183C178.277 417.031 177.484 416.422 177.25 415.547L162.645 360.846C162.306 359.576 163.263 358.33 164.577 358.33ZM271.814 356.33C273.626 356.33 275.211 357.548 275.679 359.298L290.284 413.999C290.962 416.538 289.048 419.031 286.42 419.031H179.183C177.371 419.031 175.785 417.813 175.318 416.062L160.713 361.362C160.034 358.822 161.948 356.33 164.577 356.33H271.814Z" fill="#c8d8fa"/>
<path fill-rule="evenodd" clip-rule="evenodd" d="M374.621 447.932H103.369L103.893 449.892H375.145L374.621 447.932Z" fill="#c8d8fa"/>
<path fill-rule="evenodd" clip-rule="evenodd" d="M407.478 262C409.289 262 410.758 263.469 410.758 265.28V329.24C410.758 331.051 409.289 332.52 407.478 332.52H386.978V342.506C386.978 343.742 385.663 344.534 384.571 343.955L362.97 332.52H235.278C233.467 332.52 231.998 331.051 231.998 329.24V265.28C231.998 263.469 233.467 262 235.278 262H407.478Z" fill="#c8d8fa"/>
<path d="M366.656 289.801C366.656 288.895 365.922 288.161 365.016 288.161H278.744C277.838 288.161 277.104 288.895 277.104 289.801C277.104 290.707 277.838 291.441 278.744 291.441H365.016C365.922 291.441 366.656 290.707 366.656 289.801Z" fill="#9ab7f6"/>
<path d="M351.707 304.752C351.707 303.846 350.973 303.112 350.067 303.112H278.489C277.583 303.112 276.849 303.846 276.849 304.752C276.849 305.658 277.583 306.392 278.489 306.392H350.067C350.973 306.392 351.707 305.658 351.707 304.752Z" fill="#9ab7f6"/>
<path d="M472.5 225.5C455.3 233.1 447 250.334 445 258L458 277L493 326C494 330 496.5 343.5 512.5 343.5C528.5 343.5 543 352 546.5 359C549.667 356.5 554.8 346.6 550 327C544 302.5 515 289.5 516 265.5C517 241.5 494 216 472.5 225.5Z" fill="#111928"/>
<path d="M482.5 344.5L465 304.5C468.833 291.167 477.1 269.8 479.5 291C481.9 312.2 496.833 329.834 504 336L482.5 344.5Z" fill="#FDBA8C"/>
<path d="M482.5 344.5L465 304.5C468.833 291.167 477.1 269.8 479.5 291C481.9 312.2 496.833 329.834 504 336L482.5 344.5Z" fill="url(#paint8_linear_344_2359)"/>
<path d="M451.5 308C439.1 298.4 442 270.666 445 258C452.5 247.5 457.5 256.5 466.5 267C475.5 277.5 480.5 270 484 268.5C487.5 267 492.5 270.5 489 279.5C485.5 288.5 467 320 451.5 308Z" fill="#FDBA8C"/>
<path d="M454.186 273.954C454.684 274.948 454.282 276.158 453.288 276.656C452.293 277.154 451.084 276.752 450.586 275.758C450.087 274.764 450.49 273.554 451.484 273.056C452.478 272.558 453.688 272.96 454.186 273.954Z" fill="#111928"/>
<path fill-rule="evenodd" clip-rule="evenodd" d="M450.579 267.28C449.195 267.612 448.201 268.453 447.322 269.521C446.982 269.933 446.372 269.993 445.959 269.653C445.547 269.313 445.487 268.703 445.827 268.29C446.842 267.057 448.17 265.866 450.127 265.397C452.074 264.93 454.478 265.215 457.576 266.578C458.066 266.793 458.288 267.365 458.073 267.854C457.858 268.343 457.286 268.566 456.797 268.35C453.928 267.089 451.973 266.945 450.579 267.28Z" fill="#111928"/>
<path fill-rule="evenodd" clip-rule="evenodd" d="M444.316 275.711C444.849 275.748 445.251 276.211 445.213 276.745L444.271 290.031C444.254 290.268 444.46 290.461 444.696 290.428L450.348 289.642C450.877 289.569 451.366 289.938 451.44 290.468C451.513 290.997 451.144 291.486 450.614 291.56L444.962 292.346C443.508 292.548 442.236 291.359 442.34 289.894L443.282 276.608C443.319 276.075 443.782 275.673 444.316 275.711Z" fill="#111928"/>
<path fill-rule="evenodd" clip-rule="evenodd" d="M448.456 304.919C446.678 302.603 445.366 299.783 444.426 296.661L457.86 294.56C457.344 300.301 453.087 303.731 448.456 304.919Z" fill="white"/>
<path fill-rule="evenodd" clip-rule="evenodd" d="M484.647 277.532C484.792 276.116 484.327 274.899 483.611 273.717C483.334 273.259 483.48 272.664 483.938 272.387C484.395 272.11 484.99 272.257 485.267 272.714C486.094 274.08 486.778 275.728 486.573 277.73C486.369 279.721 485.303 281.895 482.991 284.367C482.626 284.758 482.013 284.778 481.623 284.413C481.232 284.048 481.212 283.435 481.577 283.045C483.718 280.755 484.501 278.958 484.647 277.532Z" fill="#111928"/>
<path d="M542.657 509.668L528.999 503.5H468.999C448.199 439.1 467.666 375 479.999 351V343.396C479.999 342.557 480.523 341.808 481.31 341.519L503.507 333.364C504.128 333.136 504.821 333.23 505.36 333.614L511.499 338C544.499 346.5 555.999 358.5 560.999 410C564.856 449.728 552.596 491.1 545.29 508.649C544.862 509.677 543.671 510.126 542.657 509.668Z" fill="#F9FAFB"/>
<path fill-rule="evenodd" clip-rule="evenodd" d="M491 503.5H468.999C460.024 475.712 458.546 447.979 460.757 423.5H506.5L488 485.5L491 487V503.5Z" fill="url(#paint9_linear_344_2359)"/>
<path fill-rule="evenodd" clip-rule="evenodd" d="M510.323 337.159L511.5 338C511.583 338.021 511.667 338.043 511.75 338.064L479.783 351.424C479.856 351.281 479.928 351.14 480 351V349.832L510.323 337.159Z" fill="#c8d8fa"/>
<path d="M484.5 496.5L491 487L531.5 504.5C522.7 513.7 514.5 516.833 511.5 517H301C302.167 514.167 307.2 507.3 318 504.5C328.8 501.7 350.833 503.333 360.5 504.5L484.5 496.5Z" fill="#FDBA8C"/>
<path d="M484.5 496.5L491 487L531.5 504.5C522.7 513.7 514.5 516.833 511.5 517H301C302.167 514.167 307.2 507.3 318 504.5C328.8 501.7 350.833 503.333 360.5 504.5L484.5 496.5Z" fill="url(#paint10_linear_344_2359)"/>
<defs>
<linearGradient id="paint0_linear_344_2359" x1="233.5" y1="489.012" x2="233.5" y2="43.2942" gradientUnits="userSpaceOnUse">
<stop stop-color="#c8d8fa"/>
<stop offset="1" stop-color="#c8d8fa" stop-opacity="0"/>
</linearGradient>
<linearGradient id="paint1_linear_344_2359" x1="140.152" y1="145.002" x2="80.9786" y2="203.55" gradientUnits="userSpaceOnUse">
<stop stop-color="#7F270F"/>
<stop offset="1" stop-color="#7F270F" stop-opacity="0"/>
</linearGradient>
<linearGradient id="paint2_linear_344_2359" x1="90.5" y1="473" x2="42.7621" y2="226.546" gradientUnits="userSpaceOnUse">
<stop stop-color="#c8d8fa"/>
<stop offset="1" stop-color="#c8d8fa" stop-opacity="0"/>
</linearGradient>
<linearGradient id="paint3_linear_344_2359" x1="369.5" y1="703.012" x2="369.5" y2="257.294" gradientUnits="userSpaceOnUse">
<stop stop-color="#c8d8fa"/>
<stop offset="1" stop-color="#c8d8fa" stop-opacity="0"/>
</linearGradient>
<linearGradient id="paint4_linear_344_2359" x1="94" y1="211.5" x2="400" y2="369.5" gradientUnits="userSpaceOnUse">
<stop stop-color="#F9FAFB"/>
<stop offset="1" stop-color="#F9FAFB" stop-opacity="0"/>
</linearGradient>
<linearGradient id="paint5_linear_344_2359" x1="539.5" y1="530" x2="596.614" y2="480.1" gradientUnits="userSpaceOnUse">
<stop stop-color="#c8d8fa"/>
<stop offset="1" stop-color="#c8d8fa" stop-opacity="0"/>
</linearGradient>
<linearGradient id="paint6_linear_344_2359" x1="441.5" y1="499" x2="492.461" y2="423.43" gradientUnits="userSpaceOnUse">
<stop stop-color="#c8d8fa"/>
<stop offset="1" stop-color="#c8d8fa" stop-opacity="0"/>
</linearGradient>
<linearGradient id="paint7_linear_344_2359" x1="209.998" y1="367" x2="199.074" y2="490.816" gradientUnits="userSpaceOnUse">
<stop stop-color="#2563eb"/>
<stop offset="1" stop-color="#2563eb" stop-opacity="0"/>
</linearGradient>
<linearGradient id="paint8_linear_344_2359" x1="515.5" y1="260.5" x2="489.038" y2="348.61" gradientUnits="userSpaceOnUse">
<stop stop-color="#7F270F"/>
<stop offset="1" stop-color="#7F270F" stop-opacity="0"/>
</linearGradient>
<linearGradient id="paint9_linear_344_2359" x1="462.321" y1="535" x2="424.675" y2="464.005" gradientUnits="userSpaceOnUse">
<stop stop-color="#c8d8fa"/>
<stop offset="1" stop-color="#c8d8fa" stop-opacity="0"/>
</linearGradient>
<linearGradient id="paint10_linear_344_2359" x1="825.5" y1="502" x2="809.922" y2="574.178" gradientUnits="userSpaceOnUse">
<stop stop-color="#7F270F"/>
<stop offset="1" stop-color="#7F270F" stop-opacity="0"/>
</linearGradient>
</defs>
</svg>