<svg class="w-auto max-w-[16rem] h-40 text-gray-800 dark:text-white" aria-hidden="true" width="561" height="651" viewBox="0 0 561 651" fill="none" xmlns="http://www.w3.org/2000/svg">
<path d="M274 344H295L367.675 644.52C368.35 647.312 366.235 650 363.362 650C361.374 650 359.628 648.677 359.09 646.763L274 344Z" fill="#d6e2fb"/>
<path d="M274 344H295L367.675 644.52C368.35 647.312 366.235 650 363.362 650C361.374 650 359.628 648.677 359.09 646.763L274 344Z" fill="url(#paint0_linear_182_7950)"/>
<path d="M170 344H149L76.3252 644.52C75.65 647.312 77.7655 650 80.638 650C82.6262 650 84.3717 648.677 84.9096 646.763L170 344Z" fill="#d6e2fb"/>
<path d="M170 344H149L76.3252 644.52C75.65 647.312 77.7655 650 80.638 650C82.6262 650 84.3717 648.677 84.9096 646.763L170 344Z" fill="url(#paint1_linear_182_7950)"/>
<path d="M120.757 80.3517C121.493 77.7759 123.847 76 126.526 76H489.046C493.032 76 495.91 79.8154 494.815 83.6483L418.244 351.648C417.508 354.224 415.154 356 412.475 356H49.9548C45.9686 356 43.0906 352.185 44.1857 348.352L120.757 80.3517Z" fill="#d6e2fb"/>
<path d="M120.757 80.3517C121.493 77.7759 123.847 76 126.526 76H489.046C493.032 76 495.91 79.8154 494.815 83.6483L418.244 351.648C417.508 354.224 415.154 356 412.475 356H49.9548C45.9686 356 43.0906 352.185 44.1857 348.352L120.757 80.3517Z" fill="url(#paint2_linear_182_7950)"/>
<path d="M110.757 80.3517C111.493 77.7759 113.847 76 116.526 76H479.046C483.032 76 485.91 79.8154 484.815 83.6483L408.244 351.648C407.508 354.224 405.154 356 402.475 356H39.9548C35.9686 356 33.0906 352.185 34.1857 348.352L110.757 80.3517Z" fill="#d6e2fb"/>
<path fill-rule="evenodd" clip-rule="evenodd" d="M432.873 162.366C425.323 165.398 416.013 170.609 403.991 177.372C397.813 180.847 392.456 181.623 387.494 180.767C382.577 179.919 378.139 177.481 373.778 174.72C372.614 173.983 371.455 173.224 370.291 172.461C362.636 167.447 354.761 162.289 344.02 162.5C341.087 162.557 337.744 163.809 334.046 166.083C330.359 168.351 326.404 171.583 322.264 175.486C313.984 183.292 305.083 193.67 296.263 204.084C295.584 204.887 294.904 205.69 294.226 206.492C286.122 216.071 278.136 225.51 270.878 232.733C266.944 236.647 263.192 239.942 259.723 242.264C256.275 244.572 252.986 246 250 246C244.688 246 240.425 245.338 236.54 244.734L236.214 244.684C232.232 244.066 228.662 243.538 224.63 243.811C216.601 244.354 206.539 248.095 188.083 261.313C169.553 274.585 155.207 282.777 141.942 287.199C128.647 291.63 116.492 292.257 102.376 290.492C80.4344 287.75 66.8499 300.128 62.8483 306.53L61.1523 305.47C65.4841 298.539 79.7662 285.651 102.624 288.508C116.509 290.243 128.354 289.62 141.309 285.302C154.293 280.973 168.448 272.916 186.918 259.687C205.462 246.406 215.899 242.397 224.495 241.815C228.776 241.525 232.55 242.091 236.521 242.707L236.819 242.754C240.712 243.358 244.844 244 250 244C252.39 244 255.273 242.835 258.61 240.602C261.926 238.383 265.573 235.19 269.467 231.315C276.661 224.157 284.591 214.783 292.713 205.183C293.387 204.387 294.061 203.589 294.737 202.791C303.543 192.393 312.517 181.927 320.892 174.03C325.082 170.081 329.149 166.747 332.998 164.38C336.835 162.02 340.538 160.568 343.981 160.5C355.386 160.277 363.812 165.81 371.442 170.821C372.593 171.576 373.726 172.32 374.848 173.03C379.174 175.769 383.33 178.019 387.834 178.796C392.295 179.565 397.188 178.903 403.01 175.629C414.988 168.891 424.428 163.602 432.128 160.51C439.818 157.421 446.003 156.424 451.372 158.572L450.629 160.429C445.998 158.576 440.433 159.329 432.873 162.366Z" fill="#9ab7f6"/>
<path d="M402.258 236H423.258L401 310.757H380L402.258 236Z" fill="white"/>
<path d="M363.921 264H384.921L371 310.757H350L363.921 264Z" fill="white"/>
<path d="M328.562 282H349.562L341.001 310.757H320.001L328.562 282Z" fill="white"/>
<path d="M454.778 159.223C454.216 161.003 452.247 162.446 450.38 162.446C448.513 162.446 447.456 161.003 448.018 159.223C448.58 157.443 450.549 156 452.416 156C454.283 156 455.34 157.443 454.778 159.223Z" fill="white"/>
<path d="M340.506 163.768C339.674 166.401 336.761 168.536 334 168.536C331.238 168.536 329.674 166.401 330.506 163.768C331.337 161.135 334.25 159 337.012 159C339.773 159 341.337 161.135 340.506 163.768Z" fill="#2563eb"/>
<path d="M64.8854 305.768C64.3232 307.548 62.3541 308.991 60.4874 308.991C58.6207 308.991 57.5632 307.548 58.1255 305.768C58.6878 303.988 60.6568 302.545 62.5235 302.545C64.3902 302.545 65.4477 303.988 64.8854 305.768Z" fill="white"/>
<path d="M206.5 603.03L210 636.03L250.5 648.03L278 645.03C278.833 643.864 280.2 641.03 279 639.03C277.5 636.53 269 634.03 255 626.53C243.8 620.53 238.667 608.364 237.5 603.03H206.5Z" fill="#d6e2fb"/>
<path d="M206.5 603.03L210 636.03L250.5 648.03L278 645.03C278.833 643.864 280.2 641.03 279 639.03C277.5 636.53 269 634.03 255 626.53C243.8 620.53 238.667 608.364 237.5 603.03H206.5Z" fill="url(#paint3_linear_182_7950)"/>
<path d="M210 636.03L210.867 648.173C210.942 649.219 211.813 650.03 212.862 650.03H268.79C274.207 650.03 281.412 648.78 280.637 643.419C280.392 641.721 279.674 640.109 279 639.03C278 644.53 274 645.03 260 645.03C246 645.03 237.5 639.53 227 635.53C218.6 632.33 212.167 634.53 210 636.03Z" fill="#374151"/>
<path d="M111 641.03L114.5 604.03L141 603.03L146.5 645.03L111 641.03Z" fill="#d6e2fb"/>
<path d="M111 641.03L114.5 604.03L141 603.03L146.5 645.03L111 641.03Z" fill="url(#paint4_linear_182_7950)"/>
<path d="M145.5 650.03H111.222C110.034 650.03 109.109 649.002 109.233 647.821L110 640.53C111 638.364 115.8 634.03 127 634.03C138.2 634.03 145.334 641.697 147.5 645.53V648.03C147.5 649.135 146.605 650.03 145.5 650.03Z" fill="#374151"/>
<path d="M321.136 125.198C320.785 124.151 321.349 123.017 322.396 122.666C323.444 122.315 324.577 122.879 324.928 123.927L334.781 153.319L334.156 157.747L330.989 154.591L321.136 125.198Z" fill="#111928"/>
<path fill-rule="evenodd" clip-rule="evenodd" d="M241 205.03C261.667 188.364 304.1 153.83 308.5 149.03C310.079 147.308 311.492 145.339 312.871 143.419C316.297 138.647 319.509 134.174 324.5 134.53C331.428 135.025 333 135.53 333 142.53C335.167 144.03 339 148.13 337 152.53C336.667 153.03 335.6 153.73 334 152.53C332 151.03 325.5 150.53 322 151.03C319.2 151.43 281.834 192.864 263.5 213.53C256 220.864 238.8 233.63 230 226.03C221.2 218.43 233.667 208.864 241 205.03ZM331 141.03C331 140.53 330.5 139.53 329.5 139.03C328.369 138.465 327 138.53 326 139.03L331 141.03Z" fill="#FDBA8C"/>
<path fill-rule="evenodd" clip-rule="evenodd" d="M241 205.03C261.667 188.364 304.1 153.83 308.5 149.03C310.079 147.308 311.492 145.339 312.871 143.419C316.297 138.647 319.509 134.174 324.5 134.53C331.428 135.025 333 135.53 333 142.53C335.167 144.03 339 148.13 337 152.53C336.667 153.03 335.6 153.73 334 152.53C332 151.03 325.5 150.53 322 151.03C319.2 151.43 281.834 192.864 263.5 213.53C256 220.864 238.8 233.63 230 226.03C221.2 218.43 233.667 208.864 241 205.03ZM331 141.03C331 140.53 330.5 139.53 329.5 139.03C328.369 138.465 327 138.53 326 139.03L331 141.03Z" fill="url(#paint5_linear_182_7950)"/>
<path d="M201.255 604.312L171.5 395.53L151.176 604.224C151.076 605.249 150.215 606.03 149.186 606.03H107.216C106.031 606.03 105.105 605.005 105.226 603.826L138 284.53H205L248.193 603.762C248.356 604.962 247.423 606.03 246.211 606.03H203.235C202.24 606.03 201.396 605.298 201.255 604.312Z" fill="#2563eb"/>
<path fill-rule="evenodd" clip-rule="evenodd" d="M152.835 592.03H106.5V590.03H152.835V592.03Z" fill="#d6e2fb"/>
<path fill-rule="evenodd" clip-rule="evenodd" d="M246.835 592.03H199V590.03H246.835V592.03Z" fill="#d6e2fb"/>
<path d="M125 606.03L161 321.53L171.5 395.459L151 606.03H125Z" fill="url(#paint6_linear_182_7950)"/>
<path fill-rule="evenodd" clip-rule="evenodd" d="M205.426 301.409C202.226 309.231 195.316 312.581 190.846 313.646C190.143 313.814 189.736 314.444 189.823 314.993L233.488 590.874L231.512 591.187L187.848 315.306C187.572 313.564 188.828 312.071 190.382 311.701C194.478 310.724 200.703 307.671 203.574 300.652L205.426 301.409Z" fill="#d6e2fb"/>
<path d="M153 148.53C159 156.13 162.833 162.03 164 164.03C169.999 162.83 176.5 142.197 179 132.03C181 130.864 185.1 128.03 185.5 126.03C186 123.53 182 119.03 169.5 115.53C159.5 112.73 154.333 121.697 153 126.53C145 128.03 145.5 139.03 153 148.53Z" fill="#111928"/>
<path d="M162 182.53L164 149.03L177 157.03L177.5 182.53H162Z" fill="#FDBA8C"/>
<path d="M162 182.53L164 149.03L177 157.03L177.5 182.53H162Z" fill="url(#paint7_linear_182_7950)"/>
<path d="M184 160.53C191.6 156.53 185.167 137.863 181 129.03C177 126.53 171.5 143.53 167.5 141.03C164.785 139.333 158 134.53 160 142.53C162 150.53 174.5 165.53 184 160.53Z" fill="#FDBA8C"/>
<path d="M178.134 140.302C178.039 140.868 178.42 141.404 178.986 141.5C179.553 141.596 180.089 141.215 180.185 140.648C180.281 140.082 179.899 139.545 179.333 139.45C178.767 139.354 178.23 139.735 178.134 140.302Z" fill="#111928"/>
<path fill-rule="evenodd" clip-rule="evenodd" d="M178.907 136.46C179.641 136.415 180.259 136.681 180.854 137.075C181.084 137.227 181.395 137.164 181.547 136.934C181.7 136.704 181.637 136.394 181.406 136.241C180.719 135.786 179.883 135.398 178.846 135.462C177.814 135.526 176.669 136.03 175.345 137.172C175.136 137.352 175.113 137.668 175.293 137.877C175.473 138.086 175.789 138.109 175.998 137.929C177.224 136.872 178.168 136.506 178.907 136.46Z" fill="#111928"/>
<path fill-rule="evenodd" clip-rule="evenodd" d="M183.275 139.678C183.017 139.777 182.889 140.066 182.988 140.324L185.461 146.743C185.505 146.858 185.433 146.984 185.311 147.003L182.401 147.469C182.129 147.513 181.943 147.77 181.987 148.042C182.03 148.315 182.287 148.501 182.56 148.457L185.47 147.991C186.219 147.871 186.667 147.091 186.394 146.383L183.921 139.964C183.822 139.707 183.532 139.578 183.275 139.678Z" fill="#111928"/>
<path d="M185.826 155.075C180.832 155.997 178.249 153.884 177.066 150.629L185.826 150.629L185.826 155.075Z" fill="white"/>
<path fill-rule="evenodd" clip-rule="evenodd" d="M163.65 144.163C163.365 143.486 163.411 142.815 163.585 142.123C163.653 141.855 163.491 141.583 163.223 141.515C162.955 141.448 162.684 141.61 162.616 141.878C162.414 142.677 162.325 143.594 162.729 144.552C163.131 145.505 163.986 146.417 165.501 147.289C165.741 147.426 166.046 147.344 166.184 147.104C166.322 146.865 166.239 146.559 166 146.422C164.597 145.615 163.938 144.846 163.65 144.163Z" fill="#111928"/>
<path d="M230.043 233.661L209.5 224.53V286.03C209.5 287.135 208.605 288.03 207.5 288.03H138.34C137.3 288.03 136.435 287.257 136.355 286.22C133.686 251.633 134.419 184.64 158 179.53C181.366 174.468 222.742 192.059 241.984 202.22C242.862 202.684 243.248 203.721 242.907 204.654L232.734 232.519C232.337 233.607 231.102 234.131 230.043 233.661Z" fill="#F9FAFB"/>
<path d="M183.5 288.03V212.53L209.5 224.324V288.03H183.5Z" fill="url(#paint8_linear_182_7950)"/>
<path fill-rule="evenodd" clip-rule="evenodd" d="M31.1371 461.875L73.5965 461.875C74.4461 461.875 75.1348 461.186 75.1348 460.336L75.1348 448.306C75.1348 447.456 74.4461 446.768 73.5965 446.768L31.1371 446.768C30.2875 446.768 29.5988 447.456 29.5988 448.306L29.5988 460.336C29.5988 461.186 30.2875 461.875 31.1371 461.875ZM73.5965 463.875C75.5506 463.875 77.1348 462.29 77.1348 460.336L77.1348 448.306C77.1348 446.352 75.5506 444.768 73.5965 444.768L31.1371 444.768C29.183 444.768 27.5988 446.352 27.5988 448.306L27.5988 460.336C27.5988 462.29 29.1829 463.875 31.1371 463.875L73.5965 463.875Z" fill="#d6e2fb"/>
<path fill-rule="evenodd" clip-rule="evenodd" d="M58.7357 437.106L101.195 437.106C102.045 437.106 102.733 436.418 102.733 435.568L102.733 423.538C102.733 422.688 102.045 422 101.195 422L58.7357 422C57.8861 422 57.1974 422.688 57.1974 423.538L57.1974 435.568C57.1974 436.418 57.8862 437.106 58.7357 437.106ZM101.195 439.106C103.149 439.106 104.733 437.522 104.733 435.568L104.733 423.538C104.733 421.584 103.149 420 101.195 420L58.7357 420C56.7816 420 55.1974 421.584 55.1974 423.538L55.1974 435.568C55.1974 437.522 56.7816 439.106 58.7357 439.106L101.195 439.106Z" fill="#d6e2fb"/>
<path fill-rule="evenodd" clip-rule="evenodd" d="M3.53845 437.106L45.9979 437.106C46.8474 437.106 47.5361 436.418 47.5361 435.568L47.5361 423.538C47.5361 422.688 46.8474 422 45.9979 422L3.53846 422C2.68888 422 2.00017 422.688 2.00017 423.538L2.00017 435.568C2.00017 436.418 2.68888 437.106 3.53845 437.106ZM45.9979 439.106C47.952 439.106 49.5361 437.522 49.5361 435.568L49.5361 423.538C49.5361 421.584 47.952 420 45.9979 420L3.53846 420C1.58432 420 0.000173193 421.584 0.000173022 423.538L0.000171971 435.568C0.0001718 437.522 1.58431 439.106 3.53845 439.106L45.9979 439.106Z" fill="#d6e2fb"/>
<path fill-rule="evenodd" clip-rule="evenodd" d="M529.596 2L487.137 2C486.287 2 485.599 2.68871 485.599 3.53828V15.5684C485.599 16.418 486.287 17.1067 487.137 17.1067L529.596 17.1067C530.446 17.1067 531.135 16.418 531.135 15.5684V3.53828C531.135 2.68871 530.446 2 529.596 2ZM487.137 0C485.183 0 483.599 1.58414 483.599 3.53828V15.5684C483.599 17.5226 485.183 19.1067 487.137 19.1067L529.596 19.1067C531.55 19.1067 533.135 17.5226 533.135 15.5684V3.53828C533.135 1.58414 531.55 0 529.596 0L487.137 0Z" fill="#d6e2fb"/>
<path fill-rule="evenodd" clip-rule="evenodd" d="M501.998 26.7681L459.538 26.7681C458.689 26.7681 458 27.4568 458 28.3063V40.3365C458 41.1861 458.689 41.8748 459.538 41.8748L501.998 41.8748C502.847 41.8748 503.536 41.1861 503.536 40.3365V28.3063C503.536 27.4568 502.847 26.7681 501.998 26.7681ZM459.538 24.7681C457.584 24.7681 456 26.3522 456 28.3063V40.3365C456 42.2907 457.584 43.8748 459.538 43.8748L501.998 43.8748C503.952 43.8748 505.536 42.2907 505.536 40.3365V28.3063C505.536 26.3522 503.952 24.7681 501.998 24.7681L459.538 24.7681Z" fill="#d6e2fb"/>
<path fill-rule="evenodd" clip-rule="evenodd" d="M557.195 26.7681L514.736 26.7681C513.886 26.7681 513.197 27.4568 513.197 28.3063V40.3365C513.197 41.1861 513.886 41.8748 514.736 41.8748L557.195 41.8748C558.045 41.8748 558.733 41.1861 558.733 40.3365V28.3063C558.733 27.4568 558.045 26.7681 557.195 26.7681ZM514.736 24.7681C512.781 24.7681 511.197 26.3522 511.197 28.3063V40.3365C511.197 42.2907 512.781 43.8748 514.736 43.8748L557.195 43.8748C559.149 43.8748 560.733 42.2907 560.733 40.3365V28.3063C560.733 26.3522 559.149 24.7681 557.195 24.7681L514.736 24.7681Z" fill="#d6e2fb"/>
<path d="M503 473L499.5 499H509C517.833 482.667 534.4 449.6 530 448C525.6 446.4 510.167 464 503 473Z" fill="#d6e2fb"/>
<path d="M503 473L499.5 499H509C517.833 482.667 534.4 449.6 530 448C525.6 446.4 510.167 464 503 473Z" fill="url(#paint9_linear_182_7950)"/>
<path d="M457 450C455.4 457.2 466.666 487 472.5 501H484.5L483 484.5C475 470 458.6 442.8 457 450Z" fill="#d6e2fb"/>
<path d="M457 450C455.4 457.2 466.666 487 472.5 501H484.5L483 484.5C475 470 458.6 442.8 457 450Z" fill="url(#paint10_linear_182_7950)"/>
<path d="M477 382C470.6 387.6 478 464.666 482.5 502.5H494L496 485C492.333 448.333 483.4 376.4 477 382Z" fill="#d6e2fb"/>
<path d="M477 382C470.6 387.6 478 464.666 482.5 502.5H494L496 485C492.333 448.333 483.4 376.4 477 382Z" fill="url(#paint11_linear_182_7950)"/>
<path d="M516 332.5C504 348.1 494 452.667 490.5 503H500.5C504.167 489 512.4 456.9 516 440.5C520.5 420 531 313 516 332.5Z" fill="#d6e2fb"/>
<path d="M529.936 499.062C529.971 497.934 529.066 497 527.937 497H457.063C455.934 497 455.029 497.934 455.064 499.062L459.716 648.062C459.75 649.142 460.635 650 461.716 650H523.284C524.365 650 525.25 649.142 525.283 648.062L529.936 499.062Z" fill="#d6e2fb"/>
<path d="M529.936 499.062C529.971 497.934 529.066 497 527.937 497H457.063C455.934 497 455.029 497.934 455.064 499.062L459.716 648.062C459.75 649.142 460.635 650 461.716 650H523.284C524.365 650 525.25 649.142 525.283 648.062L529.936 499.062Z" fill="url(#paint12_linear_182_7950)"/>
<defs>
<linearGradient id="paint0_linear_182_7950" x1="56.5" y1="7.49997" x2="317.08" y2="-7.26075" gradientUnits="userSpaceOnUse">
<stop stop-color="#9ab7f6"/>
<stop offset="1" stop-color="#9ab7f6" stop-opacity="0"/>
</linearGradient>
<linearGradient id="paint1_linear_182_7950" x1="387.5" y1="7.49997" x2="126.92" y2="-7.26075" gradientUnits="userSpaceOnUse">
<stop stop-color="#9ab7f6"/>
<stop offset="1" stop-color="#9ab7f6" stop-opacity="0"/>
</linearGradient>
<linearGradient id="paint2_linear_182_7950" x1="558" y1="443.5" x2="380" y2="-7.49996" gradientUnits="userSpaceOnUse">
<stop stop-color="#9ab7f6"/>
<stop offset="1" stop-color="#9ab7f6" stop-opacity="0"/>
</linearGradient>
<linearGradient id="paint3_linear_182_7950" x1="269" y1="600.53" x2="268.87" y2="628.394" gradientUnits="userSpaceOnUse">
<stop stop-color="#c8d8fa"/>
<stop offset="1" stop-color="#c8d8fa" stop-opacity="0"/>
</linearGradient>
<linearGradient id="paint4_linear_182_7950" x1="150" y1="600.03" x2="145.345" y2="631.993" gradientUnits="userSpaceOnUse">
<stop stop-color="#c8d8fa"/>
<stop offset="1" stop-color="#c8d8fa" stop-opacity="0"/>
</linearGradient>
<linearGradient id="paint5_linear_182_7950" x1="70.5" y1="378.53" x2="102.458" y2="142.795" gradientUnits="userSpaceOnUse">
<stop stop-color="#7F270F"/>
<stop offset="1" stop-color="#7F270F" stop-opacity="0"/>
</linearGradient>
<linearGradient id="paint6_linear_182_7950" x1="308" y1="210.53" x2="274.957" y2="513.146" gradientUnits="userSpaceOnUse">
<stop stop-color="#111928"/>
<stop offset="1" stop-color="#111928" stop-opacity="0"/>
</linearGradient>
<linearGradient id="paint7_linear_182_7950" x1="189.5" y1="151.03" x2="163.5" y2="158.53" gradientUnits="userSpaceOnUse">
<stop stop-color="#7F270F"/>
<stop offset="1" stop-color="#7F270F" stop-opacity="0"/>
</linearGradient>
<linearGradient id="paint8_linear_182_7950" x1="246" y1="213.03" x2="187.938" y2="263.147" gradientUnits="userSpaceOnUse">
<stop stop-color="#c8d8fa"/>
<stop offset="1" stop-color="#c8d8fa" stop-opacity="0"/>
</linearGradient>
<linearGradient id="paint9_linear_182_7950" x1="450.5" y1="530.5" x2="521.5" y2="465" gradientUnits="userSpaceOnUse">
<stop stop-color="#9ab7f6"/>
<stop offset="1" stop-color="#9ab7f6" stop-opacity="0"/>
</linearGradient>
<linearGradient id="paint10_linear_182_7950" x1="523" y1="520.5" x2="454.459" y2="484.096" gradientUnits="userSpaceOnUse">
<stop stop-color="#9ab7f6"/>
<stop offset="1" stop-color="#9ab7f6" stop-opacity="0"/>
</linearGradient>
<linearGradient id="paint11_linear_182_7950" x1="555" y1="533" x2="472.64" y2="463.415" gradientUnits="userSpaceOnUse">
<stop stop-color="#9ab7f6"/>
<stop offset="1" stop-color="#9ab7f6" stop-opacity="0"/>
</linearGradient>
<linearGradient id="paint12_linear_182_7950" x1="365" y1="600.804" x2="536.5" y2="600.5" gradientUnits="userSpaceOnUse">
<stop stop-color="#9ab7f6"/>
<stop offset="1" stop-color="#9ab7f6" stop-opacity="0"/>
</linearGradient>
</defs>
</svg>